<svg width="160" height="53" viewBox="0 0 160 53" fill="none" xmlns="http://www.w3.org/2000/svg">
<path fill-rule="evenodd" clip-rule="evenodd" d="M7.00487 1.02228C3.83372 1.02228 1.263 3.593 1.263 6.76414V45.8098C1.263 48.981 3.83372 51.5517 7.00487 51.5517H153.253C156.424 51.5517 158.995 48.981 158.995 45.8098V6.76414C158.995 3.593 156.424 1.02228 153.253 1.02228H7.00487ZM0.258301 6.76414C0.258301 3.03811 3.27884 0.0175781 7.00487 0.0175781H153.253C156.979 0.0175781 160 3.03812 160 6.76414V45.8098C160 49.5359 156.979 52.5564 153.253 52.5564H7.00487C3.27884 52.5564 0.258301 49.5359 0.258301 45.8098V6.76414Z" fill="#FEFEFE" fill-opacity="0.996078"/>
<path d="M53.9161 36.6578H49.0463L48.2406 38.9877H45.6655L50.0621 26.7434H52.9175L57.314 38.9877H54.7219L53.9161 36.6578ZM53.25 34.6966L51.4807 29.5817L49.7115 34.6966H53.25Z" fill="#FEFEFE" fill-opacity="0.996078"/>
<path d="M62.7185 29.5728C63.2731 29.2754 63.9071 29.1257 64.6194 29.1257C65.4483 29.1257 66.1988 29.3297 66.8699 29.7386C67.5411 30.1475 68.0725 30.7282 68.4644 31.4818C68.8552 32.2353 69.0511 33.1084 69.0511 34.101C69.0511 35.0937 68.8552 35.9728 68.4644 36.7373C68.0725 37.5019 67.5421 38.0947 66.8699 38.5157C66.1988 38.9356 65.4483 39.1466 64.6194 39.1466C63.9071 39.1466 63.2791 39.0009 62.7366 38.7086C62.193 38.4172 61.753 38.0495 61.4144 37.6054V43.6135H58.9619V29.2845H61.4144V30.686C61.7299 30.242 62.1649 29.8712 62.7195 29.5738L62.7185 29.5728ZM66.1867 32.5859C65.9476 32.1599 65.6321 31.8354 65.2413 31.6134C64.8495 31.3913 64.4265 31.2808 63.9714 31.2808C63.5162 31.2808 63.1103 31.3944 62.7185 31.6224C62.3267 31.8505 62.0122 32.18 61.7731 32.612C61.534 33.0441 61.4144 33.5524 61.4144 34.1362C61.4144 34.7199 61.534 35.2283 61.7731 35.6603C62.0122 36.0923 62.3277 36.4219 62.7185 36.6499C63.1093 36.878 63.5273 36.9915 63.9714 36.9915C64.4154 36.9915 64.8495 36.875 65.2413 36.6409C65.6321 36.4078 65.9476 36.0742 66.1867 35.6422C66.4258 35.2102 66.5454 34.6958 66.5454 34.101C66.5454 33.5062 66.4258 33.0119 66.1867 32.5859Z" fill="#FEFEFE" fill-opacity="0.996078"/>
<path d="M74.5945 29.5728C75.1491 29.2754 75.783 29.1257 76.4954 29.1257C77.3242 29.1257 78.0748 29.3297 78.7459 29.7386C79.417 30.1475 79.9485 30.7282 80.3404 31.4818C80.7312 32.2353 80.9271 33.1084 80.9271 34.101C80.9271 35.0937 80.7312 35.9728 80.3404 36.7373C79.9485 37.5019 79.418 38.0947 78.7459 38.5157C78.0737 38.9356 77.3242 39.1466 76.4954 39.1466C75.783 39.1466 75.1551 39.0009 74.6126 38.7086C74.069 38.4172 73.629 38.0495 73.2904 37.6054V43.6135H70.8379V29.2845H73.2904V30.686C73.6058 30.242 74.0409 29.8712 74.5955 29.5738L74.5945 29.5728ZM78.0637 32.5859C77.8246 32.1599 77.5091 31.8354 77.1173 31.6134C76.7254 31.3913 76.3025 31.2808 75.8473 31.2808C75.3922 31.2808 74.9863 31.3944 74.5945 31.6224C74.2026 31.8505 73.8882 32.18 73.649 32.612C73.4099 33.0441 73.2904 33.5524 73.2904 34.1362C73.2904 34.7199 73.4099 35.2283 73.649 35.6603C73.8882 36.0923 74.2036 36.4219 74.5945 36.6499C74.9853 36.878 75.4032 36.9915 75.8473 36.9915C76.2914 36.9915 76.7254 36.875 77.1173 36.6409C77.5081 36.4078 77.8236 36.0742 78.0637 35.6422C78.3028 35.2102 78.4224 34.6958 78.4224 34.101C78.4224 33.5062 78.3028 33.0119 78.0637 32.5859Z" fill="#FEFEFE" fill-opacity="0.996078"/>
<path d="M88.8018 38.6727C88.1186 38.3813 87.5781 37.9604 87.1812 37.4118C86.7844 36.8632 86.5794 36.2152 86.5684 35.4677H89.1957C89.2308 35.9701 89.4087 36.3669 89.7302 36.6593C90.0517 36.9517 90.4917 37.0973 91.0523 37.0973C91.613 37.0973 92.0741 36.9607 92.4006 36.6854C92.7272 36.4111 92.8909 36.0524 92.8909 35.6084C92.8909 35.2467 92.7794 34.9483 92.5584 34.7152C92.3363 34.4821 92.0591 34.2982 91.7265 34.1636C91.3939 34.03 90.9348 33.8803 90.3511 33.7165C89.5563 33.4834 88.9113 33.2523 88.415 33.0243C87.9187 32.7962 87.4927 32.4526 87.136 31.9904C86.7793 31.5293 86.6015 30.9134 86.6015 30.1428C86.6015 29.4184 86.7824 28.7885 87.1441 28.2509C87.5057 27.7134 88.0141 27.3025 88.6682 27.0162C89.3222 26.7298 90.0697 26.5872 90.9107 26.5872C92.1716 26.5872 93.1964 26.8936 93.9851 27.5065C94.7738 28.1193 95.2078 28.9753 95.2902 30.0725H92.5925C92.5694 29.6525 92.3916 29.3049 92.058 29.0306C91.7255 28.7563 91.2844 28.6187 90.7359 28.6187C90.2566 28.6187 89.8748 28.7412 89.5885 28.9864C89.3022 29.2315 89.1595 29.5882 89.1595 30.0554C89.1595 30.3829 89.267 30.6542 89.484 30.8702C89.7 31.0862 89.9683 31.262 90.2898 31.3957C90.6113 31.5303 91.0634 31.685 91.6471 31.8598C92.4408 32.0939 93.0889 32.327 93.5912 32.5601C94.0936 32.7942 94.5256 33.1438 94.8873 33.611C95.249 34.0782 95.4298 34.6911 95.4298 35.4506C95.4298 36.1047 95.26 36.7115 94.9214 37.2722C94.5829 37.8328 94.0865 38.2789 93.4325 38.6124C92.7784 38.945 92.0018 39.1118 91.1026 39.1118C90.2496 39.1118 89.482 38.9661 88.7988 38.6737L88.8018 38.6727Z" fill="#FEFEFE" fill-opacity="0.996078"/>
<path d="M100.405 31.2984V35.9934C100.405 36.3199 100.483 36.5571 100.641 36.7027C100.799 36.8484 101.064 36.9218 101.438 36.9218H102.576V38.9884H101.035C98.9681 38.9884 97.9342 37.9837 97.9342 35.9753V31.2984H96.7778V29.284H97.9342V26.8838H100.404V29.284H102.576V31.2984H100.404H100.405Z" fill="#FEFEFE" fill-opacity="0.996078"/>
<path d="M106.133 38.5234C105.385 38.1095 104.798 37.5217 104.372 36.7632C103.946 36.0046 103.733 35.1285 103.733 34.1359C103.733 33.1433 103.952 32.2672 104.39 31.5086C104.829 30.7501 105.426 30.1633 106.186 29.7484C106.944 29.3344 107.791 29.1265 108.726 29.1265C109.66 29.1265 110.506 29.3334 111.266 29.7484C112.024 30.1633 112.623 30.7501 113.061 31.5086C113.499 32.2682 113.718 33.1433 113.718 34.1359C113.718 35.1285 113.493 36.0046 113.044 36.7632C112.594 37.5227 111.987 38.1095 111.222 38.5234C110.458 38.9384 109.602 39.1453 108.656 39.1453C107.711 39.1453 106.881 38.9384 106.134 38.5234H106.133ZM109.908 36.6838C110.299 36.4678 110.612 36.1433 110.846 35.7113C111.079 35.2793 111.196 34.7538 111.196 34.1349C111.196 33.2126 110.954 32.5033 110.469 32.0069C109.985 31.5106 109.392 31.2625 108.691 31.2625C107.989 31.2625 107.403 31.5106 106.93 32.0069C106.457 32.5033 106.221 33.2126 106.221 34.1349C106.221 35.0572 106.451 35.7665 106.913 36.2629C107.374 36.7592 107.955 37.0073 108.656 37.0073C109.101 37.0073 109.517 36.8998 109.909 36.6828L109.908 36.6838Z" fill="#FEFEFE" fill-opacity="0.996078"/>
<path d="M119.209 29.5819C119.717 29.2905 120.298 29.1438 120.952 29.1438V31.7188H120.304C119.533 31.7188 118.953 31.8997 118.561 32.2614C118.169 32.6231 117.974 33.254 117.974 34.1532V38.9879H115.521V29.2835H117.974V30.7895C118.289 30.2761 118.701 29.8732 119.209 29.5808V29.5819Z" fill="#FEFEFE" fill-opacity="0.996078"/>
<path d="M131.55 34.8718H124.455C124.514 35.5721 124.759 36.1217 125.191 36.5185C125.623 36.9154 126.154 37.1143 126.785 37.1143C127.697 37.1143 128.345 36.7235 128.729 35.9408H131.375C131.094 36.8752 130.557 37.6428 129.763 38.2446C128.969 38.8464 127.994 39.1468 126.838 39.1468C125.903 39.1468 125.065 38.9398 124.324 38.5249C123.582 38.111 123.004 37.5232 122.59 36.7647C122.175 36.0061 121.968 35.13 121.968 34.1374C121.968 33.1447 122.172 32.2515 122.581 31.492C122.99 30.7334 123.561 30.1497 124.298 29.7408C125.033 29.3319 125.88 29.1279 126.838 29.1279C127.795 29.1279 128.586 29.3269 129.316 29.7237C130.046 30.1206 130.612 30.6842 131.015 31.4136C131.418 32.144 131.62 32.981 131.62 33.9274C131.62 34.278 131.597 34.5925 131.55 34.8728V34.8718ZM129.08 33.2251C129.068 32.5942 128.841 32.0898 128.397 31.71C127.953 31.3302 127.41 31.1403 126.768 31.1403C126.16 31.1403 125.65 31.3242 125.235 31.6919C124.82 32.0596 124.567 32.571 124.473 33.2251H129.08Z" fill="#FEFEFE" fill-opacity="0.996078"/>
<path d="M23.5825 18.6387C23.5825 18.6387 23.2781 16.4545 25.0755 14.3808C27.0477 12.1051 29.1676 12.3071 29.1676 12.3071C29.1676 12.3071 29.2781 14.6299 27.979 16.344C25.6311 19.4415 23.5825 18.6387 23.5825 18.6387Z" fill="#F2F3F7"/>
<path d="M23.5554 20.3244C25.2021 20.2581 26.7905 18.8314 29.8036 19.1077C32.2883 19.3358 34.3288 21.6325 34.145 21.8174C33.951 22.0113 31.1037 23.9182 31.1861 27.2639C31.2946 31.6283 34.9186 32.849 34.9186 32.849C34.9186 32.849 33.3975 38.2402 29.6097 40.1482C28.4925 40.7108 25.3307 39.0239 24.0799 39.0149C22.7496 39.0048 20.0088 40.6144 18.7439 40.2034C15.4736 39.1415 12.5489 33.1514 12.1912 28.2867C11.7763 22.6463 15.1963 19.8592 17.5001 19.384C20.9834 18.6647 21.5671 20.4038 23.5554 20.3244Z" fill="#F2F3F7"/>
<path d="M45.7683 9.25758H54.7483V10.4676H45.7683V9.25758ZM49.3983 10.3476H50.6883V17.8976H49.3983V10.3476ZM50.0783 12.7676L50.8983 11.8176C51.9883 12.3576 53.5583 13.2276 54.3283 13.8476L53.4383 14.9476C52.7283 14.3176 51.2083 13.3776 50.0783 12.7676ZM62.6183 9.16758L63.4883 8.62758C63.9083 9.02758 64.4283 9.59758 64.6683 9.98758L63.7383 10.5976C63.5283 10.2076 63.0283 9.60758 62.6183 9.16758ZM55.7083 10.6976H64.8183V11.6276H55.7083V10.6976ZM56.2083 9.20758H60.6783V10.1176H56.2083V9.20758ZM57.8983 8.52758H59.0383V11.2176H57.8983V8.52758ZM61.1783 8.53758H62.3583C62.2483 12.8076 62.8183 16.6776 63.7383 16.6776C63.9283 16.6776 64.0183 16.2676 64.0783 15.2176C64.3083 15.4876 64.6983 15.7376 64.9783 15.8576C64.8083 17.4076 64.4583 17.8276 63.6283 17.8276C61.5883 17.8276 61.1783 13.2976 61.1783 8.53758ZM63.4483 12.0676L64.5183 12.3676C63.8383 14.7376 62.7183 16.6876 61.0483 17.9876C60.8683 17.7276 60.5183 17.3776 60.2383 17.1576C61.7883 16.0876 62.8783 14.2376 63.4483 12.0676ZM55.8483 12.3876H60.9583V13.3276H55.8483V12.3876ZM58.3283 13.5376H59.4383V17.8776H58.3283V13.5376ZM56.3083 15.2776C56.2483 15.0476 56.0783 14.5176 55.9383 14.2276C56.1183 14.1776 56.2883 13.9976 56.4583 13.7376C56.6483 13.4676 57.1983 12.4876 57.5083 11.5276L58.6683 11.8376C58.2083 12.8976 57.5383 13.9976 56.9483 14.6976V14.7276C56.9483 14.7276 56.3083 15.0676 56.3083 15.2776ZM56.3083 15.2776V14.4376L56.8283 14.1276H60.8283L60.8183 15.1176H57.1383C56.7483 15.1176 56.3983 15.1776 56.3083 15.2776ZM55.7983 15.9276C57.0883 15.8576 59.0983 15.7076 60.9983 15.5676L60.9883 16.5276C59.1783 16.7076 57.2583 16.8776 55.9083 16.9976L55.7983 15.9276ZM66.0583 9.39758L66.8283 8.66758C67.3683 9.11758 68.0983 9.75758 68.4383 10.1876L67.6183 11.0176C67.3083 10.5776 66.5983 9.88758 66.0583 9.39758ZM66.8883 17.8176L66.6283 16.7176L66.8683 16.3376L68.8283 14.8476C68.9083 15.1676 69.0883 15.6376 69.2183 15.8776C67.3983 17.2976 67.0683 17.5776 66.8883 17.8176ZM65.5983 11.6076H67.5683V12.7576H65.5983V11.6076ZM66.8883 17.8176C66.7983 17.5376 66.5083 17.0376 66.3083 16.8076C66.5283 16.6576 66.8183 16.3176 66.8183 15.8576V11.6076H67.9683V16.6676C67.9683 16.6676 66.8883 17.3976 66.8883 17.8176ZM70.2983 14.3276H73.3783V15.0976H70.2983V14.3276ZM69.0183 9.20758H74.6183V10.0676H69.0183V9.20758ZM69.2883 10.4676H74.3183V11.2776H69.2883V10.4676ZM68.7083 11.6976H74.9383V12.5576H68.7083V11.6976ZM70.2783 15.6576H73.3683V16.4576H70.2783V15.6576ZM69.3883 12.9476H73.3583V13.8176H70.4983V17.9276H69.3883V12.9476ZM73.1083 12.9476H74.2483V16.7676C74.2483 17.2876 74.1483 17.5776 73.7783 17.7376C73.4283 17.9076 72.9283 17.9176 72.2283 17.9176C72.1883 17.6176 72.0483 17.1776 71.9083 16.8976C72.3183 16.9176 72.7983 16.9176 72.9283 16.9076C73.0583 16.9076 73.1083 16.8676 73.1083 16.7476V12.9476ZM71.1983 8.52758H72.3883V11.9776H71.1983V8.52758ZM75.7083 10.0076H84.8083V11.0976H75.7083V10.0076ZM76.8883 13.4176H79.4883V14.2976H76.8883V13.4176ZM76.8883 14.9476H79.4883V15.8376H76.8883V14.9476ZM81.0783 11.8876H82.1883V15.9876H81.0783V11.8876ZM79.0683 11.7876H80.2283V16.7376C80.2283 17.2476 80.1283 17.5276 79.7883 17.6976C79.4583 17.8776 78.9983 17.8876 78.3783 17.8876C78.3183 17.5876 78.1483 17.1476 77.9983 16.8676C78.3683 16.8876 78.7783 16.8876 78.8983 16.8776C79.0283 16.8776 79.0683 16.8376 79.0683 16.7176V11.7876ZM83.0883 11.6176H84.2683V16.6076C84.2683 17.1876 84.1583 17.4976 83.7583 17.6776C83.3783 17.8576 82.8383 17.8976 82.0983 17.8876C82.0383 17.5676 81.8483 17.0576 81.6783 16.7476C82.1883 16.7776 82.7083 16.7776 82.8783 16.7676C83.0383 16.7676 83.0883 16.7276 83.0883 16.5876V11.6176ZM77.0883 8.91758L78.2283 8.51758C78.5883 8.90758 78.9883 9.43758 79.1583 9.81758L77.9483 10.2476C77.8083 9.88758 77.4383 9.31758 77.0883 8.91758ZM82.2183 8.49758L83.5283 8.88758C83.1183 9.52758 82.6783 10.1676 82.3283 10.6076L81.2483 10.2376C81.5883 9.76758 81.9983 9.03758 82.2183 8.49758ZM76.2583 11.7876H79.4083V12.7876H77.3883V17.8576H76.2583V11.7876ZM87.7983 10.7476L88.8483 11.1776C88.1583 12.4076 87.0483 13.7376 86.0483 14.5676C85.9583 14.2976 85.6583 13.6176 85.4783 13.3276C86.3183 12.6976 87.2383 11.7176 87.7983 10.7476ZM87.5283 8.53758L88.6683 8.98758C88.0483 9.91758 87.0983 10.8976 86.2083 11.5176C86.0783 11.2476 85.7883 10.7476 85.6083 10.5076C86.3383 10.0276 87.1483 9.20758 87.5283 8.53758ZM86.8083 13.0076L87.9783 11.8276L88.0383 11.8676V17.9176H86.8083V13.0076ZM89.1883 13.2976H94.3283V14.4476H89.1883V13.2976ZM88.5383 16.4876H94.8983V17.6276H88.5383V16.4876ZM88.8483 10.3876H94.6383V11.5276H88.8483V10.3876ZM91.1883 11.0476H92.4383V16.9676H91.1883V11.0476ZM90.7183 8.85758L91.8183 8.47758C92.1183 8.96758 92.4683 9.60758 92.5983 10.0476L91.4283 10.4676C91.3183 10.0476 91.0083 9.36758 90.7183 8.85758Z" fill="#FEFEFE" fill-opacity="0.996078"/>
</svg>
