<svg width="160" height="54" viewBox="0 0 160 54" fill="none" xmlns="http://www.w3.org/2000/svg">
<path fill-rule="evenodd" clip-rule="evenodd" d="M6.74705 1.60822C3.57591 1.60822 1.00519 4.17894 1.00519 7.35008V46.3958C1.00519 49.5669 3.57591 52.1376 6.74705 52.1376H152.995C156.166 52.1376 158.737 49.5669 158.737 46.3958V7.35008C158.737 4.17894 156.166 1.60822 152.995 1.60822H6.74705ZM0.000488281 7.35008C0.000488281 3.62406 3.02103 0.603516 6.74705 0.603516H152.995C156.721 0.603516 159.742 3.62406 159.742 7.35008V46.3958C159.742 50.1218 156.721 53.1423 152.995 53.1423H6.74705C3.02103 53.1423 0.000488281 50.1218 0.000488281 46.3958V7.35008Z" fill="#FEFEFE" fill-opacity="0.996078"/>
<path d="M51.8121 12.1542C51.5991 11.7443 51.3037 11.4348 50.9249 11.2259C50.5461 11.0169 50.1091 10.9124 49.6118 10.9124C49.0672 10.9124 48.5829 11.035 48.157 11.2791C47.731 11.5233 47.3974 11.8709 47.1573 12.32C46.9161 12.7691 46.7966 13.2895 46.7966 13.8813C46.7966 14.4731 46.9172 14.9955 47.1573 15.4486C47.3974 15.9017 47.731 16.2514 48.157 16.4955C48.5829 16.7397 49.0682 16.8622 49.6118 16.8622C50.3452 16.8622 50.94 16.6573 51.3981 16.2474C51.8553 15.8374 52.1356 15.2818 52.238 14.5796H49.1506V13.5035H53.6808V14.5564C53.5944 15.1954 53.3673 15.7832 53.0006 16.3187C52.6339 16.8552 52.1567 17.2832 51.5689 17.6017C50.9812 17.9212 50.3291 18.0809 49.6108 18.0809C48.8381 18.0809 48.1318 17.9021 47.4938 17.5424C46.8549 17.1837 46.3485 16.6844 45.9737 16.0464C45.599 15.4074 45.4121 14.6861 45.4121 13.8813C45.4121 13.0765 45.599 12.3551 45.9737 11.7162C46.3485 11.0772 46.8569 10.5788 47.4999 10.2202C48.1429 9.86148 48.8462 9.68164 49.6118 9.68164C50.4869 9.68164 51.2655 9.89665 51.9477 10.3267C52.6299 10.7567 53.1242 11.3655 53.4326 12.1542H51.8121Z" fill="#FEFEFE" fill-opacity="0.996078"/>
<path d="M56.3551 10.8775V13.2908H59.1944V14.3909H56.3551V16.9107H59.5491V18.0108H55.0068V9.77832H59.5491V10.8785H56.3551V10.8775Z" fill="#FEFEFE" fill-opacity="0.996078"/>
<path d="M66.5156 9.78809V10.8882H64.3274V18.0096H62.9791V10.8882H60.7788V9.78809H66.5156Z" fill="#FEFEFE" fill-opacity="0.996078"/>
<path d="M72.3005 9.78809V18.0096H70.9521V9.78809H72.3005Z" fill="#FEFEFE" fill-opacity="0.996078"/>
<path d="M79.3853 9.78809V10.8882H77.197V18.0096H75.8487V10.8882H73.6484V9.78809H79.3853Z" fill="#FEFEFE" fill-opacity="0.996078"/>
<path d="M85.4593 17.5544C84.8163 17.1958 84.308 16.6954 83.9332 16.0524C83.5585 15.4094 83.3716 14.686 83.3716 13.8823C83.3716 13.0785 83.5585 12.3561 83.9332 11.7171C84.308 11.0781 84.8163 10.5798 85.4593 10.2211C86.1024 9.86246 86.8056 9.68262 87.5712 9.68262C88.3368 9.68262 89.0522 9.86246 89.6942 10.2211C90.3372 10.5798 90.8435 11.0792 91.2143 11.7171C91.585 12.3561 91.7699 13.0775 91.7699 13.8823C91.7699 14.687 91.585 15.4104 91.2143 16.0524C90.8435 16.6954 90.3372 17.1958 89.6942 17.5544C89.0512 17.9131 88.3438 18.093 87.5712 18.093C86.7986 18.093 86.1024 17.9141 85.4593 17.5544ZM89.025 16.5487C89.451 16.3006 89.7836 15.9459 90.0247 15.4838C90.2648 15.0226 90.3854 14.4881 90.3854 13.8813C90.3854 13.2744 90.2648 12.7419 90.0247 12.2848C89.7836 11.8277 89.451 11.476 89.025 11.2319C88.599 10.9877 88.1138 10.8651 87.5702 10.8651C87.0267 10.8651 86.5414 10.9877 86.1154 11.2319C85.6894 11.476 85.3559 11.8277 85.1157 12.2848C84.8756 12.7419 84.7551 13.2744 84.7551 13.8813C84.7551 14.4881 84.8756 15.0226 85.1157 15.4838C85.3559 15.9449 85.6894 16.2996 86.1154 16.5487C86.5414 16.7969 87.0267 16.9215 87.5702 16.9215C88.1138 16.9215 88.599 16.7969 89.025 16.5487Z" fill="#FEFEFE" fill-opacity="0.996078"/>
<path d="M99.8493 18.0099H98.501L94.444 11.8701V18.0099H93.0957V9.77734H94.444L98.501 15.905V9.77734H99.8493V18.0099Z" fill="#FEFEFE" fill-opacity="0.996078"/>
<path d="M54.6741 30.7353C54.3938 30.2219 54.008 29.8301 53.5177 29.5618C53.0274 29.2936 52.4547 29.159 51.8007 29.159C51.0763 29.159 50.4343 29.3227 49.8736 29.6493C49.313 29.9758 48.875 30.444 48.5595 31.0508C48.244 31.6587 48.0863 32.3589 48.0863 33.1526C48.0863 33.9464 48.247 34.6828 48.5675 35.2896C48.889 35.8975 49.3351 36.3647 49.9078 36.6912C50.4795 37.0187 51.1456 37.1815 51.9051 37.1815C52.8395 37.1815 53.6041 36.9333 54.1999 36.437C54.7957 35.9407 55.1865 35.2484 55.3734 34.3613H51.1697V32.4875H57.7907V34.6245C57.6269 35.4775 57.2763 36.2652 56.7398 36.9896C56.2023 37.714 55.511 38.2947 54.6641 38.7328C53.8171 39.1708 52.8687 39.3898 51.8177 39.3898C50.6382 39.3898 49.5722 39.1246 48.6208 38.5931C47.6693 38.0616 46.9218 37.3232 46.3783 36.3767C45.8357 35.4303 45.5635 34.3563 45.5635 33.1536C45.5635 31.951 45.8347 30.874 46.3783 29.9215C46.9218 28.9701 47.6683 28.2286 48.6208 27.6971C49.5722 27.1656 50.6322 26.9004 51.7997 26.9004C53.1771 26.9004 54.3747 27.236 55.3905 27.9081C56.4062 28.5803 57.1075 29.5227 57.4923 30.7373H54.6721L54.6741 30.7353Z" fill="#FEFEFE" fill-opacity="0.996078"/>
<path d="M61.4002 38.8188C60.6527 38.4049 60.066 37.8172 59.64 37.0586C59.214 36.3001 59.001 35.424 59.001 34.4313C59.001 33.4387 59.22 32.5626 59.658 31.804C60.0961 31.0455 60.6939 30.4587 61.4534 30.0438C62.212 29.6298 63.059 29.4219 63.9933 29.4219C64.9277 29.4219 65.7737 29.6288 66.5332 30.0438C67.2918 30.4587 67.8906 31.0455 68.3286 31.804C68.7667 32.5636 68.9857 33.4387 68.9857 34.4313C68.9857 35.424 68.7606 36.3001 68.3115 37.0586C67.8614 37.8182 67.2546 38.4049 66.49 38.8188C65.7254 39.2338 64.8694 39.4408 63.924 39.4408C62.9786 39.4408 62.1487 39.2338 61.4012 38.8188H61.4002ZM65.1749 36.9792C65.5657 36.7632 65.8782 36.4397 66.1123 36.0067C66.3453 35.5747 66.4629 35.0492 66.4629 34.4303C66.4629 33.508 66.2208 32.7987 65.7355 32.3024C65.2512 31.806 64.6584 31.5579 63.9572 31.5579C63.2559 31.5579 62.6701 31.806 62.1969 32.3024C61.7237 32.7987 61.4876 33.508 61.4876 34.4303C61.4876 35.3526 61.7177 36.0619 62.1799 36.5583C62.641 37.0546 63.2217 37.3027 63.923 37.3027C64.3671 37.3027 64.784 37.1952 65.1759 36.9782L65.1749 36.9792Z" fill="#FEFEFE" fill-opacity="0.996078"/>
<path d="M72.576 38.8188C71.8285 38.4049 71.2417 37.8172 70.8158 37.0586C70.3898 36.3001 70.1768 35.424 70.1768 34.4313C70.1768 33.4387 70.3958 32.5626 70.8338 31.804C71.2719 31.0455 71.8697 30.4587 72.6292 30.0438C73.3878 29.6298 74.2347 29.4219 75.1691 29.4219C76.1035 29.4219 76.9494 29.6288 77.709 30.0438C78.4676 30.4587 79.0664 31.0455 79.5044 31.804C79.9425 32.5636 80.1615 33.4387 80.1615 34.4313C80.1615 35.424 79.9364 36.3001 79.4873 37.0586C79.0372 37.8182 78.4304 38.4049 77.6658 38.8188C76.9012 39.2338 76.0452 39.4408 75.0998 39.4408C74.1544 39.4408 73.3245 39.2338 72.577 38.8188H72.576ZM76.3506 36.9792C76.7415 36.7632 77.0539 36.4397 77.288 36.0067C77.5211 35.5747 77.6387 35.0492 77.6387 34.4303C77.6387 33.508 77.3965 32.7987 76.9113 32.3024C76.427 31.806 75.8342 31.5579 75.1329 31.5579C74.4317 31.5579 73.8459 31.806 73.3727 32.3024C72.8995 32.7987 72.6634 33.508 72.6634 34.4303C72.6634 35.3526 72.8935 36.0619 73.3556 36.5583C73.8168 37.0546 74.3975 37.3027 75.0988 37.3027C75.5429 37.3027 75.9598 37.1952 76.3517 36.9782L76.3506 36.9792Z" fill="#FEFEFE" fill-opacity="0.996078"/>
<path d="M87.6762 29.8499C88.2247 30.1362 88.6568 30.507 88.9722 30.9621V29.5786H91.4418V39.3534C91.4418 40.2526 91.2609 41.0553 90.8992 41.7616C90.5376 42.4679 89.994 43.0286 89.2706 43.4435C88.5462 43.8574 87.6701 44.0654 86.6433 44.0654C85.2649 44.0654 84.1356 43.7439 83.2535 43.1019C82.3714 42.4599 81.872 41.5838 81.7555 40.4746H84.1899C84.3185 40.9187 84.5958 41.2713 85.0217 41.5346C85.4477 41.7978 85.9652 41.9284 86.572 41.9284C87.2843 41.9284 87.862 41.7154 88.3061 41.2894C88.7502 40.8634 88.9712 40.2174 88.9712 39.3534V37.8473C88.6558 38.3025 88.2207 38.6822 87.6661 38.9856C87.1115 39.2891 86.4776 39.4408 85.7652 39.4408C84.9474 39.4408 84.1999 39.2308 83.5227 38.8098C82.8456 38.3899 82.3111 37.7971 81.9202 37.0315C81.5284 36.2669 81.3335 35.3878 81.3335 34.3952C81.3335 33.4025 81.5294 32.5445 81.9202 31.785C82.3111 31.0264 82.8426 30.4427 83.5147 30.0338C84.1858 29.6249 84.9364 29.4209 85.7652 29.4209C86.4896 29.4209 87.1256 29.5636 87.6742 29.8499H87.6762ZM88.6216 32.8982C88.3875 32.4722 88.072 32.1446 87.6752 31.9176C87.2783 31.6895 86.8523 31.576 86.3962 31.576C85.94 31.576 85.5201 31.6875 85.1353 31.9085C84.7495 32.1306 84.437 32.4541 84.1979 32.8811C83.9588 33.3071 83.8392 33.8124 83.8392 34.3962C83.8392 34.9799 83.9588 35.4913 84.1979 35.9294C84.437 36.3674 84.7525 36.703 85.1433 36.9371C85.5341 37.1712 85.9521 37.2877 86.3962 37.2877C86.8403 37.2877 87.2773 37.1742 87.6752 36.9461C88.072 36.718 88.3875 36.3915 88.6216 35.9655C88.8547 35.5395 88.9722 35.0281 88.9722 34.4323C88.9722 33.8366 88.8557 33.3262 88.6216 32.8992V32.8982Z" fill="#FEFEFE" fill-opacity="0.996078"/>
<path d="M96.2943 26.3203V39.283H93.8418V26.3203H96.2943Z" fill="#FEFEFE" fill-opacity="0.996078"/>
<path d="M107.662 35.1667H100.568C100.626 35.867 100.872 36.4166 101.304 36.8134C101.736 37.2103 102.267 37.4092 102.898 37.4092C103.809 37.4092 104.457 37.0184 104.842 36.2357H107.488C107.207 37.1701 106.67 37.9377 105.876 38.5395C105.081 39.1413 104.107 39.4417 102.95 39.4417C102.016 39.4417 101.178 39.2348 100.437 38.8198C99.6951 38.4059 99.1164 37.8181 98.7025 37.0596C98.2875 36.301 98.0806 35.4249 98.0806 34.4323C98.0806 33.4396 98.2845 32.5465 98.6934 31.7869C99.1023 31.0284 99.674 30.4446 100.41 30.0357C101.146 29.6268 101.993 29.4229 102.95 29.4229C103.908 29.4229 104.699 29.6218 105.429 30.0186C106.158 30.4155 106.725 30.9791 107.128 31.7085C107.531 32.439 107.733 33.2759 107.733 34.2223C107.733 34.5729 107.71 34.8884 107.662 35.1677V35.1667ZM105.193 33.52C105.181 32.8891 104.954 32.3847 104.51 32.0049C104.066 31.6252 103.523 31.4353 102.881 31.4353C102.273 31.4353 101.763 31.6191 101.348 31.9868C100.933 32.3546 100.68 32.866 100.586 33.52H105.193Z" fill="#FEFEFE" fill-opacity="0.996078"/>
<path d="M122.14 32.679C121.831 33.2517 121.345 33.7128 120.686 34.0624C120.026 34.4131 119.194 34.5879 118.191 34.5879H116.141V39.2829H113.688V27.0557H118.191C119.136 27.0557 119.942 27.2194 120.608 27.546C121.273 27.8735 121.772 28.3226 122.106 28.8943C122.438 29.4669 122.605 30.115 122.605 30.8384C122.605 31.4924 122.45 32.1053 122.141 32.678L122.14 32.679ZM119.591 32.1445C119.918 31.835 120.081 31.4 120.081 30.8394C120.081 29.6478 119.415 29.053 118.084 29.053H116.14V32.6086H118.084C118.761 32.6086 119.264 32.4539 119.59 32.1445H119.591Z" fill="#FEFEFE" fill-opacity="0.996078"/>
<path d="M126.791 26.3203V39.283H124.338V26.3203H126.791Z" fill="#FEFEFE" fill-opacity="0.996078"/>
<path d="M129.164 31.7859C129.555 31.0274 130.087 30.4437 130.759 30.0347C131.43 29.6258 132.18 29.4219 133.009 29.4219C133.734 29.4219 134.367 29.5676 134.91 29.8599C135.453 30.1523 135.888 30.52 136.215 30.9631V29.5796H138.685V39.284H136.215V37.8654C135.9 38.3205 135.465 38.6973 134.91 38.9957C134.356 39.2931 133.716 39.4428 132.992 39.4428C132.174 39.4428 131.43 39.2328 130.759 38.8118C130.087 38.3918 129.556 37.7991 129.164 37.0335C128.773 36.2689 128.578 35.3898 128.578 34.3972C128.578 33.4045 128.774 32.5465 129.164 31.7869V31.7859ZM135.865 32.8981C135.631 32.4721 135.315 32.1446 134.918 31.9176C134.521 31.6895 134.095 31.576 133.639 31.576C133.183 31.576 132.763 31.6875 132.378 31.9085C131.993 32.1305 131.68 32.4541 131.441 32.8811C131.202 33.3071 131.082 33.8124 131.082 34.3961C131.082 34.9799 131.202 35.4913 131.441 35.9293C131.68 36.3674 131.996 36.7029 132.386 36.937C132.777 37.1711 133.195 37.2877 133.639 37.2877C134.083 37.2877 134.52 37.1741 134.918 36.9461C135.315 36.718 135.631 36.3915 135.865 35.9655C136.098 35.5395 136.215 35.0281 136.215 34.4323C136.215 33.8365 136.099 33.3261 135.865 32.8991V32.8981Z" fill="#FEFEFE" fill-opacity="0.996078"/>
<path d="M150.369 29.5781L144.36 43.872H141.75L143.852 39.0374L139.963 29.5781H142.713L145.217 36.3568L147.757 29.5781H150.368H150.369Z" fill="#FEFEFE" fill-opacity="0.996078"/>
<path d="M10.8799 11.2861C10.4268 11.8257 10.1455 12.5259 10.1455 13.3237V37.3209C10.1455 37.9529 10.3223 38.5236 10.6207 39.0018L23.284 25.0726L10.8799 11.2861Z" fill="#4285F5"/>
<path d="M29.0514 18.729L14.9183 10.5688C13.4886 9.74296 11.8178 10.17 10.8804 11.2862L23.2844 25.0727L29.0524 18.728L29.0514 18.729Z" fill="#00AE45"/>
<path d="M29.0514 18.729L14.9183 10.5688C13.4886 9.74296 11.8178 10.17 10.8804 11.2862L23.2844 25.0727L29.0524 18.728L29.0514 18.729Z" fill="#00AE45"/>
<path d="M14.9182 40.0764L29.3076 31.7686L23.2834 25.0732L10.6201 39.0024C11.4781 40.3768 13.3439 40.9847 14.9172 40.0764H14.9182Z" fill="#00AE45"/>
<path d="M14.9182 40.0764L29.3076 31.7686L23.2834 25.0732L10.6201 39.0024C11.4781 40.3768 13.3439 40.9847 14.9172 40.0764H14.9182Z" fill="#EB4132"/>
<path d="M29.3074 31.7695L35.7003 28.0783C37.8212 26.8535 37.8212 23.7922 35.7003 22.5675L29.0512 18.7285L23.2832 25.0732L29.3074 31.7685V31.7695Z" fill="#00AE45"/>
<path opacity="0.54" d="M29.3074 31.7695L35.7003 28.0783C37.8212 26.8535 37.8212 23.7922 35.7003 22.5675L29.0512 18.7285L23.2832 25.0732L29.3074 31.7685V31.7695Z" fill="#FFF200"/>
<path d="M29.3074 31.7695L35.7003 28.0783C37.8212 26.8535 37.8212 23.7922 35.7003 22.5675L29.0512 18.7285L23.2832 25.0732L29.3074 31.7685V31.7695Z" fill="#FFBB00"/>
</svg>
