<svg width="160" height="53" viewBox="0 0 160 53" fill="none" xmlns="http://www.w3.org/2000/svg">
<path fill-rule="evenodd" clip-rule="evenodd" d="M6.74681 1.02228C3.57567 1.02228 1.00494 3.593 1.00494 6.76414V45.8098C1.00494 48.981 3.57567 51.5517 6.74681 51.5517H152.995C156.166 51.5517 158.737 48.981 158.737 45.8098V6.76414C158.737 3.593 156.166 1.02228 152.995 1.02228H6.74681ZM0.000244141 6.76414C0.000244141 3.03812 3.02078 0.0175781 6.74681 0.0175781H152.995C156.721 0.0175781 159.742 3.03812 159.742 6.76414V45.8098C159.742 49.5359 156.721 52.5564 152.995 52.5564H6.74681C3.02078 52.5564 0.000244141 49.5359 0.000244141 45.8098V6.76414Z" fill="#FEFEFE" fill-opacity="0.996078"/>
<path d="M54.6739 30.1489C54.3935 29.6355 54.0077 29.2437 53.5174 28.9754C53.0272 28.7072 52.4545 28.5725 51.8004 28.5725C51.076 28.5725 50.434 28.7363 49.8734 29.0628C49.3128 29.3894 48.8747 29.8575 48.5593 30.4644C48.2438 31.0722 48.086 31.7725 48.086 32.5662C48.086 33.3599 48.2468 34.0964 48.5673 34.7032C48.8888 35.3111 49.3349 35.7782 49.9076 36.1048C50.4792 36.4323 51.1453 36.5951 51.9049 36.5951C52.8393 36.5951 53.6039 36.3469 54.1996 35.8506C54.7954 35.3543 55.1863 34.662 55.3731 33.7749H51.1695V31.9011H57.7904V34.0381C57.6267 34.8911 57.276 35.6788 56.7395 36.4032C56.202 37.1276 55.5108 37.7083 54.6638 38.1463C53.8169 38.5844 52.8684 38.8034 51.8175 38.8034C50.638 38.8034 49.572 38.5382 48.6205 38.0067C47.6691 37.4752 46.9216 36.7367 46.378 35.7903C45.8355 34.8439 45.5632 33.7698 45.5632 32.5672C45.5632 31.3646 45.8345 30.2876 46.378 29.3351C46.9216 28.3836 47.6681 27.6422 48.6205 27.1107C49.572 26.5792 50.6319 26.314 51.7994 26.314C53.1769 26.314 54.3745 26.6495 55.3902 27.3217C56.406 27.9938 57.1072 28.9362 57.492 30.1509H54.6718L54.6739 30.1489Z" fill="#FEFEFE" fill-opacity="0.996078"/>
<path d="M61.4 38.2329C60.6525 37.819 60.0657 37.2312 59.6397 36.4727C59.2137 35.7141 59.0007 34.838 59.0007 33.8454C59.0007 32.8527 59.2198 31.9766 59.6578 31.2181C60.0959 30.4595 60.6937 29.8728 61.4532 29.4578C62.2118 29.0439 63.0587 28.8359 63.9931 28.8359C64.9275 28.8359 65.7734 29.0429 66.533 29.4578C67.2915 29.8728 67.8903 30.4595 68.3284 31.2181C68.7664 31.9776 68.9854 32.8527 68.9854 33.8454C68.9854 34.838 68.7604 35.7141 68.3113 36.4727C67.8612 37.2322 67.2543 37.819 66.4898 38.2329C65.7252 38.6478 64.8692 38.8548 63.9238 38.8548C62.9783 38.8548 62.1485 38.6478 61.401 38.2329H61.4ZM65.1746 36.3933C65.5654 36.1773 65.8779 35.8538 66.112 35.4207C66.3451 34.9887 66.4626 34.4633 66.4626 33.8444C66.4626 32.9221 66.2205 32.2127 65.7352 31.7164C65.251 31.2201 64.6582 30.9719 63.9569 30.9719C63.2556 30.9719 62.6699 31.2201 62.1967 31.7164C61.7235 32.2127 61.4874 32.9221 61.4874 33.8444C61.4874 34.7667 61.7174 35.476 62.1796 35.9723C62.6408 36.4686 63.2215 36.7168 63.9228 36.7168C64.3668 36.7168 64.7838 36.6093 65.1756 36.3923L65.1746 36.3933Z" fill="#FEFEFE" fill-opacity="0.996078"/>
<path d="M72.5757 38.2329C71.8282 37.819 71.2415 37.2312 70.8155 36.4727C70.3895 35.7141 70.1765 34.838 70.1765 33.8454C70.1765 32.8527 70.3955 31.9766 70.8336 31.2181C71.2716 30.4595 71.8694 29.8728 72.629 29.4578C73.3875 29.0439 74.2345 28.8359 75.1689 28.8359C76.1032 28.8359 76.9492 29.0429 77.7088 29.4578C78.4673 29.8728 79.0661 30.4595 79.5042 31.2181C79.9422 31.9776 80.1612 32.8527 80.1612 33.8454C80.1612 34.838 79.9362 35.7141 79.4871 36.4727C79.037 37.2322 78.4301 37.819 77.6656 38.2329C76.901 38.6478 76.045 38.8548 75.0995 38.8548C74.1541 38.8548 73.3242 38.6478 72.5767 38.2329H72.5757ZM76.3504 36.3933C76.7412 36.1773 77.0537 35.8538 77.2878 35.4207C77.5209 34.9887 77.6384 34.4633 77.6384 33.8444C77.6384 32.9221 77.3963 32.2127 76.911 31.7164C76.4268 31.2201 75.834 30.9719 75.1327 30.9719C74.4314 30.9719 73.8457 31.2201 73.3725 31.7164C72.8993 32.2127 72.6631 32.9221 72.6631 33.8444C72.6631 34.7667 72.8932 35.476 73.3554 35.9723C73.8165 36.4686 74.3973 36.7168 75.0985 36.7168C75.5426 36.7168 75.9596 36.6093 76.3514 36.3923L76.3504 36.3933Z" fill="#FEFEFE" fill-opacity="0.996078"/>
<path d="M87.6762 29.2645C88.2247 29.5508 88.6568 29.9215 88.9722 30.3767V28.9932H91.4418V38.7679C91.4418 39.6671 91.2609 40.4699 90.8992 41.1762C90.5376 41.8825 89.994 42.4431 89.2706 42.8581C88.5462 43.272 87.6701 43.48 86.6433 43.48C85.2649 43.48 84.1356 43.1585 83.2535 42.5165C82.3714 41.8745 81.872 40.9984 81.7555 39.8892H84.1899C84.3185 40.3332 84.5958 40.6859 85.0217 40.9491C85.4477 41.2124 85.9652 41.343 86.572 41.343C87.2843 41.343 87.862 41.13 88.3061 40.704C88.7502 40.278 88.9712 39.632 88.9712 38.7679V37.2619C88.6558 37.717 88.2207 38.0968 87.6661 38.4002C87.1115 38.7036 86.4776 38.8553 85.7652 38.8553C84.9474 38.8553 84.1999 38.6453 83.5227 38.2244C82.8456 37.8044 82.3111 37.2116 81.9202 36.4461C81.5284 35.6815 81.3335 34.8024 81.3335 33.8097C81.3335 32.8171 81.5294 31.9591 81.9202 31.1995C82.3111 30.441 82.8426 29.8572 83.5147 29.4483C84.1858 29.0394 84.9364 28.8354 85.7652 28.8354C86.4896 28.8354 87.1256 28.9781 87.6742 29.2645H87.6762ZM88.6216 32.3127C88.3875 31.8867 88.072 31.5592 87.6752 31.3321C87.2783 31.1041 86.8523 30.9905 86.3962 30.9905C85.94 30.9905 85.5201 31.1021 85.1353 31.3231C84.7495 31.5451 84.437 31.8686 84.1979 32.2956C83.9588 32.7216 83.8392 33.227 83.8392 33.8107C83.8392 34.3945 83.9588 34.9059 84.1979 35.3439C84.437 35.782 84.7525 36.1175 85.1433 36.3516C85.5341 36.5857 85.9521 36.7023 86.3962 36.7023C86.8403 36.7023 87.2773 36.5887 87.6752 36.3607C88.072 36.1326 88.3875 35.8061 88.6216 35.3801C88.8547 34.9541 88.9722 34.4427 88.9722 33.8469C88.9722 33.2511 88.8557 32.7407 88.6216 32.3137V32.3127Z" fill="#FEFEFE" fill-opacity="0.996078"/>
<path d="M96.294 25.7344V38.697H93.8416V25.7344H96.294Z" fill="#FEFEFE" fill-opacity="0.996078"/>
<path d="M107.662 34.5805H100.568C100.626 35.2808 100.871 35.8304 101.303 36.2272C101.735 36.6241 102.267 36.823 102.898 36.823C103.809 36.823 104.457 36.4322 104.842 35.6495H107.487C107.207 36.5839 106.669 37.3515 105.876 37.9533C105.081 38.5551 104.106 38.8555 102.95 38.8555C102.015 38.8555 101.178 38.6486 100.436 38.2336C99.6946 37.8197 99.1159 37.2319 98.702 36.4734C98.287 35.7149 98.0801 34.8388 98.0801 33.8461C98.0801 32.8535 98.284 31.9603 98.6929 31.2007C99.1019 30.4422 99.6735 29.8585 100.41 29.4495C101.145 29.0406 101.992 28.8367 102.95 28.8367C103.907 28.8367 104.698 29.0356 105.428 29.4325C106.158 29.8293 106.725 30.393 107.127 31.1224C107.53 31.8528 107.732 32.6897 107.732 33.6361C107.732 33.9868 107.709 34.3022 107.662 34.5815V34.5805ZM105.192 32.9338C105.18 32.3029 104.953 31.7985 104.509 31.4188C104.065 31.039 103.523 30.8491 102.881 30.8491C102.273 30.8491 101.762 31.0329 101.347 31.4007C100.932 31.7684 100.679 32.2798 100.586 32.9338H105.192Z" fill="#FEFEFE" fill-opacity="0.996078"/>
<path d="M122.14 32.093C121.83 32.6657 121.345 33.1269 120.686 33.4765C120.026 33.8271 119.194 34.002 118.19 34.002H116.141V38.6969H113.688V26.4697H118.19C119.136 26.4697 119.941 26.6335 120.608 26.96C121.273 27.2876 121.772 27.7367 122.106 28.3083C122.438 28.881 122.605 29.529 122.605 30.2524C122.605 30.9065 122.45 31.5194 122.141 32.092L122.14 32.093ZM119.591 31.5585C119.917 31.2491 120.081 30.8141 120.081 30.2534C120.081 29.0619 119.415 28.4671 118.084 28.4671H116.14V32.0227H118.084C118.761 32.0227 119.263 31.868 119.59 31.5585H119.591Z" fill="#FEFEFE" fill-opacity="0.996078"/>
<path d="M126.79 25.7344V38.697H124.338V25.7344H126.79Z" fill="#FEFEFE" fill-opacity="0.996078"/>
<path d="M129.164 31.2C129.555 30.4414 130.087 29.8577 130.759 29.4488C131.43 29.0399 132.18 28.8359 133.009 28.8359C133.734 28.8359 134.367 28.9816 134.91 29.274C135.453 29.5664 135.888 29.9341 136.215 30.3772V28.9937H138.685V38.6981H136.215V37.2794C135.9 37.7346 135.465 38.1113 134.91 38.4097C134.356 38.7071 133.716 38.8568 132.992 38.8568C132.174 38.8568 131.43 38.6468 130.759 38.2259C130.087 37.8059 129.556 37.2131 129.164 36.4476C128.773 35.683 128.578 34.8039 128.578 33.8112C128.578 32.8186 128.774 31.9606 129.164 31.201V31.2ZM135.865 32.3122C135.631 31.8862 135.315 31.5587 134.918 31.3316C134.521 31.1035 134.095 30.99 133.639 30.99C133.183 30.99 132.763 31.1015 132.378 31.3226C131.993 31.5446 131.68 31.8681 131.441 32.2951C131.202 32.7211 131.082 33.2265 131.082 33.8102C131.082 34.3939 131.202 34.9053 131.441 35.3434C131.68 35.7814 131.996 36.117 132.386 36.3511C132.777 36.5852 133.195 36.7017 133.639 36.7017C134.083 36.7017 134.52 36.5882 134.918 36.3601C135.315 36.1321 135.631 35.8055 135.865 35.3796C136.098 34.9536 136.215 34.4422 136.215 33.8464C136.215 33.2506 136.099 32.7402 135.865 32.3132V32.3122Z" fill="#FEFEFE" fill-opacity="0.996078"/>
<path d="M150.368 28.9924L144.36 43.2863H141.75L143.852 38.4517L139.962 28.9924H142.712L145.217 35.7711L147.757 28.9924H150.367H150.368Z" fill="#FEFEFE" fill-opacity="0.996078"/>
<path d="M10.8799 10.7C10.4268 11.2395 10.1455 11.9398 10.1455 12.7375V36.7348C10.1455 37.3667 10.3223 37.9374 10.6207 38.4156L23.284 24.4865L10.8799 10.7Z" fill="#4285F5"/>
<path d="M29.0509 18.1428L14.9178 9.98264C13.4881 9.15677 11.8173 9.58377 10.8799 10.7L23.2839 24.4865L29.0519 18.1418L29.0509 18.1428Z" fill="#00AE45"/>
<path d="M29.0509 18.1428L14.9178 9.98264C13.4881 9.15677 11.8173 9.58377 10.8799 10.7L23.2839 24.4865L29.0519 18.1418L29.0509 18.1428Z" fill="#00AE45"/>
<path d="M14.9182 39.4905L29.3076 31.1826L23.2834 24.4873L10.6201 38.4165C11.4781 39.7909 13.3439 40.3988 14.9172 39.4905H14.9182Z" fill="#00AE45"/>
<path d="M14.9182 39.4905L29.3076 31.1826L23.2834 24.4873L10.6201 38.4165C11.4781 39.7909 13.3439 40.3988 14.9172 39.4905H14.9182Z" fill="#EB4132"/>
<path d="M29.3071 31.1831L35.7001 27.4918C37.821 26.2671 37.821 23.2058 35.7001 21.9811L29.0509 18.1421L23.283 24.4868L29.3071 31.1821V31.1831Z" fill="#00AE45"/>
<path opacity="0.54" d="M29.3071 31.1831L35.7001 27.4918C37.821 26.2671 37.821 23.2058 35.7001 21.9811L29.0509 18.1421L23.283 24.4868L29.3071 31.1821V31.1831Z" fill="#FFF200"/>
<path d="M29.3071 31.1831L35.7001 27.4918C37.821 26.2671 37.821 23.2058 35.7001 21.9811L29.0509 18.1421L23.283 24.4868L29.3071 31.1821V31.1831Z" fill="#FFBB00"/>
<path d="M46.5102 9.25758H55.4902V10.4676H46.5102V9.25758ZM50.1402 10.3476H51.4302V17.8976H50.1402V10.3476ZM50.8202 12.7676L51.6402 11.8176C52.7302 12.3576 54.3002 13.2276 55.0702 13.8476L54.1802 14.9476C53.4702 14.3176 51.9502 13.3776 50.8202 12.7676ZM63.3602 9.16758L64.2302 8.62758C64.6502 9.02758 65.1702 9.59758 65.4102 9.98758L64.4802 10.5976C64.2702 10.2076 63.7702 9.60758 63.3602 9.16758ZM56.4502 10.6976H65.5602V11.6276H56.4502V10.6976ZM56.9502 9.20758H61.4202V10.1176H56.9502V9.20758ZM58.6402 8.52758H59.7802V11.2176H58.6402V8.52758ZM61.9202 8.53758H63.1002C62.9902 12.8076 63.5602 16.6776 64.4802 16.6776C64.6702 16.6776 64.7602 16.2676 64.8202 15.2176C65.0502 15.4876 65.4402 15.7376 65.7202 15.8576C65.5502 17.4076 65.2002 17.8276 64.3702 17.8276C62.3302 17.8276 61.9202 13.2976 61.9202 8.53758ZM64.1902 12.0676L65.2602 12.3676C64.5802 14.7376 63.4602 16.6876 61.7902 17.9876C61.6102 17.7276 61.2602 17.3776 60.9802 17.1576C62.5302 16.0876 63.6202 14.2376 64.1902 12.0676ZM56.5902 12.3876H61.7002V13.3276H56.5902V12.3876ZM59.0702 13.5376H60.1802V17.8776H59.0702V13.5376ZM57.0502 15.2776C56.9902 15.0476 56.8202 14.5176 56.6802 14.2276C56.8602 14.1776 57.0302 13.9976 57.2002 13.7376C57.3902 13.4676 57.9402 12.4876 58.2502 11.5276L59.4102 11.8376C58.9502 12.8976 58.2802 13.9976 57.6902 14.6976V14.7276C57.6902 14.7276 57.0502 15.0676 57.0502 15.2776ZM57.0502 15.2776V14.4376L57.5702 14.1276H61.5702L61.5602 15.1176H57.8802C57.4902 15.1176 57.1402 15.1776 57.0502 15.2776ZM56.5402 15.9276C57.8302 15.8576 59.8402 15.7076 61.7402 15.5676L61.7302 16.5276C59.9202 16.7076 58.0002 16.8776 56.6502 16.9976L56.5402 15.9276ZM66.8002 9.39758L67.5702 8.66758C68.1102 9.11758 68.8402 9.75758 69.1802 10.1876L68.3602 11.0176C68.0502 10.5776 67.3402 9.88758 66.8002 9.39758ZM67.6302 17.8176L67.3702 16.7176L67.6102 16.3376L69.5702 14.8476C69.6502 15.1676 69.8302 15.6376 69.9602 15.8776C68.1402 17.2976 67.8102 17.5776 67.6302 17.8176ZM66.3402 11.6076H68.3102V12.7576H66.3402V11.6076ZM67.6302 17.8176C67.5402 17.5376 67.2502 17.0376 67.0502 16.8076C67.2702 16.6576 67.5602 16.3176 67.5602 15.8576V11.6076H68.7102V16.6676C68.7102 16.6676 67.6302 17.3976 67.6302 17.8176ZM71.0402 14.3276H74.1202V15.0976H71.0402V14.3276ZM69.7602 9.20758H75.3602V10.0676H69.7602V9.20758ZM70.0302 10.4676H75.0602V11.2776H70.0302V10.4676ZM69.4502 11.6976H75.6802V12.5576H69.4502V11.6976ZM71.0202 15.6576H74.1102V16.4576H71.0202V15.6576ZM70.1302 12.9476H74.1002V13.8176H71.2402V17.9276H70.1302V12.9476ZM73.8502 12.9476H74.9902V16.7676C74.9902 17.2876 74.8902 17.5776 74.5202 17.7376C74.1702 17.9076 73.6702 17.9176 72.9702 17.9176C72.9302 17.6176 72.7902 17.1776 72.6502 16.8976C73.0602 16.9176 73.5402 16.9176 73.6702 16.9076C73.8002 16.9076 73.8502 16.8676 73.8502 16.7476V12.9476ZM71.9402 8.52758H73.1302V11.9776H71.9402V8.52758ZM76.4502 10.0076H85.5502V11.0976H76.4502V10.0076ZM77.6302 13.4176H80.2302V14.2976H77.6302V13.4176ZM77.6302 14.9476H80.2302V15.8376H77.6302V14.9476ZM81.8202 11.8876H82.9302V15.9876H81.8202V11.8876ZM79.8102 11.7876H80.9702V16.7376C80.9702 17.2476 80.8702 17.5276 80.5302 17.6976C80.2002 17.8776 79.7402 17.8876 79.1202 17.8876C79.0602 17.5876 78.8902 17.1476 78.7402 16.8676C79.1102 16.8876 79.5202 16.8876 79.6402 16.8776C79.7702 16.8776 79.8102 16.8376 79.8102 16.7176V11.7876ZM83.8302 11.6176H85.0102V16.6076C85.0102 17.1876 84.9002 17.4976 84.5002 17.6776C84.1202 17.8576 83.5802 17.8976 82.8402 17.8876C82.7802 17.5676 82.5902 17.0576 82.4202 16.7476C82.9302 16.7776 83.4502 16.7776 83.6202 16.7676C83.7802 16.7676 83.8302 16.7276 83.8302 16.5876V11.6176ZM77.8302 8.91758L78.9702 8.51758C79.3302 8.90758 79.7302 9.43758 79.9002 9.81758L78.6902 10.2476C78.5502 9.88758 78.1802 9.31758 77.8302 8.91758ZM82.9602 8.49758L84.2702 8.88758C83.8602 9.52758 83.4202 10.1676 83.0702 10.6076L81.9902 10.2376C82.3302 9.76758 82.7402 9.03758 82.9602 8.49758ZM77.0002 11.7876H80.1502V12.7876H78.1302V17.8576H77.0002V11.7876ZM88.5402 10.7476L89.5902 11.1776C88.9002 12.4076 87.7902 13.7376 86.7902 14.5676C86.7002 14.2976 86.4002 13.6176 86.2202 13.3276C87.0602 12.6976 87.9802 11.7176 88.5402 10.7476ZM88.2702 8.53758L89.4102 8.98758C88.7902 9.91758 87.8402 10.8976 86.9502 11.5176C86.8202 11.2476 86.5302 10.7476 86.3502 10.5076C87.0802 10.0276 87.8902 9.20758 88.2702 8.53758ZM87.5502 13.0076L88.7202 11.8276L88.7802 11.8676V17.9176H87.5502V13.0076ZM89.9302 13.2976H95.0702V14.4476H89.9302V13.2976ZM89.2802 16.4876H95.6402V17.6276H89.2802V16.4876ZM89.5902 10.3876H95.3802V11.5276H89.5902V10.3876ZM91.9302 11.0476H93.1802V16.9676H91.9302V11.0476ZM91.4602 8.85758L92.5602 8.47758C92.8602 8.96758 93.2102 9.60758 93.3402 10.0476L92.1702 10.4676C92.0602 10.0476 91.7502 9.36758 91.4602 8.85758Z" fill="#FEFEFE" fill-opacity="0.996078"/>
</svg>
