<svg width="160" height="54" viewBox="0 0 160 54" fill="none" xmlns="http://www.w3.org/2000/svg">
<path fill-rule="evenodd" clip-rule="evenodd" d="M7.00487 1.60822C3.83372 1.60822 1.263 4.17893 1.263 7.35008V46.3958C1.263 49.5669 3.83372 52.1376 7.00487 52.1376H153.253C156.424 52.1376 158.995 49.5669 158.995 46.3958V7.35008C158.995 4.17893 156.424 1.60822 153.253 1.60822H7.00487ZM0.258301 7.35008C0.258301 3.62405 3.27884 0.603516 7.00487 0.603516H153.253C156.979 0.603516 160 3.62405 160 7.35008V46.3958C160 50.1218 156.979 53.1423 153.253 53.1423H7.00487C3.27884 53.1423 0.258301 50.1218 0.258301 46.3958V7.35008Z" fill="#FEFEFE" fill-opacity="0.996078"/>
<path d="M52.3287 12.1542C52.1157 11.7443 51.8203 11.4348 51.4415 11.2259C51.0627 11.0169 50.6257 10.9124 50.1284 10.9124C49.5838 10.9124 49.0995 11.035 48.6736 11.2791C48.2476 11.5233 47.914 11.8709 47.6739 12.32C47.4327 12.7691 47.3132 13.2895 47.3132 13.8813C47.3132 14.4731 47.4338 14.9955 47.6739 15.4486C47.914 15.9017 48.2476 16.2514 48.6736 16.4955C49.0995 16.7397 49.5848 16.8622 50.1284 16.8622C50.8618 16.8622 51.4566 16.6573 51.9147 16.2474C52.3719 15.8374 52.6522 15.2818 52.7546 14.5796H49.6672V13.5035H54.1974V14.5564C54.111 15.1954 53.8839 15.7832 53.5172 16.3187C53.1505 16.8552 52.6733 17.2832 52.0855 17.6017C51.4978 17.9212 50.8457 18.0809 50.1274 18.0809C49.3547 18.0809 48.6484 17.9021 48.0105 17.5424C47.3715 17.1837 46.8651 16.6844 46.4903 16.0464C46.1156 15.4074 45.9287 14.6861 45.9287 13.8813C45.9287 13.0765 46.1156 12.3551 46.4903 11.7162C46.8651 11.0772 47.3735 10.5788 48.0165 10.2202C48.6595 9.86148 49.3628 9.68164 50.1284 9.68164C51.0035 9.68164 51.7821 9.89665 52.4643 10.3267C53.1465 10.7567 53.6408 11.3655 53.9492 12.1542H52.3287Z" fill="#FEFEFE" fill-opacity="0.996078"/>
<path d="M56.8717 10.8775V13.2908H59.711V14.3909H56.8717V16.9107H60.0657V18.0108H55.5234V9.77832H60.0657V10.8785H56.8717V10.8775Z" fill="#FEFEFE" fill-opacity="0.996078"/>
<path d="M67.0318 9.78809V10.8882H64.8435V18.0096H63.4952V10.8882H61.2949V9.78809H67.0318Z" fill="#FEFEFE" fill-opacity="0.996078"/>
<path d="M72.8171 9.78809V18.0096H71.4688V9.78809H72.8171Z" fill="#FEFEFE" fill-opacity="0.996078"/>
<path d="M79.9014 9.78809V10.8882H77.7132V18.0096H76.3648V10.8882H74.1646V9.78809H79.9014Z" fill="#FEFEFE" fill-opacity="0.996078"/>
<path d="M85.9755 17.5544C85.3325 17.1958 84.8241 16.6954 84.4493 16.0524C84.0746 15.4094 83.8877 14.686 83.8877 13.8823C83.8877 13.0785 84.0746 12.3561 84.4493 11.7171C84.8241 11.0781 85.3325 10.5798 85.9755 10.2211C86.6185 9.86246 87.3218 9.68262 88.0873 9.68262C88.8529 9.68262 89.5683 9.86246 90.2103 10.2211C90.8533 10.5798 91.3597 11.0792 91.7304 11.7171C92.1011 12.3561 92.286 13.0775 92.286 13.8823C92.286 14.687 92.1011 15.4104 91.7304 16.0524C91.3597 16.6954 90.8533 17.1958 90.2103 17.5544C89.5673 17.9131 88.86 18.093 88.0873 18.093C87.3147 18.093 86.6185 17.9141 85.9755 17.5544ZM89.5411 16.5487C89.9671 16.3006 90.2997 15.9459 90.5408 15.4838C90.7809 15.0226 90.9015 14.4881 90.9015 13.8813C90.9015 13.2744 90.7809 12.7419 90.5408 12.2848C90.2997 11.8277 89.9671 11.476 89.5411 11.2319C89.1152 10.9877 88.6299 10.8651 88.0863 10.8651C87.5428 10.8651 87.0575 10.9877 86.6315 11.2319C86.2055 11.476 85.872 11.8277 85.6319 12.2848C85.3917 12.7419 85.2712 13.2744 85.2712 13.8813C85.2712 14.4881 85.3917 15.0226 85.6319 15.4838C85.872 15.9449 86.2055 16.2996 86.6315 16.5487C87.0575 16.7969 87.5428 16.9215 88.0863 16.9215C88.6299 16.9215 89.1152 16.7969 89.5411 16.5487Z" fill="#FEFEFE" fill-opacity="0.996078"/>
<path d="M100.365 18.0099H99.0171L94.9601 11.8701V18.0099H93.6118V9.77734H94.9601L99.0171 15.905V9.77734H100.365V18.0099Z" fill="#FEFEFE" fill-opacity="0.996078"/>
<path d="M53.9161 37.2435H49.0463L48.2406 39.5734H45.6655L50.0621 27.3291H52.9175L57.314 39.5734H54.7219L53.9161 37.2435ZM53.25 35.2823L51.4807 30.1674L49.7115 35.2823H53.25Z" fill="#FEFEFE" fill-opacity="0.996078"/>
<path d="M62.7185 30.159C63.2731 29.8616 63.9071 29.7119 64.6194 29.7119C65.4483 29.7119 66.1988 29.9159 66.8699 30.3248C67.5411 30.7337 68.0725 31.3144 68.4644 32.0679C68.8552 32.8215 69.0511 33.6946 69.0511 34.6872C69.0511 35.6798 68.8552 36.559 68.4644 37.3235C68.0725 38.0881 67.5421 38.6809 66.8699 39.1019C66.1988 39.5218 65.4483 39.7328 64.6194 39.7328C63.9071 39.7328 63.2791 39.5871 62.7366 39.2948C62.193 39.0034 61.753 38.6357 61.4144 38.1916V44.1997H58.9619V29.8707H61.4144V31.2722C61.7299 30.8281 62.1649 30.4574 62.7195 30.16L62.7185 30.159ZM66.1867 33.1721C65.9476 32.7461 65.6321 32.4216 65.2413 32.1996C64.8495 31.9775 64.4265 31.867 63.9714 31.867C63.5162 31.867 63.1103 31.9805 62.7185 32.2086C62.3267 32.4367 62.0122 32.7662 61.7731 33.1982C61.534 33.6302 61.4144 34.1386 61.4144 34.7224C61.4144 35.3061 61.534 35.8145 61.7731 36.2465C62.0122 36.6785 62.3277 37.0081 62.7185 37.2361C63.1093 37.4642 63.5273 37.5777 63.9714 37.5777C64.4154 37.5777 64.8495 37.4612 65.2413 37.2271C65.6321 36.994 65.9476 36.6604 66.1867 36.2284C66.4258 35.7964 66.5454 35.282 66.5454 34.6872C66.5454 34.0924 66.4258 33.5981 66.1867 33.1721Z" fill="#FEFEFE" fill-opacity="0.996078"/>
<path d="M74.5945 30.159C75.1491 29.8616 75.783 29.7119 76.4954 29.7119C77.3242 29.7119 78.0748 29.9159 78.7459 30.3248C79.417 30.7337 79.9485 31.3144 80.3404 32.0679C80.7312 32.8215 80.9271 33.6946 80.9271 34.6872C80.9271 35.6798 80.7312 36.559 80.3404 37.3235C79.9485 38.0881 79.418 38.6809 78.7459 39.1019C78.0737 39.5218 77.3242 39.7328 76.4954 39.7328C75.783 39.7328 75.1551 39.5871 74.6126 39.2948C74.069 39.0034 73.629 38.6357 73.2904 38.1916V44.1997H70.8379V29.8707H73.2904V31.2722C73.6058 30.8281 74.0409 30.4574 74.5955 30.16L74.5945 30.159ZM78.0637 33.1721C77.8246 32.7461 77.5091 32.4216 77.1173 32.1996C76.7254 31.9775 76.3025 31.867 75.8473 31.867C75.3922 31.867 74.9863 31.9805 74.5945 32.2086C74.2026 32.4367 73.8882 32.7662 73.649 33.1982C73.4099 33.6302 73.2904 34.1386 73.2904 34.7224C73.2904 35.3061 73.4099 35.8145 73.649 36.2465C73.8882 36.6785 74.2036 37.0081 74.5945 37.2361C74.9853 37.4642 75.4032 37.5777 75.8473 37.5777C76.2914 37.5777 76.7254 37.4612 77.1173 37.2271C77.5081 36.994 77.8236 36.6604 78.0637 36.2284C78.3028 35.7964 78.4224 35.282 78.4224 34.6872C78.4224 34.0924 78.3028 33.5981 78.0637 33.1721Z" fill="#FEFEFE" fill-opacity="0.996078"/>
<path d="M88.8018 39.2584C88.1186 38.967 87.5781 38.5461 87.1812 37.9975C86.7844 37.4489 86.5794 36.8009 86.5684 36.0534H89.1957C89.2308 36.5557 89.4087 36.9526 89.7302 37.245C90.0517 37.5373 90.4917 37.683 91.0523 37.683C91.613 37.683 92.0741 37.5464 92.4006 37.2711C92.7272 36.9968 92.8909 36.6381 92.8909 36.1941C92.8909 35.8324 92.7794 35.534 92.5584 35.3009C92.3363 35.0678 92.0591 34.8839 91.7265 34.7493C91.3939 34.6157 90.9348 34.466 90.3511 34.3022C89.5563 34.0691 88.9113 33.838 88.415 33.61C87.9187 33.3819 87.4927 33.0383 87.136 32.5761C86.7793 32.115 86.6015 31.4991 86.6015 30.7285C86.6015 30.0041 86.7824 29.3742 87.1441 28.8366C87.5057 28.2991 88.0141 27.8882 88.6682 27.6019C89.3222 27.3155 90.0697 27.1729 90.9107 27.1729C92.1716 27.1729 93.1964 27.4793 93.9851 28.0921C94.7738 28.705 95.2078 29.561 95.2902 30.6582H92.5925C92.5694 30.2382 92.3916 29.8906 92.058 29.6163C91.7255 29.342 91.2844 29.2044 90.7359 29.2044C90.2566 29.2044 89.8748 29.3269 89.5885 29.5721C89.3022 29.8172 89.1595 30.1739 89.1595 30.6411C89.1595 30.9686 89.267 31.2399 89.484 31.4559C89.7 31.6719 89.9683 31.8477 90.2898 31.9813C90.6113 32.116 91.0634 32.2707 91.6471 32.4455C92.4408 32.6796 93.0889 32.9127 93.5912 33.1458C94.0936 33.3799 94.5256 33.7295 94.8873 34.1967C95.249 34.6639 95.4298 35.2768 95.4298 36.0363C95.4298 36.6904 95.26 37.2972 94.9214 37.8578C94.5829 38.4185 94.0865 38.8646 93.4325 39.1981C92.7784 39.5307 92.0018 39.6974 91.1026 39.6974C90.2496 39.6974 89.482 39.5518 88.7988 39.2594L88.8018 39.2584Z" fill="#FEFEFE" fill-opacity="0.996078"/>
<path d="M100.405 31.8844V36.5794C100.405 36.9059 100.483 37.143 100.641 37.2887C100.799 37.4344 101.064 37.5077 101.438 37.5077H102.576V39.5744H101.035C98.9681 39.5744 97.9342 38.5697 97.9342 36.5613V31.8844H96.7778V29.87H97.9342V27.4697H100.404V29.87H102.576V31.8844H100.404H100.405Z" fill="#FEFEFE" fill-opacity="0.996078"/>
<path d="M106.133 39.1099C105.385 38.6959 104.798 38.1082 104.372 37.3496C103.946 36.5911 103.733 35.715 103.733 34.7223C103.733 33.7297 103.952 32.8536 104.39 32.095C104.829 31.3365 105.426 30.7497 106.186 30.3348C106.944 29.9209 107.791 29.7129 108.726 29.7129C109.66 29.7129 110.506 29.9199 111.266 30.3348C112.024 30.7497 112.623 31.3365 113.061 32.095C113.499 32.8546 113.718 33.7297 113.718 34.7223C113.718 35.715 113.493 36.5911 113.044 37.3496C112.594 38.1092 111.987 38.6959 111.222 39.1099C110.458 39.5248 109.602 39.7318 108.656 39.7318C107.711 39.7318 106.881 39.5248 106.134 39.1099H106.133ZM109.908 37.2703C110.299 37.0542 110.612 36.7297 110.846 36.2977C111.079 35.8657 111.196 35.3402 111.196 34.7213C111.196 33.799 110.954 33.0897 110.469 32.5934C109.985 32.097 109.392 31.8489 108.691 31.8489C107.989 31.8489 107.403 32.097 106.93 32.5934C106.457 33.0897 106.221 33.799 106.221 34.7213C106.221 35.6436 106.451 36.353 106.913 36.8493C107.374 37.3456 107.955 37.5938 108.656 37.5938C109.101 37.5938 109.517 37.4863 109.909 37.2692L109.908 37.2703Z" fill="#FEFEFE" fill-opacity="0.996078"/>
<path d="M119.209 30.1675C119.717 29.8762 120.298 29.7295 120.952 29.7295V32.3045H120.304C119.533 32.3045 118.953 32.4854 118.561 32.8471C118.169 33.2088 117.974 33.8397 117.974 34.7389V39.5736H115.521V29.8691H117.974V31.3752C118.289 30.8618 118.701 30.4589 119.209 30.1665V30.1675Z" fill="#FEFEFE" fill-opacity="0.996078"/>
<path d="M131.55 35.4577H124.455C124.514 36.158 124.759 36.7076 125.191 37.1044C125.623 37.5013 126.154 37.7002 126.785 37.7002C127.697 37.7002 128.345 37.3094 128.729 36.5267H131.375C131.094 37.4611 130.557 38.2287 129.763 38.8305C128.969 39.4323 127.994 39.7327 126.838 39.7327C125.903 39.7327 125.065 39.5258 124.324 39.1108C123.582 38.6969 123.004 38.1091 122.59 37.3506C122.175 36.592 121.968 35.7159 121.968 34.7233C121.968 33.7307 122.172 32.8375 122.581 32.0779C122.99 31.3194 123.561 30.7356 124.298 30.3267C125.033 29.9178 125.88 29.7139 126.838 29.7139C127.795 29.7139 128.586 29.9128 129.316 30.3097C130.046 30.7065 130.612 31.2701 131.015 31.9996C131.418 32.73 131.62 33.5669 131.62 34.5133C131.62 34.864 131.597 35.1784 131.55 35.4587V35.4577ZM129.08 33.811C129.068 33.1801 128.841 32.6757 128.397 32.2959C127.953 31.9162 127.41 31.7263 126.768 31.7263C126.16 31.7263 125.65 31.9101 125.235 32.2779C124.82 32.6456 124.567 33.157 124.473 33.811H129.08Z" fill="#FEFEFE" fill-opacity="0.996078"/>
<path d="M23.5825 19.2249C23.5825 19.2249 23.2781 17.0407 25.0755 14.967C27.0477 12.6913 29.1676 12.8933 29.1676 12.8933C29.1676 12.8933 29.2781 15.2161 27.979 16.9301C25.6311 20.0276 23.5825 19.2249 23.5825 19.2249Z" fill="#F2F3F7"/>
<path d="M23.5554 20.9104C25.2021 20.844 26.7905 19.4174 29.8036 19.6937C32.2883 19.9217 34.3288 22.2185 34.145 22.4033C33.951 22.5973 31.1037 24.5042 31.1861 27.8498C31.2946 32.2142 34.9186 33.435 34.9186 33.435C34.9186 33.435 33.3975 38.8262 29.6097 40.7341C28.4925 41.2967 25.3307 39.6098 24.0799 39.6008C22.7496 39.5908 20.0088 41.2003 18.7439 40.7894C15.4736 39.7274 12.5489 33.7374 12.1912 28.8726C11.7763 23.2322 15.1963 20.4452 17.5001 19.97C20.9834 19.2506 21.5671 20.9897 23.5554 20.9104Z" fill="#F2F3F7"/>
</svg>
