<svg width="160" height="53" viewBox="0 0 160 53" fill="none" xmlns="http://www.w3.org/2000/svg">
<path fill-rule="evenodd" clip-rule="evenodd" d="M7.00487 1.45636C3.83372 1.45636 1.263 4.02708 1.263 7.19822V46.2439C1.263 49.4151 3.83372 51.9858 7.00487 51.9858H153.253C156.424 51.9858 158.995 49.4151 158.995 46.2439V7.19822C158.995 4.02708 156.424 1.45636 153.253 1.45636H7.00487ZM0.258301 7.19822C0.258301 3.4722 3.27884 0.45166 7.00487 0.45166H153.253C156.979 0.45166 160 3.4722 160 7.19822V46.2439C160 49.9699 156.979 52.9905 153.253 52.9905H7.00487C3.27884 52.9905 0.258301 49.9699 0.258301 46.2439V7.19822Z" fill="#9198B0"/>
<path d="M53.9162 37.0916H49.0464L48.2406 39.4215H45.6656L50.0622 27.1772H52.9175L57.3141 39.4215H54.722L53.9162 37.0916ZM53.2501 35.1305L51.4808 30.0155L49.7115 35.1305H53.2501Z" fill="#9198B0"/>
<path d="M62.7182 30.0067C63.2728 29.7093 63.9068 29.5596 64.6191 29.5596C65.448 29.5596 66.1985 29.7635 66.8697 30.1724C67.5408 30.5814 68.0723 31.1621 68.4641 31.9156C68.855 32.6691 69.0509 33.5422 69.0509 34.5349C69.0509 35.5275 68.855 36.4066 68.4641 37.1712C68.0723 37.9358 67.5418 38.5285 66.8697 38.9495C66.1985 39.3695 65.448 39.5805 64.6191 39.5805C63.9068 39.5805 63.2789 39.4348 62.7363 39.1424C62.1928 38.851 61.7527 38.4833 61.4141 38.0392V44.0474H58.9617V29.7183H61.4141V31.1199C61.7296 30.6758 62.1647 30.3051 62.7193 30.0077L62.7182 30.0067ZM66.1865 33.0198C65.9474 32.5938 65.6319 32.2692 65.241 32.0472C64.8492 31.8252 64.4262 31.7147 63.9711 31.7147C63.516 31.7147 63.1101 31.8282 62.7182 32.0563C62.3264 32.2843 62.0119 32.6139 61.7728 33.0459C61.5337 33.4779 61.4141 33.9863 61.4141 34.57C61.4141 35.1537 61.5337 35.6621 61.7728 36.0941C62.0119 36.5262 62.3274 36.8557 62.7182 37.0838C63.1091 37.3118 63.527 37.4254 63.9711 37.4254C64.4152 37.4254 64.8492 37.3088 65.241 37.0747C65.6319 36.8416 65.9474 36.5081 66.1865 36.0761C66.4256 35.644 66.5452 35.1296 66.5452 34.5349C66.5452 33.9401 66.4256 33.4458 66.1865 33.0198Z" fill="#9198B0"/>
<path d="M74.5942 30.0067C75.1488 29.7093 75.7828 29.5596 76.4951 29.5596C77.324 29.5596 78.0745 29.7635 78.7456 30.1724C79.4168 30.5814 79.9483 31.1621 80.3401 31.9156C80.7309 32.6691 80.9269 33.5422 80.9269 34.5349C80.9269 35.5275 80.7309 36.4066 80.3401 37.1712C79.9483 37.9358 79.4178 38.5285 78.7456 38.9495C78.0735 39.3695 77.324 39.5805 76.4951 39.5805C75.7828 39.5805 75.1548 39.4348 74.6123 39.1424C74.0688 38.851 73.6287 38.4833 73.2901 38.0392V44.0474H70.8376V29.7183H73.2901V31.1199C73.6056 30.6758 74.0406 30.3051 74.5952 30.0077L74.5942 30.0067ZM78.0635 33.0198C77.8243 32.5938 77.5089 32.2692 77.117 32.0472C76.7252 31.8252 76.3022 31.7147 75.8471 31.7147C75.392 31.7147 74.9861 31.8282 74.5942 32.0563C74.2024 32.2843 73.8879 32.6139 73.6488 33.0459C73.4097 33.4779 73.2901 33.9863 73.2901 34.57C73.2901 35.1537 73.4097 35.6621 73.6488 36.0941C73.8879 36.5262 74.2034 36.8557 74.5942 37.0838C74.9851 37.3118 75.403 37.4254 75.8471 37.4254C76.2912 37.4254 76.7252 37.3088 77.117 37.0747C77.5079 36.8416 77.8233 36.5081 78.0635 36.0761C78.3026 35.644 78.4221 35.1296 78.4221 34.5349C78.4221 33.9401 78.3026 33.4458 78.0635 33.0198Z" fill="#9198B0"/>
<path d="M88.8016 39.1065C88.1184 38.8152 87.5778 38.3942 87.181 37.8456C86.7841 37.2971 86.5792 36.649 86.5681 35.9015H89.1954C89.2306 36.4039 89.4084 36.8008 89.7299 37.0931C90.0514 37.3855 90.4915 37.5312 91.0521 37.5312C91.6127 37.5312 92.0739 37.3945 92.4004 37.1192C92.7269 36.845 92.8907 36.4863 92.8907 36.0422C92.8907 35.6805 92.7792 35.3821 92.5581 35.149C92.3361 34.9159 92.0588 34.7321 91.7263 34.5974C91.3937 34.4638 90.9345 34.3141 90.3508 34.1503C89.5561 33.9173 88.9111 33.6862 88.4148 33.4581C87.9184 33.23 87.4924 32.8864 87.1358 32.4243C86.7791 31.9631 86.6013 31.3472 86.6013 30.5766C86.6013 29.8522 86.7821 29.2223 87.1438 28.6848C87.5055 28.1473 88.0139 27.7363 88.6679 27.45C89.322 27.1637 90.0695 27.021 90.9104 27.021C92.1713 27.021 93.1961 27.3274 93.9848 27.9403C94.7735 28.5532 95.2075 29.4092 95.2899 30.5063H92.5923C92.5692 30.0863 92.3914 29.7387 92.0578 29.4644C91.7252 29.1901 91.2842 29.0525 90.7356 29.0525C90.2564 29.0525 89.8746 29.1751 89.5882 29.4202C89.3019 29.6654 89.1592 30.022 89.1592 30.4892C89.1592 30.8168 89.2667 31.088 89.4838 31.304C89.6998 31.52 89.968 31.6959 90.2895 31.8295C90.611 31.9641 91.0631 32.1188 91.6469 32.2937C92.4406 32.5278 93.0886 32.7608 93.591 32.9939C94.0933 33.228 94.5253 33.5777 94.887 34.0449C95.2487 34.512 95.4296 35.1249 95.4296 35.8845C95.4296 36.5385 95.2598 37.1454 94.9212 37.706C94.5826 38.2666 94.0863 38.7127 93.4322 39.0463C92.7782 39.3788 92.0015 39.5456 91.1023 39.5456C90.2493 39.5456 89.4817 39.3999 88.7986 39.1075L88.8016 39.1065Z" fill="#9198B0"/>
<path d="M100.405 31.7325V36.4275C100.405 36.754 100.483 36.9911 100.641 37.1368C100.799 37.2825 101.064 37.3558 101.438 37.3558H102.576V39.4225H101.035C98.968 39.4225 97.9341 38.4178 97.9341 36.4094V31.7325H96.7777V29.7181H97.9341V27.3179H100.404V29.7181H102.576V31.7325H100.404H100.405Z" fill="#9198B0"/>
<path d="M106.132 38.9575C105.385 38.5436 104.798 37.9558 104.372 37.1973C103.946 36.4387 103.733 35.5626 103.733 34.57C103.733 33.5773 103.952 32.7012 104.39 31.9427C104.828 31.1841 105.426 30.5974 106.186 30.1825C106.944 29.7685 107.791 29.5605 108.726 29.5605C109.66 29.5605 110.506 29.7675 111.265 30.1825C112.024 30.5974 112.623 31.1841 113.061 31.9427C113.499 32.7022 113.718 33.5773 113.718 34.57C113.718 35.5626 113.493 36.4387 113.044 37.1973C112.594 37.9568 111.987 38.5436 111.222 38.9575C110.458 39.3725 109.602 39.5794 108.656 39.5794C107.711 39.5794 106.881 39.3725 106.133 38.9575H106.132ZM109.908 37.1179C110.299 36.9019 110.611 36.5774 110.845 36.1454C111.079 35.7133 111.196 35.1879 111.196 34.569C111.196 33.6467 110.954 32.9373 110.469 32.441C109.984 31.9447 109.392 31.6965 108.69 31.6965C107.989 31.6965 107.402 31.9447 106.93 32.441C106.457 32.9373 106.221 33.6467 106.221 34.569C106.221 35.4913 106.451 36.2006 106.913 36.6969C107.374 37.1933 107.955 37.4414 108.656 37.4414C109.1 37.4414 109.517 37.3339 109.909 37.1169L109.908 37.1179Z" fill="#9198B0"/>
<path d="M119.209 30.0157C119.717 29.7243 120.298 29.5776 120.952 29.5776V32.1527H120.304C119.533 32.1527 118.952 32.3335 118.561 32.6952C118.169 33.0569 117.974 33.6879 117.974 34.5871V39.4217H115.521V29.7173H117.974V31.2233C118.289 30.7099 118.701 30.3071 119.209 30.0147V30.0157Z" fill="#9198B0"/>
<path d="M131.55 35.3059H124.455C124.514 36.0062 124.759 36.5557 125.191 36.9526C125.623 37.3494 126.154 37.5484 126.785 37.5484C127.697 37.5484 128.345 37.1575 128.729 36.3749H131.375C131.095 37.3093 130.557 38.0768 129.763 38.6787C128.969 39.2805 127.994 39.5809 126.838 39.5809C125.903 39.5809 125.065 39.3739 124.324 38.959C123.582 38.545 123.004 37.9573 122.59 37.1987C122.175 36.4402 121.968 35.5641 121.968 34.5714C121.968 33.5788 122.172 32.6856 122.581 31.9261C122.99 31.1675 123.561 30.5838 124.298 30.1749C125.033 29.766 125.88 29.562 126.838 29.562C127.795 29.562 128.586 29.7609 129.316 30.1578C130.046 30.5547 130.612 31.1183 131.015 31.8477C131.418 32.5781 131.62 33.415 131.62 34.3615C131.62 34.7121 131.597 35.0266 131.55 35.3069V35.3059ZM129.08 33.6592C129.068 33.0282 128.841 32.5239 128.397 32.1441C127.953 31.7643 127.41 31.5744 126.768 31.5744C126.16 31.5744 125.65 31.7583 125.235 32.126C124.82 32.4937 124.567 33.0051 124.474 33.6592H129.08Z" fill="#9198B0"/>
<path d="M23.5824 19.0725C23.5824 19.0725 23.2779 16.8883 25.0753 14.8146C27.0476 12.539 29.1675 12.7409 29.1675 12.7409C29.1675 12.7409 29.278 15.0638 27.9789 16.7778C25.6309 19.8753 23.5824 19.0725 23.5824 19.0725Z" fill="#F2F3F7"/>
<path d="M23.5556 20.7585C25.2023 20.6922 26.7907 19.2655 29.8038 19.5418C32.2885 19.7699 34.329 22.0666 34.1451 22.2515C33.9512 22.4454 31.1039 24.3523 31.1863 27.698C31.2948 32.0624 34.9188 33.2831 34.9188 33.2831C34.9188 33.2831 33.3976 38.6743 29.6099 40.5823C28.4927 41.1449 25.3309 39.458 24.08 39.4489C22.7498 39.4389 20.009 41.0484 18.7441 40.6375C15.4738 39.5755 12.5491 33.5855 12.1914 28.7208C11.7765 23.0804 15.1965 20.2933 17.5003 19.8181C20.9836 19.0987 21.5673 20.8379 23.5556 20.7585Z" fill="#F2F3F7"/>
<path d="M45.7683 9.69166H54.7483V10.9017H45.7683V9.69166ZM49.3983 10.7817H50.6883V18.3317H49.3983V10.7817ZM50.0783 13.2017L50.8983 12.2517C51.9883 12.7917 53.5583 13.6617 54.3283 14.2817L53.4383 15.3817C52.7283 14.7517 51.2083 13.8117 50.0783 13.2017ZM62.6183 9.60166L63.4883 9.06166C63.9083 9.46166 64.4283 10.0317 64.6683 10.4217L63.7383 11.0317C63.5283 10.6417 63.0283 10.0417 62.6183 9.60166ZM55.7083 11.1317H64.8183V12.0617H55.7083V11.1317ZM56.2083 9.64166H60.6783V10.5517H56.2083V9.64166ZM57.8983 8.96166H59.0383V11.6517H57.8983V8.96166ZM61.1783 8.97166H62.3583C62.2483 13.2417 62.8183 17.1117 63.7383 17.1117C63.9283 17.1117 64.0183 16.7017 64.0783 15.6517C64.3083 15.9217 64.6983 16.1717 64.9783 16.2917C64.8083 17.8417 64.4583 18.2617 63.6283 18.2617C61.5883 18.2617 61.1783 13.7317 61.1783 8.97166ZM63.4483 12.5017L64.5183 12.8017C63.8383 15.1717 62.7183 17.1217 61.0483 18.4217C60.8683 18.1617 60.5183 17.8117 60.2383 17.5917C61.7883 16.5217 62.8783 14.6717 63.4483 12.5017ZM55.8483 12.8217H60.9583V13.7617H55.8483V12.8217ZM58.3283 13.9717H59.4383V18.3117H58.3283V13.9717ZM56.3083 15.7117C56.2483 15.4817 56.0783 14.9517 55.9383 14.6617C56.1183 14.6117 56.2883 14.4317 56.4583 14.1717C56.6483 13.9017 57.1983 12.9217 57.5083 11.9617L58.6683 12.2717C58.2083 13.3317 57.5383 14.4317 56.9483 15.1317V15.1617C56.9483 15.1617 56.3083 15.5017 56.3083 15.7117ZM56.3083 15.7117V14.8717L56.8283 14.5617H60.8283L60.8183 15.5517H57.1383C56.7483 15.5517 56.3983 15.6117 56.3083 15.7117ZM55.7983 16.3617C57.0883 16.2917 59.0983 16.1417 60.9983 16.0017L60.9883 16.9617C59.1783 17.1417 57.2583 17.3117 55.9083 17.4317L55.7983 16.3617ZM66.0583 9.83166L66.8283 9.10166C67.3683 9.55166 68.0983 10.1917 68.4383 10.6217L67.6183 11.4517C67.3083 11.0117 66.5983 10.3217 66.0583 9.83166ZM66.8883 18.2517L66.6283 17.1517L66.8683 16.7717L68.8283 15.2817C68.9083 15.6017 69.0883 16.0717 69.2183 16.3117C67.3983 17.7317 67.0683 18.0117 66.8883 18.2517ZM65.5983 12.0417H67.5683V13.1917H65.5983V12.0417ZM66.8883 18.2517C66.7983 17.9717 66.5083 17.4717 66.3083 17.2417C66.5283 17.0917 66.8183 16.7517 66.8183 16.2917V12.0417H67.9683V17.1017C67.9683 17.1017 66.8883 17.8317 66.8883 18.2517ZM70.2983 14.7617H73.3783V15.5317H70.2983V14.7617ZM69.0183 9.64166H74.6183V10.5017H69.0183V9.64166ZM69.2883 10.9017H74.3183V11.7117H69.2883V10.9017ZM68.7083 12.1317H74.9383V12.9917H68.7083V12.1317ZM70.2783 16.0917H73.3683V16.8917H70.2783V16.0917ZM69.3883 13.3817H73.3583V14.2517H70.4983V18.3617H69.3883V13.3817ZM73.1083 13.3817H74.2483V17.2017C74.2483 17.7217 74.1483 18.0117 73.7783 18.1717C73.4283 18.3417 72.9283 18.3517 72.2283 18.3517C72.1883 18.0517 72.0483 17.6117 71.9083 17.3317C72.3183 17.3517 72.7983 17.3517 72.9283 17.3417C73.0583 17.3417 73.1083 17.3017 73.1083 17.1817V13.3817ZM71.1983 8.96166H72.3883V12.4117H71.1983V8.96166ZM75.7083 10.4417H84.8083V11.5317H75.7083V10.4417ZM76.8883 13.8517H79.4883V14.7317H76.8883V13.8517ZM76.8883 15.3817H79.4883V16.2717H76.8883V15.3817ZM81.0783 12.3217H82.1883V16.4217H81.0783V12.3217ZM79.0683 12.2217H80.2283V17.1717C80.2283 17.6817 80.1283 17.9617 79.7883 18.1317C79.4583 18.3117 78.9983 18.3217 78.3783 18.3217C78.3183 18.0217 78.1483 17.5817 77.9983 17.3017C78.3683 17.3217 78.7783 17.3217 78.8983 17.3117C79.0283 17.3117 79.0683 17.2717 79.0683 17.1517V12.2217ZM83.0883 12.0517H84.2683V17.0417C84.2683 17.6217 84.1583 17.9317 83.7583 18.1117C83.3783 18.2917 82.8383 18.3317 82.0983 18.3217C82.0383 18.0017 81.8483 17.4917 81.6783 17.1817C82.1883 17.2117 82.7083 17.2117 82.8783 17.2017C83.0383 17.2017 83.0883 17.1617 83.0883 17.0217V12.0517ZM77.0883 9.35166L78.2283 8.95166C78.5883 9.34166 78.9883 9.87166 79.1583 10.2517L77.9483 10.6817C77.8083 10.3217 77.4383 9.75166 77.0883 9.35166ZM82.2183 8.93166L83.5283 9.32166C83.1183 9.96166 82.6783 10.6017 82.3283 11.0417L81.2483 10.6717C81.5883 10.2017 81.9983 9.47166 82.2183 8.93166ZM76.2583 12.2217H79.4083V13.2217H77.3883V18.2917H76.2583V12.2217ZM87.7983 11.1817L88.8483 11.6117C88.1583 12.8417 87.0483 14.1717 86.0483 15.0017C85.9583 14.7317 85.6583 14.0517 85.4783 13.7617C86.3183 13.1317 87.2383 12.1517 87.7983 11.1817ZM87.5283 8.97166L88.6683 9.42166C88.0483 10.3517 87.0983 11.3317 86.2083 11.9517C86.0783 11.6817 85.7883 11.1817 85.6083 10.9417C86.3383 10.4617 87.1483 9.64166 87.5283 8.97166ZM86.8083 13.4417L87.9783 12.2617L88.0383 12.3017V18.3517H86.8083V13.4417ZM89.1883 13.7317H94.3283V14.8817H89.1883V13.7317ZM88.5383 16.9217H94.8983V18.0617H88.5383V16.9217ZM88.8483 10.8217H94.6383V11.9617H88.8483V10.8217ZM91.1883 11.4817H92.4383V17.4017H91.1883V11.4817ZM90.7183 9.29166L91.8183 8.91166C92.1183 9.40166 92.4683 10.0417 92.5983 10.4817L91.4283 10.9017C91.3183 10.4817 91.0083 9.80166 90.7183 9.29166Z" fill="#9198B0"/>
</svg>
