<svg width="160" height="53" viewBox="0 0 160 53" fill="none" xmlns="http://www.w3.org/2000/svg">
<path fill-rule="evenodd" clip-rule="evenodd" d="M7.00487 1.45636C3.83372 1.45636 1.263 4.02708 1.263 7.19822V46.2439C1.263 49.4151 3.83372 51.9858 7.00487 51.9858H153.253C156.424 51.9858 158.995 49.4151 158.995 46.2439V7.19822C158.995 4.02708 156.424 1.45636 153.253 1.45636H7.00487ZM0.258301 7.19822C0.258301 3.4722 3.27884 0.45166 7.00487 0.45166H153.253C156.979 0.45166 160 3.4722 160 7.19822V46.2439C160 49.9699 156.979 52.9905 153.253 52.9905H7.00487C3.27884 52.9905 0.258301 49.9699 0.258301 46.2439V7.19822Z" fill="#9198B0"/>
<path d="M51.1075 10.4306C51.7656 10.7662 52.2749 11.2464 52.6336 11.8734C52.9923 12.5003 53.1721 13.2317 53.1721 14.0676C53.1721 14.9035 52.9923 15.6289 52.6336 16.2438C52.2749 16.8587 51.7656 17.3299 51.1075 17.6574C50.4494 17.9849 49.6818 18.1487 48.8067 18.1487H46.1212V9.92725H48.8067C49.6818 9.92725 50.4494 10.095 51.1075 10.4296V10.4306ZM51.0181 16.2679C51.5305 15.7475 51.7867 15.014 51.7867 14.0676C51.7867 13.1212 51.5305 12.3687 51.0181 11.8322C50.5057 11.2957 49.7682 11.0274 48.8057 11.0274H47.4695V17.0486H48.8057C49.7682 17.0486 50.5047 16.7883 51.0181 16.2679Z" fill="#9198B0"/>
<path d="M55.6658 17.8349C55.1695 17.5546 54.7787 17.1608 54.4944 16.6524C54.21 16.144 54.0684 15.5542 54.0684 14.8841C54.0684 14.214 54.214 13.6343 54.5064 13.1219C54.7978 12.6095 55.1966 12.2146 55.701 11.9393C56.2054 11.663 56.77 11.5254 57.3929 11.5254C58.0158 11.5254 58.5795 11.663 59.0848 11.9393C59.5892 12.2156 59.9881 12.6095 60.2794 13.1219C60.5708 13.6343 60.7175 14.222 60.7175 14.8841C60.7175 15.5462 60.5678 16.134 60.2684 16.6464C59.969 17.1588 59.5601 17.5556 59.0436 17.8349C58.5272 18.1152 57.9576 18.2549 57.3346 18.2549C56.7117 18.2549 56.1632 18.1152 55.6668 17.8349H55.6658ZM58.3102 16.8352C58.6136 16.6695 58.8598 16.4213 59.0497 16.0897C59.2385 15.7582 59.334 15.3563 59.334 14.8831C59.334 14.4099 59.2436 14.01 59.0617 13.6825C58.8799 13.355 58.6397 13.1088 58.3403 12.943C58.0409 12.7773 57.7174 12.6949 57.3708 12.6949C57.0242 12.6949 56.7027 12.7773 56.4063 12.943C56.1109 13.1088 55.8758 13.355 55.702 13.6825C55.5282 14.01 55.4418 14.4099 55.4418 14.8831C55.4418 15.5854 55.6206 16.1269 55.9803 16.5097C56.339 16.8925 56.7901 17.0834 57.3346 17.0834C57.6813 17.0834 58.0068 17.001 58.3102 16.8352Z" fill="#9198B0"/>
<path d="M70.8081 11.6313L68.7857 18.1488H67.366L66.0529 13.3343L64.7397 18.1488H63.3201L61.2856 11.6313H62.658L64.0184 16.8719L65.4018 11.6313H66.8094L68.1346 16.8478L69.4829 11.6313H70.8081Z" fill="#9198B0"/>
<path d="M76.4799 11.8444C76.8858 12.0574 77.2033 12.3729 77.4323 12.7908C77.6614 13.2088 77.7749 13.7131 77.7749 14.3049V18.1489H76.4387V14.5058C76.4387 13.9221 76.293 13.475 76.0006 13.1636C75.7093 12.8521 75.3104 12.6964 74.8061 12.6964C74.3017 12.6964 73.9008 12.8521 73.6054 13.1636C73.3101 13.475 73.1614 13.9231 73.1614 14.5058V18.1489H71.813V11.6314H73.1614V12.3769C73.3824 12.1086 73.6637 11.8997 74.0073 11.75C74.3499 11.6003 74.7146 11.5249 75.1014 11.5249C75.6138 11.5249 76.073 11.6314 76.4799 11.8444Z" fill="#9198B0"/>
<path d="M80.8378 9.39551V18.1485H79.4894V9.39551H80.8378Z" fill="#9198B0"/>
<path d="M83.7722 17.8349C83.2759 17.5546 82.8851 17.1608 82.6007 16.6524C82.3164 16.144 82.1747 15.5542 82.1747 14.8841C82.1747 14.214 82.3204 13.6343 82.6128 13.1219C82.9042 12.6095 83.303 12.2146 83.8074 11.9393C84.3117 11.663 84.8754 11.5254 85.4993 11.5254C86.1232 11.5254 86.6858 11.663 87.1912 11.9393C87.6956 12.2156 88.0944 12.6095 88.3858 13.1219C88.6772 13.6343 88.8239 14.222 88.8239 14.8841C88.8239 15.5462 88.6741 16.134 88.3747 16.6464C88.0753 17.1588 87.6664 17.5556 87.15 17.8349C86.6336 18.1152 86.0639 18.2549 85.441 18.2549C84.8181 18.2549 84.2695 18.1152 83.7732 17.8349H83.7722ZM86.4156 16.8352C86.719 16.6695 86.9652 16.4213 87.155 16.0897C87.3439 15.7582 87.4394 15.3563 87.4394 14.8831C87.4394 14.4099 87.349 14.01 87.1671 13.6825C86.9853 13.355 86.7451 13.1088 86.4457 12.943C86.1463 12.7773 85.8228 12.6949 85.4762 12.6949C85.1296 12.6949 84.8081 12.7773 84.5117 12.943C84.2153 13.1088 83.9812 13.355 83.8084 13.6825C83.6346 14.01 83.5482 14.4099 83.5482 14.8831C83.5482 15.5854 83.727 16.1269 84.0867 16.5097C84.4454 16.8925 84.8975 17.0834 85.441 17.0834C85.7876 17.0834 86.1132 17.001 86.4166 16.8352H86.4156Z" fill="#9198B0"/>
<path d="M90.1179 13.1209C90.3902 12.6165 90.7609 12.2237 91.2301 11.9434C91.6993 11.6631 92.2177 11.5234 92.7854 11.5234C93.2978 11.5234 93.7459 11.6239 94.1277 11.8248C94.5104 12.0258 94.8159 12.276 95.0439 12.5764V11.6299H96.4043V18.1474H95.0439V17.1779C94.8149 17.4853 94.5034 17.7415 94.1096 17.9465C93.7147 18.1514 93.2656 18.2539 92.7613 18.2539C92.2016 18.2539 91.6882 18.1103 91.2231 17.8219C90.7579 17.5346 90.3892 17.1317 90.1169 16.6153C89.8446 16.0988 89.709 15.5131 89.709 14.859C89.709 14.205 89.8446 13.6253 90.1169 13.1199L90.1179 13.1209ZM94.7666 13.7127C94.5818 13.3811 94.3386 13.129 94.0392 12.9561C93.7398 12.7823 93.4163 12.6959 93.0697 12.6959C92.7231 12.6959 92.3996 12.7803 92.1002 12.9501C91.8008 13.1199 91.5576 13.3681 91.3728 13.6956C91.1869 14.0231 91.0945 14.4109 91.0945 14.8611C91.0945 15.3112 91.1869 15.705 91.3728 16.0436C91.5576 16.3832 91.8028 16.6414 92.1062 16.8182C92.4096 16.996 92.7311 17.0845 93.0707 17.0845C93.4103 17.0845 93.7408 16.9981 94.0402 16.8242C94.3396 16.6504 94.5828 16.3962 94.7677 16.0617C94.9525 15.7261 95.046 15.3343 95.046 14.8852C95.046 14.4361 94.9535 14.0452 94.7677 13.7137L94.7666 13.7127Z" fill="#9198B0"/>
<path d="M98.1383 13.121C98.4106 12.6166 98.7813 12.2238 99.2505 11.9435C99.7197 11.6631 100.242 11.5235 100.818 11.5235C101.244 11.5235 101.664 11.6159 102.078 11.8018C102.492 11.9877 102.821 12.2338 103.065 12.5413V9.39453H104.426V18.1475H103.065V17.1659C102.844 17.4814 102.539 17.7416 102.149 17.9465C101.758 18.1515 101.311 18.254 100.807 18.254C100.239 18.254 99.7207 18.1103 99.2515 17.822C98.7823 17.5346 98.4116 17.1317 98.1393 16.6153C97.867 16.0989 97.7314 15.5132 97.7314 14.8591C97.7314 14.205 97.867 13.6253 98.1393 13.12L98.1383 13.121ZM102.787 13.7127C102.602 13.3812 102.359 13.129 102.06 12.9562C101.76 12.7824 101.437 12.696 101.09 12.696C100.743 12.696 100.42 12.7804 100.121 12.9502C99.8212 13.12 99.578 13.3681 99.3932 13.6957C99.2073 14.0232 99.1149 14.411 99.1149 14.8611C99.1149 15.3112 99.2073 15.7051 99.3932 16.0436C99.578 16.3832 99.8232 16.6414 100.127 16.8183C100.43 16.9961 100.752 17.0845 101.091 17.0845C101.431 17.0845 101.761 16.9981 102.061 16.8243C102.36 16.6505 102.603 16.3963 102.788 16.0617C102.973 15.7262 103.066 15.3343 103.066 14.8852C103.066 14.4361 102.974 14.0453 102.788 13.7137L102.787 13.7127Z" fill="#9198B0"/>
<path d="M110.433 17.8349C109.937 17.5546 109.546 17.1608 109.262 16.6524C108.977 16.144 108.836 15.5542 108.836 14.8841C108.836 14.214 108.981 13.6343 109.274 13.1219C109.565 12.6095 109.964 12.2146 110.468 11.9393C110.973 11.663 111.536 11.5254 112.16 11.5254C112.784 11.5254 113.347 11.663 113.852 11.9393C114.357 12.2156 114.755 12.6095 115.047 13.1219C115.338 13.6343 115.485 14.222 115.485 14.8841C115.485 15.5462 115.335 16.134 115.036 16.6464C114.736 17.1588 114.327 17.5556 113.811 17.8349C113.295 18.1152 112.725 18.2549 112.102 18.2549C111.479 18.2549 110.93 18.1152 110.434 17.8349H110.433ZM113.078 16.8352C113.381 16.6695 113.627 16.4213 113.817 16.0897C114.006 15.7582 114.101 15.3563 114.101 14.8831C114.101 14.4099 114.011 14.01 113.829 13.6825C113.647 13.355 113.407 13.1088 113.108 12.943C112.808 12.7773 112.485 12.6949 112.138 12.6949C111.792 12.6949 111.47 12.7773 111.174 12.943C110.877 13.1088 110.643 13.355 110.47 13.6825C110.297 14.01 110.21 14.4099 110.21 14.8831C110.21 15.5854 110.389 16.1269 110.749 16.5097C111.107 16.8925 111.559 17.0834 112.103 17.0834C112.45 17.0834 112.775 17.001 113.079 16.8352H113.078Z" fill="#9198B0"/>
<path d="M121.488 11.8444C121.894 12.0574 122.211 12.3729 122.44 12.7908C122.669 13.2088 122.783 13.7131 122.783 14.3049V18.1489H121.447V14.5058C121.447 13.9221 121.301 13.475 121.009 13.1636C120.717 12.8521 120.318 12.6964 119.814 12.6964C119.31 12.6964 118.909 12.8521 118.613 13.1636C118.318 13.475 118.169 13.9231 118.169 14.5058V18.1489H116.821V11.6314H118.169V12.3769C118.39 12.1086 118.672 11.8997 119.015 11.75C119.358 11.6003 119.723 11.5249 120.109 11.5249C120.622 11.5249 121.081 11.6314 121.488 11.8444Z" fill="#9198B0"/>
<path d="M129.149 12.731V16.3388C129.149 16.583 129.206 16.7588 129.32 16.8653C129.435 16.9718 129.63 17.0251 129.906 17.0251H130.734V18.1493H129.669C129.061 18.1493 128.596 18.0076 128.274 17.7233C127.95 17.439 127.788 16.9778 127.788 16.3398V12.732H127.02V11.6318H127.788V10.0112H129.149V11.6318H130.734V12.732H129.149V12.731Z" fill="#9198B0"/>
<path d="M136.677 11.844C137.068 12.057 137.376 12.3724 137.6 12.7904C137.825 13.2083 137.937 13.7127 137.937 14.3045V18.1485H136.601V14.5054C136.601 13.9217 136.455 13.4746 136.163 13.1631C135.872 12.8517 135.473 12.6959 134.968 12.6959C134.464 12.6959 134.063 12.8517 133.768 13.1631C133.472 13.4746 133.324 13.9227 133.324 14.5054V18.1485H131.975V9.39551H133.324V12.3885C133.553 12.1122 133.842 11.8992 134.193 11.7495C134.543 11.5998 134.928 11.5245 135.346 11.5245C135.843 11.5245 136.287 11.631 136.677 11.844Z" fill="#9198B0"/>
<path d="M145.577 15.3925H140.597C140.636 15.9129 140.829 16.3309 141.177 16.6464C141.523 16.9618 141.95 17.1196 142.455 17.1196C143.18 17.1196 143.693 16.8161 143.993 16.2083H145.448C145.251 16.8081 144.894 17.2984 144.378 17.6812C143.861 18.064 143.22 18.2549 142.456 18.2549C141.833 18.2549 141.274 18.1152 140.782 17.8349C140.289 17.5546 139.903 17.1608 139.623 16.6524C139.342 16.144 139.203 15.5542 139.203 14.8841C139.203 14.214 139.338 13.6242 139.611 13.1158C139.883 12.6075 140.265 12.2146 140.758 11.9393C141.25 11.663 141.817 11.5254 142.456 11.5254C143.095 11.5254 143.619 11.66 144.101 11.9273C144.582 12.1955 144.957 12.5723 145.224 13.0566C145.492 13.5418 145.626 14.0994 145.626 14.7304C145.626 14.9745 145.61 15.1956 145.578 15.3925H145.577ZM144.217 14.3044C144.209 13.8071 144.032 13.4092 143.685 13.1098C143.338 12.8104 142.908 12.6607 142.396 12.6607C141.93 12.6607 141.533 12.8084 141.201 13.1048C140.869 13.4002 140.673 13.801 140.609 14.3054H144.217V14.3044Z" fill="#9198B0"/>
<path d="M53.9162 37.0916H49.0464L48.2406 39.4215H45.6656L50.0622 27.1772H52.9175L57.3141 39.4215H54.722L53.9162 37.0916ZM53.2501 35.1305L51.4808 30.0155L49.7115 35.1305H53.2501Z" fill="#9198B0"/>
<path d="M62.7182 30.0067C63.2728 29.7093 63.9068 29.5596 64.6191 29.5596C65.448 29.5596 66.1985 29.7635 66.8697 30.1724C67.5408 30.5814 68.0723 31.1621 68.4641 31.9156C68.855 32.6691 69.0509 33.5422 69.0509 34.5349C69.0509 35.5275 68.855 36.4066 68.4641 37.1712C68.0723 37.9358 67.5418 38.5285 66.8697 38.9495C66.1985 39.3695 65.448 39.5805 64.6191 39.5805C63.9068 39.5805 63.2789 39.4348 62.7363 39.1424C62.1928 38.851 61.7527 38.4833 61.4141 38.0392V44.0474H58.9617V29.7183H61.4141V31.1199C61.7296 30.6758 62.1647 30.3051 62.7193 30.0077L62.7182 30.0067ZM66.1865 33.0198C65.9474 32.5938 65.6319 32.2692 65.241 32.0472C64.8492 31.8252 64.4262 31.7147 63.9711 31.7147C63.516 31.7147 63.1101 31.8282 62.7182 32.0563C62.3264 32.2843 62.0119 32.6139 61.7728 33.0459C61.5337 33.4779 61.4141 33.9863 61.4141 34.57C61.4141 35.1537 61.5337 35.6621 61.7728 36.0941C62.0119 36.5262 62.3274 36.8557 62.7182 37.0838C63.1091 37.3118 63.527 37.4254 63.9711 37.4254C64.4152 37.4254 64.8492 37.3088 65.241 37.0747C65.6319 36.8416 65.9474 36.5081 66.1865 36.0761C66.4256 35.644 66.5452 35.1296 66.5452 34.5349C66.5452 33.9401 66.4256 33.4458 66.1865 33.0198Z" fill="#9198B0"/>
<path d="M74.5942 30.0067C75.1488 29.7093 75.7828 29.5596 76.4951 29.5596C77.324 29.5596 78.0745 29.7635 78.7456 30.1724C79.4168 30.5814 79.9483 31.1621 80.3401 31.9156C80.7309 32.6691 80.9269 33.5422 80.9269 34.5349C80.9269 35.5275 80.7309 36.4066 80.3401 37.1712C79.9483 37.9358 79.4178 38.5285 78.7456 38.9495C78.0735 39.3695 77.324 39.5805 76.4951 39.5805C75.7828 39.5805 75.1548 39.4348 74.6123 39.1424C74.0688 38.851 73.6287 38.4833 73.2901 38.0392V44.0474H70.8376V29.7183H73.2901V31.1199C73.6056 30.6758 74.0406 30.3051 74.5952 30.0077L74.5942 30.0067ZM78.0635 33.0198C77.8243 32.5938 77.5089 32.2692 77.117 32.0472C76.7252 31.8252 76.3022 31.7147 75.8471 31.7147C75.392 31.7147 74.9861 31.8282 74.5942 32.0563C74.2024 32.2843 73.8879 32.6139 73.6488 33.0459C73.4097 33.4779 73.2901 33.9863 73.2901 34.57C73.2901 35.1537 73.4097 35.6621 73.6488 36.0941C73.8879 36.5262 74.2034 36.8557 74.5942 37.0838C74.9851 37.3118 75.403 37.4254 75.8471 37.4254C76.2912 37.4254 76.7252 37.3088 77.117 37.0747C77.5079 36.8416 77.8233 36.5081 78.0635 36.0761C78.3026 35.644 78.4221 35.1296 78.4221 34.5349C78.4221 33.9401 78.3026 33.4458 78.0635 33.0198Z" fill="#9198B0"/>
<path d="M88.8016 39.1065C88.1184 38.8152 87.5778 38.3942 87.181 37.8456C86.7841 37.2971 86.5792 36.649 86.5681 35.9015H89.1954C89.2306 36.4039 89.4084 36.8008 89.7299 37.0931C90.0514 37.3855 90.4915 37.5312 91.0521 37.5312C91.6127 37.5312 92.0739 37.3945 92.4004 37.1192C92.7269 36.845 92.8907 36.4863 92.8907 36.0422C92.8907 35.6805 92.7792 35.3821 92.5581 35.149C92.3361 34.9159 92.0588 34.7321 91.7263 34.5974C91.3937 34.4638 90.9345 34.3141 90.3508 34.1503C89.5561 33.9173 88.9111 33.6862 88.4148 33.4581C87.9184 33.23 87.4924 32.8864 87.1358 32.4243C86.7791 31.9631 86.6013 31.3472 86.6013 30.5766C86.6013 29.8522 86.7821 29.2223 87.1438 28.6848C87.5055 28.1473 88.0139 27.7363 88.6679 27.45C89.322 27.1637 90.0695 27.021 90.9104 27.021C92.1713 27.021 93.1961 27.3274 93.9848 27.9403C94.7735 28.5532 95.2075 29.4092 95.2899 30.5063H92.5923C92.5692 30.0863 92.3914 29.7387 92.0578 29.4644C91.7252 29.1901 91.2842 29.0525 90.7356 29.0525C90.2564 29.0525 89.8746 29.1751 89.5882 29.4202C89.3019 29.6654 89.1592 30.022 89.1592 30.4892C89.1592 30.8168 89.2667 31.088 89.4838 31.304C89.6998 31.52 89.968 31.6959 90.2895 31.8295C90.611 31.9641 91.0631 32.1188 91.6469 32.2937C92.4406 32.5278 93.0886 32.7608 93.591 32.9939C94.0933 33.228 94.5253 33.5777 94.887 34.0449C95.2487 34.512 95.4296 35.1249 95.4296 35.8845C95.4296 36.5385 95.2598 37.1454 94.9212 37.706C94.5826 38.2666 94.0863 38.7127 93.4322 39.0463C92.7782 39.3788 92.0015 39.5456 91.1023 39.5456C90.2493 39.5456 89.4817 39.3999 88.7986 39.1075L88.8016 39.1065Z" fill="#9198B0"/>
<path d="M100.405 31.7325V36.4275C100.405 36.754 100.483 36.9911 100.641 37.1368C100.799 37.2825 101.064 37.3558 101.438 37.3558H102.576V39.4225H101.035C98.968 39.4225 97.9341 38.4178 97.9341 36.4094V31.7325H96.7777V29.7181H97.9341V27.3179H100.404V29.7181H102.576V31.7325H100.404H100.405Z" fill="#9198B0"/>
<path d="M106.132 38.9575C105.385 38.5436 104.798 37.9558 104.372 37.1973C103.946 36.4387 103.733 35.5626 103.733 34.57C103.733 33.5773 103.952 32.7012 104.39 31.9427C104.828 31.1841 105.426 30.5974 106.186 30.1825C106.944 29.7685 107.791 29.5605 108.726 29.5605C109.66 29.5605 110.506 29.7675 111.265 30.1825C112.024 30.5974 112.623 31.1841 113.061 31.9427C113.499 32.7022 113.718 33.5773 113.718 34.57C113.718 35.5626 113.493 36.4387 113.044 37.1973C112.594 37.9568 111.987 38.5436 111.222 38.9575C110.458 39.3725 109.602 39.5794 108.656 39.5794C107.711 39.5794 106.881 39.3725 106.133 38.9575H106.132ZM109.908 37.1179C110.299 36.9019 110.611 36.5774 110.845 36.1454C111.079 35.7133 111.196 35.1879 111.196 34.569C111.196 33.6467 110.954 32.9373 110.469 32.441C109.984 31.9447 109.392 31.6965 108.69 31.6965C107.989 31.6965 107.402 31.9447 106.93 32.441C106.457 32.9373 106.221 33.6467 106.221 34.569C106.221 35.4913 106.451 36.2006 106.913 36.6969C107.374 37.1933 107.955 37.4414 108.656 37.4414C109.1 37.4414 109.517 37.3339 109.909 37.1169L109.908 37.1179Z" fill="#9198B0"/>
<path d="M119.209 30.0157C119.717 29.7243 120.298 29.5776 120.952 29.5776V32.1527H120.304C119.533 32.1527 118.952 32.3335 118.561 32.6952C118.169 33.0569 117.974 33.6879 117.974 34.5871V39.4217H115.521V29.7173H117.974V31.2233C118.289 30.7099 118.701 30.3071 119.209 30.0147V30.0157Z" fill="#9198B0"/>
<path d="M131.55 35.3059H124.455C124.514 36.0062 124.759 36.5557 125.191 36.9526C125.623 37.3494 126.154 37.5484 126.785 37.5484C127.697 37.5484 128.345 37.1575 128.729 36.3749H131.375C131.095 37.3093 130.557 38.0768 129.763 38.6787C128.969 39.2805 127.994 39.5809 126.838 39.5809C125.903 39.5809 125.065 39.3739 124.324 38.959C123.582 38.545 123.004 37.9573 122.59 37.1987C122.175 36.4402 121.968 35.5641 121.968 34.5714C121.968 33.5788 122.172 32.6856 122.581 31.9261C122.99 31.1675 123.561 30.5838 124.298 30.1749C125.033 29.766 125.88 29.562 126.838 29.562C127.795 29.562 128.586 29.7609 129.316 30.1578C130.046 30.5547 130.612 31.1183 131.015 31.8477C131.418 32.5781 131.62 33.415 131.62 34.3615C131.62 34.7121 131.597 35.0266 131.55 35.3069V35.3059ZM129.08 33.6592C129.068 33.0282 128.841 32.5239 128.397 32.1441C127.953 31.7643 127.41 31.5744 126.768 31.5744C126.16 31.5744 125.65 31.7583 125.235 32.126C124.82 32.4937 124.567 33.0051 124.474 33.6592H129.08Z" fill="#9198B0"/>
<path d="M23.5824 19.0725C23.5824 19.0725 23.2779 16.8883 25.0753 14.8146C27.0476 12.539 29.1675 12.7409 29.1675 12.7409C29.1675 12.7409 29.278 15.0638 27.9789 16.7778C25.6309 19.8753 23.5824 19.0725 23.5824 19.0725Z" fill="#F2F3F7"/>
<path d="M23.5556 20.7585C25.2023 20.6922 26.7907 19.2655 29.8038 19.5418C32.2885 19.7699 34.329 22.0666 34.1451 22.2515C33.9512 22.4454 31.1039 24.3523 31.1863 27.698C31.2948 32.0624 34.9188 33.2831 34.9188 33.2831C34.9188 33.2831 33.3976 38.6743 29.6099 40.5823C28.4927 41.1449 25.3309 39.458 24.08 39.4489C22.7498 39.4389 20.009 41.0484 18.7441 40.6375C15.4738 39.5755 12.5491 33.5855 12.1914 28.7208C11.7765 23.0804 15.1965 20.2933 17.5003 19.8181C20.9836 19.0987 21.5673 20.8379 23.5556 20.7585Z" fill="#F2F3F7"/>
</svg>
