<svg width="52" height="52" viewBox="0 0 52 52" fill="none" xmlns="http://www.w3.org/2000/svg">
<g id="Content" filter="url(#filter0_dd_388_462)">
<g id="Frame">
<circle id="Shape" cx="26" cy="26" r="22" fill="url(#paint0_linear_388_462)"/>
<circle id="Glow" cx="26" cy="26" r="21.5" stroke="url(#paint1_linear_388_462)"/>
<circle id="Shadow" cx="26" cy="26" r="21.5" stroke="url(#paint2_linear_388_462)" stroke-opacity="0.24"/>
<circle id="Shape_2" cx="26" cy="26" r="16" fill="#65574C"/>
<circle id="Glow_2" cx="26" cy="26" r="15.5" stroke="url(#paint3_linear_388_462)" stroke-opacity="0.12"/>
<circle id="Shadow_2" cx="26" cy="26" r="15.5" stroke="url(#paint4_linear_388_462)" stroke-opacity="0.48"/>
</g>
<g id="Moon">
<g id="Moon_2" filter="url(#filter1_d_388_462)">
<path fill-rule="evenodd" clip-rule="evenodd" d="M36.6687 28.6504C32.9491 29.9042 29.0209 29.3084 26.4346 26.7221C22.5294 22.8168 23.1625 15.852 27.8488 11.1657C28.1724 10.8422 28.5068 10.5379 28.8503 10.2531C27.9254 10.0868 26.9728 10 26 10C17.1991 10 10.0579 17.1057 10.0004 25.893C10.0001 25.9286 10 25.9643 10 26C10 27.7649 10.2858 29.4631 10.8136 31.0508C10.84 31.1305 10.8672 31.2099 10.8949 31.289C10.9274 31.3819 10.9607 31.4743 10.9949 31.5664C11.0489 31.7119 11.105 31.8565 11.1631 32C11.865 33.734 12.862 35.3169 14.0919 36.6865C16.5123 38.7564 19.616 40 23 40C29.6874 40 35.2797 35.1437 36.6687 28.6504Z" fill="url(#paint5_linear_388_462)"/>
</g>
<path id="Glow_3" d="M26.081 27.0756C28.6284 29.623 32.3702 30.325 35.9751 29.3797C34.3506 35.2345 29.1469 39.5 23 39.5C19.753 39.5 16.7729 38.3117 14.4419 36.3278C13.2603 35.0064 12.3021 33.4815 11.6265 31.8124C11.5703 31.6734 11.5159 31.5334 11.4636 31.3924C11.4305 31.3033 11.3983 31.2137 11.3668 31.1238C11.3399 31.0472 11.3137 30.9702 11.288 30.893C10.7769 29.3556 10.5 27.7106 10.5 26C10.5 25.9654 10.5001 25.9308 10.5003 25.8963C10.5561 17.3837 17.4742 10.5 26 10.5C26.5808 10.5 27.1539 10.5319 27.7179 10.5941C27.6431 10.6658 27.5689 10.7385 27.4953 10.8122C22.6768 15.6306 21.9229 22.9175 26.081 27.0756Z" stroke="url(#paint6_linear_388_462)"/>
<path id="Shadow_3" d="M26.081 27.0756C28.6284 29.623 32.3702 30.325 35.9751 29.3797C34.3506 35.2345 29.1469 39.5 23 39.5C19.753 39.5 16.7729 38.3117 14.4419 36.3278C13.2603 35.0064 12.3021 33.4815 11.6265 31.8124C11.5703 31.6734 11.5159 31.5334 11.4636 31.3924C11.4305 31.3033 11.3983 31.2137 11.3668 31.1238C11.3399 31.0472 11.3137 30.9702 11.288 30.893C10.7769 29.3556 10.5 27.7106 10.5 26C10.5 25.9654 10.5001 25.9308 10.5003 25.8963C10.5561 17.3837 17.4742 10.5 26 10.5C26.5808 10.5 27.1539 10.5319 27.7179 10.5941C27.6431 10.6658 27.5689 10.7385 27.4953 10.8122C22.6768 15.6306 21.9229 22.9175 26.081 27.0756Z" stroke="url(#paint7_linear_388_462)" stroke-opacity="0.12"/>
</g>
</g>
<defs>
<filter id="filter0_dd_388_462" x="-6" y="-5" width="64" height="64" filterUnits="userSpaceOnUse" color-interpolation-filters="sRGB">
<feFlood flood-opacity="0" result="BackgroundImageFix"/>
<feColorMatrix in="SourceAlpha" type="matrix" values="0 0 0 0 0 0 0 0 0 0 0 0 0 0 0 0 0 0 127 0" result="hardAlpha"/>
<feOffset dx="2" dy="3"/>
<feGaussianBlur stdDeviation="2"/>
<feComposite in2="hardAlpha" operator="out"/>
<feColorMatrix type="matrix" values="0 0 0 0 0 0 0 0 0 0 0 0 0 0 0 0 0 0 0.15 0"/>
<feBlend mode="normal" in2="BackgroundImageFix" result="effect1_dropShadow_388_462"/>
<feColorMatrix in="SourceAlpha" type="matrix" values="0 0 0 0 0 0 0 0 0 0 0 0 0 0 0 0 0 0 127 0" result="hardAlpha"/>
<feOffset dx="-2" dy="-1"/>
<feGaussianBlur stdDeviation="2"/>
<feComposite in2="hardAlpha" operator="out"/>
<feColorMatrix type="matrix" values="0 0 0 0 0.323625 0 0 0 0 0.346073 0 0 0 0 0.454574 0 0 0 0.4 0"/>
<feBlend mode="normal" in2="effect1_dropShadow_388_462" result="effect2_dropShadow_388_462"/>
<feBlend mode="normal" in="SourceGraphic" in2="effect2_dropShadow_388_462" result="shape"/>
</filter>
<filter id="filter1_d_388_462" x="6" y="6" width="42.6689" height="46" filterUnits="userSpaceOnUse" color-interpolation-filters="sRGB">
<feFlood flood-opacity="0" result="BackgroundImageFix"/>
<feColorMatrix in="SourceAlpha" type="matrix" values="0 0 0 0 0 0 0 0 0 0 0 0 0 0 0 0 0 0 127 0" result="hardAlpha"/>
<feOffset dx="4" dy="4"/>
<feGaussianBlur stdDeviation="4"/>
<feComposite in2="hardAlpha" operator="out"/>
<feColorMatrix type="matrix" values="0 0 0 0 1 0 0 0 0 1 0 0 0 0 1 0 0 0 0.48 0"/>
<feBlend mode="overlay" in2="BackgroundImageFix" result="effect1_dropShadow_388_462"/>
<feBlend mode="normal" in="SourceGraphic" in2="effect1_dropShadow_388_462" result="shape"/>
</filter>
<linearGradient id="paint0_linear_388_462" x1="37.5" y1="7" x2="15" y2="44" gradientUnits="userSpaceOnUse">
<stop stop-color="#EBDDA4"/>
<stop offset="0.152729" stop-color="#F0D390"/>
<stop offset="0.44" stop-color="#FAEDC8"/>
<stop offset="0.768363" stop-color="#E6C88E"/>
<stop offset="1" stop-color="#E6BD81"/>
</linearGradient>
<linearGradient id="paint1_linear_388_462" x1="14.5" y1="8.5" x2="28" y2="27" gradientUnits="userSpaceOnUse">
<stop stop-color="white"/>
<stop offset="1" stop-color="white" stop-opacity="0"/>
</linearGradient>
<linearGradient id="paint2_linear_388_462" x1="28.5" y1="29" x2="39.5" y2="42.5" gradientUnits="userSpaceOnUse">
<stop stop-opacity="0"/>
<stop offset="1"/>
</linearGradient>
<linearGradient id="paint3_linear_388_462" x1="25" y1="26" x2="35.5" y2="37.5" gradientUnits="userSpaceOnUse">
<stop stop-color="white" stop-opacity="0"/>
<stop offset="1" stop-color="white"/>
</linearGradient>
<linearGradient id="paint4_linear_388_462" x1="17" y1="13" x2="27.5" y2="27" gradientUnits="userSpaceOnUse">
<stop/>
<stop offset="1" stop-opacity="0"/>
</linearGradient>
<linearGradient id="paint5_linear_388_462" x1="28.5" y1="10" x2="16" y2="36" gradientUnits="userSpaceOnUse">
<stop stop-color="#FEF9CB"/>
<stop offset="1" stop-color="#FADFAA"/>
</linearGradient>
<linearGradient id="paint6_linear_388_462" x1="16.3641" y1="13.0682" x2="26.4382" y2="25.8681" gradientUnits="userSpaceOnUse">
<stop stop-color="white"/>
<stop offset="1" stop-color="white" stop-opacity="0"/>
</linearGradient>
<linearGradient id="paint7_linear_388_462" x1="28.5" y1="31" x2="28.4824" y2="39.502" gradientUnits="userSpaceOnUse">
<stop stop-opacity="0"/>
<stop offset="1"/>
</linearGradient>
</defs>
</svg>
