<svg width="238" height="59" viewBox="0 0 238 59" fill="none" xmlns="http://www.w3.org/2000/svg">
<circle cx="20.9143" cy="29.6152" r="16.9231" fill="url(#paint0_linear_215_8225)"/>
<circle cx="20.9143" cy="29.6152" r="16.4231" stroke="url(#paint1_linear_215_8225)"/>
<circle cx="20.9143" cy="29.6152" r="16.4231" stroke="url(#paint2_linear_215_8225)" stroke-opacity="0.24"/>
<circle cx="20.9141" cy="29.6153" r="12.3077" fill="#65574C"/>
<circle cx="20.9141" cy="29.6153" r="11.8077" stroke="url(#paint3_linear_215_8225)" stroke-opacity="0.12"/>
<circle cx="20.9141" cy="29.6153" r="11.8077" stroke="url(#paint4_linear_215_8225)" stroke-opacity="0.48"/>
<g filter="url(#filter0_d_215_8225)">
<path fill-rule="evenodd" clip-rule="evenodd" d="M29.1208 31.6541C26.2596 32.6185 23.2379 32.1602 21.2484 30.1707C18.2444 27.1667 18.7315 21.8092 22.3363 18.2043C22.5852 17.9554 22.8424 17.7214 23.1067 17.5023C22.3952 17.3744 21.6625 17.3076 20.9141 17.3076C14.1442 17.3076 8.65098 22.7735 8.60672 29.533C8.60654 29.5604 8.60645 29.5878 8.60645 29.6153C8.60645 30.9729 8.82627 32.2792 9.23226 33.5005C9.25264 33.5618 9.27349 33.6229 9.2948 33.6838C9.31981 33.7552 9.34545 33.8263 9.37173 33.8971C9.41328 34.0091 9.45641 34.1203 9.5011 34.2307C10.041 35.5645 10.808 36.7822 11.7541 37.8357C13.6159 39.428 16.0033 40.3845 18.6065 40.3845C23.7506 40.3845 28.0524 36.649 29.1208 31.6541Z" fill="url(#paint5_linear_215_8225)"/>
</g>
<path d="M9.10671 29.5363L8.60672 29.533L9.10671 29.5363C9.14917 23.0515 14.4193 17.8076 20.9141 17.8076C21.273 17.8076 21.6281 17.8236 21.9786 17.8549C18.2453 21.592 17.6392 27.2686 20.8949 30.5243C22.8429 32.4723 25.6767 33.0359 28.421 32.3758C27.1254 36.7341 23.212 39.8845 18.6065 39.8845C16.1404 39.8845 13.8765 38.9832 12.1041 37.477C11.2063 36.4717 10.4782 35.312 9.96457 34.0431C9.92171 33.9372 9.88034 33.8306 9.84049 33.7232C9.81529 33.6553 9.79069 33.5871 9.76671 33.5186C9.74627 33.4602 9.72627 33.4016 9.70673 33.3428L9.23284 33.5003L9.70673 33.3428C9.31743 32.1717 9.10645 30.9187 9.10645 29.6153L9.10671 29.5363Z" stroke="url(#paint6_linear_215_8225)"/>
<path d="M9.10671 29.5363L8.60672 29.533L9.10671 29.5363C9.14917 23.0515 14.4193 17.8076 20.9141 17.8076C21.273 17.8076 21.6281 17.8236 21.9786 17.8549C18.2453 21.592 17.6392 27.2686 20.8949 30.5243C22.8429 32.4723 25.6767 33.0359 28.421 32.3758C27.1254 36.7341 23.212 39.8845 18.6065 39.8845C16.1404 39.8845 13.8765 38.9832 12.1041 37.477C11.2063 36.4717 10.4782 35.312 9.96457 34.0431C9.92171 33.9372 9.88034 33.8306 9.84049 33.7232C9.81529 33.6553 9.79069 33.5871 9.76671 33.5186C9.74627 33.4602 9.72627 33.4016 9.70673 33.3428L9.23284 33.5003L9.70673 33.3428C9.31743 32.1717 9.10645 30.9187 9.10645 29.6153L9.10671 29.5363Z" stroke="url(#paint7_linear_215_8225)" stroke-opacity="0.12"/>
<path d="M69.3866 16.8552H86.5066V34.8952H69.3866V30.7752H81.8666V20.9752H69.3866V16.8552ZM69.7466 23.7352H83.9066V27.7352H69.7466V23.7352ZM78.1066 33.1352C80.0266 38.5752 84.0266 43.2952 89.3466 45.4952C88.3066 46.3752 86.8666 48.1752 86.1866 49.4152C80.3866 46.5352 76.3866 41.0552 74.0266 34.2952L78.1066 33.1352ZM85.5066 35.2152L88.5466 38.3752C86.4266 40.0152 83.5866 41.7352 81.5066 42.8152L78.9066 39.8552C80.8666 38.7752 83.7866 36.7352 85.5066 35.2152ZM73.2266 13.4952L77.4666 12.3352C78.3466 14.0152 79.3466 16.2952 79.7866 17.7352L75.2666 19.0552C74.9466 17.6152 74.0666 15.2552 73.2266 13.4952ZM66.7466 50.3752L66.2266 46.3752L67.9866 44.9352L76.8266 42.4152C76.9066 43.6952 77.1466 45.4952 77.3466 46.4552C69.1866 49.0552 67.6666 49.6952 66.7466 50.3752ZM66.7466 50.3752C66.3066 49.3752 65.0266 47.6152 64.2666 46.8952C65.2266 46.1752 66.5866 44.6952 66.5866 42.5352V16.8152H71.3466V45.1352C71.3466 45.1352 66.7466 48.6152 66.7466 50.3752ZM51.6266 15.8952L54.9866 13.3752C62.7466 19.6952 63.7866 26.9352 63.7866 34.6952C63.7866 40.2552 63.3066 45.6552 61.4666 48.0952C60.8666 48.8952 59.9866 49.4552 58.9466 49.6952C57.3866 50.0552 55.6666 50.0952 53.7866 50.0152C53.7466 48.4952 53.3066 46.8152 52.5066 45.4552C54.4666 45.6152 55.9066 45.5752 56.7466 45.4952C57.3466 45.4152 57.7066 45.2152 58.0266 44.7752C58.8666 43.6152 59.2266 39.4552 59.2266 34.5352C59.2266 27.2552 58.1066 21.2952 51.6266 15.8952ZM59.7066 27.8152L63.2266 29.9352C61.2666 33.8152 57.5466 38.4152 54.3066 41.0152C53.5466 39.8952 52.2266 38.3352 51.1066 37.4552C54.3066 35.4552 57.9466 31.3752 59.7066 27.8152ZM61.2666 13.4952L65.5066 15.6152C62.7066 20.5752 58.6266 25.3352 54.4666 28.5352C53.7066 27.5752 52.1866 26.1352 51.1466 25.3752C55.1866 22.5352 59.0266 17.8152 61.2666 13.4952ZM98.5866 28.2152H128.067V32.8552H98.5866V28.2152ZM94.9466 14.2552H126.227V18.8952H94.9466V14.2552ZM114.907 16.1752H119.827V44.5752C119.827 47.2152 119.267 48.5352 117.627 49.3352C115.947 50.0952 113.507 50.2552 110.067 50.2552C109.867 48.8552 109.027 46.6552 108.307 45.3352C110.667 45.4552 113.107 45.4552 113.907 45.4552C114.627 45.4152 114.907 45.2152 114.907 44.4952V16.1752ZM112.147 29.9352L116.347 31.8552C111.267 38.8552 103.027 44.9352 94.8266 48.1752C94.0266 46.9352 92.5466 45.0152 91.4266 43.9352C99.4266 41.2552 107.827 35.6552 112.147 29.9352ZM98.2266 20.0152L103.027 20.4952C102.107 24.6552 100.827 29.7352 99.8666 32.8552H94.9866C96.0666 29.4952 97.3866 24.1352 98.2266 20.0152Z" fill="#F2F3F7"/>
<defs>
<filter id="filter0_d_215_8225" x="4.60645" y="13.3076" width="36.5146" height="39.0769" filterUnits="userSpaceOnUse" color-interpolation-filters="sRGB">
<feFlood flood-opacity="0" result="BackgroundImageFix"/>
<feColorMatrix in="SourceAlpha" type="matrix" values="0 0 0 0 0 0 0 0 0 0 0 0 0 0 0 0 0 0 127 0" result="hardAlpha"/>
<feOffset dx="4" dy="4"/>
<feGaussianBlur stdDeviation="4"/>
<feComposite in2="hardAlpha" operator="out"/>
<feColorMatrix type="matrix" values="0 0 0 0 1 0 0 0 0 1 0 0 0 0 1 0 0 0 0.48 0"/>
<feBlend mode="overlay" in2="BackgroundImageFix" result="effect1_dropShadow_215_8225"/>
<feBlend mode="normal" in="SourceGraphic" in2="effect1_dropShadow_215_8225" result="shape"/>
</filter>
<linearGradient id="paint0_linear_215_8225" x1="29.7604" y1="14.9998" x2="12.4528" y2="43.4614" gradientUnits="userSpaceOnUse">
<stop stop-color="#EBDDA4"/>
<stop offset="0.152729" stop-color="#F0D390"/>
<stop offset="0.44" stop-color="#FAEDC8"/>
<stop offset="0.768363" stop-color="#E6C88E"/>
<stop offset="1" stop-color="#E6BD81"/>
</linearGradient>
<linearGradient id="paint1_linear_215_8225" x1="12.0681" y1="16.1537" x2="22.4527" y2="30.3844" gradientUnits="userSpaceOnUse">
<stop stop-color="white"/>
<stop offset="1" stop-color="white" stop-opacity="0"/>
</linearGradient>
<linearGradient id="paint2_linear_215_8225" x1="22.8374" y1="31.9229" x2="31.2989" y2="42.3075" gradientUnits="userSpaceOnUse">
<stop stop-opacity="0"/>
<stop offset="1"/>
</linearGradient>
<linearGradient id="paint3_linear_215_8225" x1="20.1449" y1="29.6153" x2="28.2218" y2="38.4615" gradientUnits="userSpaceOnUse">
<stop stop-color="white" stop-opacity="0"/>
<stop offset="1" stop-color="white"/>
</linearGradient>
<linearGradient id="paint4_linear_215_8225" x1="13.9911" y1="19.6153" x2="22.068" y2="30.3845" gradientUnits="userSpaceOnUse">
<stop/>
<stop offset="1" stop-opacity="0"/>
</linearGradient>
<linearGradient id="paint5_linear_215_8225" x1="22.8372" y1="17.3076" x2="13.2218" y2="37.3076" gradientUnits="userSpaceOnUse">
<stop stop-color="#FEF9CB"/>
<stop offset="1" stop-color="#FADFAA"/>
</linearGradient>
<linearGradient id="paint6_linear_215_8225" x1="13.5019" y1="19.6678" x2="21.2512" y2="29.5139" gradientUnits="userSpaceOnUse">
<stop stop-color="white"/>
<stop offset="1" stop-color="white" stop-opacity="0"/>
</linearGradient>
<linearGradient id="paint7_linear_215_8225" x1="22.8372" y1="33.4615" x2="22.8237" y2="40.0015" gradientUnits="userSpaceOnUse">
<stop stop-opacity="0"/>
<stop offset="1"/>
</linearGradient>
</defs>
</svg>
