<svg width="24" height="25" viewBox="0 0 24 25" fill="none" xmlns="http://www.w3.org/2000/svg">
<g id="Social Icons" clip-path="url(#clip0_76_575)">
<path id="Vector" d="M12 0.808228C5.37264 0.808228 0 6.18087 0 12.8082C0 18.4357 3.87456 23.158 9.10128 24.4549V16.4754H6.62688V12.8082H9.10128V11.2281C9.10128 7.14375 10.9498 5.25063 14.9597 5.25063C15.72 5.25063 17.0318 5.39991 17.5685 5.54871V8.87271C17.2853 8.84295 16.7933 8.82807 16.1822 8.82807C14.2147 8.82807 13.4544 9.57351 13.4544 11.5113V12.8082H17.3741L16.7006 16.4754H13.4544V24.7204C19.3963 24.0028 24.0005 18.9436 24.0005 12.8082C24 6.18087 18.6274 0.808228 12 0.808228Z" fill="white"/>
</g>
<defs>
<clipPath id="clip0_76_575">
<rect width="24" height="24" fill="white" transform="translate(0 0.808228)"/>
</clipPath>
</defs>
</svg>
