<svg width="160" height="53" viewBox="0 0 160 53" fill="none" xmlns="http://www.w3.org/2000/svg">
<path fill-rule="evenodd" clip-rule="evenodd" d="M6.74687 1.45636C3.57573 1.45636 1.00501 4.02708 1.00501 7.19823V46.2439C1.00501 49.4151 3.57573 51.9858 6.74687 51.9858H152.995C156.166 51.9858 158.737 49.4151 158.737 46.2439V7.19823C158.737 4.02708 156.166 1.45636 152.995 1.45636H6.74687ZM0.000305176 7.19823C0.000305176 3.4722 3.02085 0.45166 6.74687 0.45166H152.995C156.721 0.45166 159.742 3.4722 159.742 7.19823V46.2439C159.742 49.9699 156.721 52.9905 152.995 52.9905H6.74687C3.02085 52.9905 0.000305176 49.9699 0.000305176 46.2439V7.19823Z" fill="#9198B0"/>
<path d="M51.8121 12.0024C51.5991 11.5924 51.3037 11.283 50.9249 11.074C50.5462 10.865 50.1091 10.7605 49.6118 10.7605C49.0672 10.7605 48.583 10.8831 48.157 11.1273C47.731 11.3714 47.3974 11.719 47.1573 12.1681C46.9162 12.6172 46.7966 13.1377 46.7966 13.7294C46.7966 14.3212 46.9172 14.8436 47.1573 15.2968C47.3974 15.7499 47.731 16.0995 48.157 16.3437C48.583 16.5878 49.0682 16.7104 49.6118 16.7104C50.3452 16.7104 50.94 16.5054 51.3981 16.0955C51.8553 15.6856 52.1356 15.13 52.2381 14.4277H49.1506V13.3517H53.6808V14.4046C53.5944 15.0436 53.3674 15.6313 53.0006 16.1668C52.6339 16.7033 52.1567 17.1314 51.5689 17.4498C50.9812 17.7693 50.3291 17.9291 49.6108 17.9291C48.8382 17.9291 48.1319 17.7502 47.4939 17.3906C46.8549 17.0319 46.3485 16.5325 45.9738 15.8946C45.599 15.2556 45.4121 14.5342 45.4121 13.7294C45.4121 12.9247 45.599 12.2033 45.9738 11.5643C46.3485 10.9253 46.8569 10.427 47.4999 10.0683C48.1429 9.70963 48.8462 9.52979 49.6118 9.52979C50.4869 9.52979 51.2655 9.74479 51.9477 10.1748C52.6299 10.6048 53.1242 11.2137 53.4327 12.0024H51.8121Z" fill="#9198B0"/>
<path d="M56.3551 10.7256V13.1389H59.1944V14.239H56.3551V16.7588H59.549V17.859H55.0068V9.62646H59.549V10.7266H56.3551V10.7256Z" fill="#9198B0"/>
<path d="M66.5154 9.63623V10.7364H64.3272V17.8577H62.9789V10.7364H60.7786V9.63623H66.5154Z" fill="#9198B0"/>
<path d="M72.3002 9.63623V17.8577H70.9519V9.63623H72.3002Z" fill="#9198B0"/>
<path d="M79.3849 9.63623V10.7364H77.1967V17.8577H75.8484V10.7364H73.6481V9.63623H79.3849Z" fill="#9198B0"/>
<path d="M85.459 17.4021C84.816 17.0434 84.3077 16.5431 83.9329 15.9001C83.5581 15.2571 83.3713 14.5337 83.3713 13.7299C83.3713 12.9262 83.5581 12.2038 83.9329 11.5648C84.3077 10.9258 84.816 10.4275 85.459 10.0688C86.1021 9.71011 86.8053 9.53027 87.5709 9.53027C88.3365 9.53027 89.0519 9.71011 89.6939 10.0688C90.3369 10.4275 90.8432 10.9268 91.214 11.5648C91.5847 12.2038 91.7696 12.9252 91.7696 13.7299C91.7696 14.5347 91.5847 15.2581 91.214 15.9001C90.8432 16.5431 90.3369 17.0434 89.6939 17.4021C89.0508 17.7608 88.3435 17.9406 87.5709 17.9406C86.7983 17.9406 86.1021 17.7618 85.459 17.4021ZM89.0247 16.3964C89.4507 16.1482 89.7833 15.7936 90.0244 15.3314C90.2645 14.8703 90.3851 14.3358 90.3851 13.7289C90.3851 13.1221 90.2645 12.5896 90.0244 12.1324C89.7833 11.6753 89.4507 11.3237 89.0247 11.0795C88.5987 10.8354 88.1135 10.7128 87.5699 10.7128C87.0264 10.7128 86.5411 10.8354 86.1151 11.0795C85.6891 11.3237 85.3556 11.6753 85.1154 12.1324C84.8753 12.5896 84.7548 13.1221 84.7548 13.7289C84.7548 14.3358 84.8753 14.8703 85.1154 15.3314C85.3556 15.7926 85.6891 16.1472 86.1151 16.3964C86.5411 16.6446 87.0264 16.7691 87.5699 16.7691C88.1135 16.7691 88.5987 16.6446 89.0247 16.3964Z" fill="#9198B0"/>
<path d="M99.849 17.8575H98.5007L94.4437 11.7178V17.8575H93.0954V9.625H94.4437L98.5007 15.7527V9.625H99.849V17.8575Z" fill="#9198B0"/>
<path d="M54.674 30.583C54.3937 30.0696 54.0079 29.6778 53.5176 29.4095C53.0273 29.1412 52.4546 29.0066 51.8006 29.0066C51.0762 29.0066 50.4342 29.1704 49.8736 29.4969C49.3129 29.8234 48.8749 30.2916 48.5594 30.8985C48.2439 31.5063 48.0862 32.2066 48.0862 33.0003C48.0862 33.794 48.2469 34.5305 48.5674 35.1373C48.8889 35.7451 49.335 36.2123 49.9077 36.5389C50.4794 36.8664 51.1455 37.0291 51.9051 37.0291C52.8394 37.0291 53.604 36.781 54.1998 36.2847C54.7956 35.7883 55.1864 35.0961 55.3733 34.209H51.1696V32.3352H57.7906V34.4722C57.6268 35.3252 57.2762 36.1129 56.7397 36.8373C56.2022 37.5616 55.5109 38.1424 54.664 38.5804C53.817 39.0185 52.8686 39.2375 51.8176 39.2375C50.6381 39.2375 49.5721 38.9722 48.6207 38.4408C47.6692 37.9093 46.9217 37.1708 46.3782 36.2244C45.8357 35.278 45.5634 34.2039 45.5634 33.0013C45.5634 31.7987 45.8347 30.7216 46.3782 29.7692C46.9217 28.8177 47.6682 28.0763 48.6207 27.5448C49.5721 27.0133 50.6321 26.748 51.7996 26.748C53.177 26.748 54.3746 27.0836 55.3904 27.7558C56.4061 28.4279 57.1074 29.3703 57.4922 30.585H54.672L54.674 30.583Z" fill="#9198B0"/>
<path d="M61.4 38.667C60.6525 38.253 60.0657 37.6653 59.6397 36.9068C59.2137 36.1482 59.0007 35.2721 59.0007 34.2795C59.0007 33.2868 59.2198 32.4107 59.6578 31.6522C60.0959 30.8936 60.6937 30.3069 61.4532 29.8919C62.2118 29.478 63.0587 29.27 63.9931 29.27C64.9275 29.27 65.7734 29.477 66.533 29.8919C67.2915 30.3069 67.8903 30.8936 68.3284 31.6522C68.7664 32.4117 68.9854 33.2868 68.9854 34.2795C68.9854 35.2721 68.7604 36.1482 68.3113 36.9068C67.8612 37.6663 67.2543 38.253 66.4898 38.667C65.7252 39.0819 64.8692 39.2889 63.9238 39.2889C62.9783 39.2889 62.1485 39.0819 61.401 38.667H61.4ZM65.1746 36.8274C65.5654 36.6114 65.8779 36.2879 66.112 35.8548C66.3451 35.4228 66.4626 34.8973 66.4626 34.2785C66.4626 33.3561 66.2205 32.6468 65.7352 32.1505C65.251 31.6542 64.6582 31.406 63.9569 31.406C63.2556 31.406 62.6699 31.6542 62.1967 32.1505C61.7235 32.6468 61.4874 33.3561 61.4874 34.2785C61.4874 35.2008 61.7174 35.9101 62.1796 36.4064C62.6408 36.9027 63.2215 37.1509 63.9228 37.1509C64.3668 37.1509 64.7838 37.0434 65.1756 36.8264L65.1746 36.8274Z" fill="#9198B0"/>
<path d="M72.5759 38.667C71.8284 38.253 71.2416 37.6653 70.8156 36.9068C70.3896 36.1482 70.1766 35.2721 70.1766 34.2795C70.1766 33.2868 70.3957 32.4107 70.8337 31.6522C71.2718 30.8936 71.8696 30.3069 72.6291 29.8919C73.3877 29.478 74.2346 29.27 75.169 29.27C76.1034 29.27 76.9493 29.477 77.7089 29.8919C78.4674 30.3069 79.0662 30.8936 79.5043 31.6522C79.9423 32.4117 80.1614 33.2868 80.1614 34.2795C80.1614 35.2721 79.9363 36.1482 79.4872 36.9068C79.0371 37.6663 78.4303 38.253 77.6657 38.667C76.9011 39.0819 76.0451 39.2889 75.0997 39.2889C74.1542 39.2889 73.3244 39.0819 72.5769 38.667H72.5759ZM76.3505 36.8274C76.7414 36.6114 77.0538 36.2879 77.2879 35.8548C77.521 35.4228 77.6386 34.8973 77.6386 34.2785C77.6386 33.3561 77.3964 32.6468 76.9111 32.1505C76.4269 31.6542 75.8341 31.406 75.1328 31.406C74.4315 31.406 73.8458 31.6542 73.3726 32.1505C72.8994 32.6468 72.6633 33.3561 72.6633 34.2785C72.6633 35.2008 72.8933 35.9101 73.3555 36.4064C73.8167 36.9027 74.3974 37.1509 75.0987 37.1509C75.5427 37.1509 75.9597 37.0434 76.3515 36.8264L76.3505 36.8274Z" fill="#9198B0"/>
<path d="M87.6762 29.6985C88.2247 29.9849 88.6568 30.3556 88.9722 30.8107V29.4273H91.4418V39.202C91.4418 40.1012 91.2609 40.904 90.8992 41.6103C90.5376 42.3166 89.994 42.8772 89.2706 43.2921C88.5462 43.7061 87.6701 43.914 86.6433 43.914C85.2649 43.914 84.1356 43.5925 83.2535 42.9505C82.3714 42.3085 81.872 41.4324 81.7555 40.3232H84.1899C84.3185 40.7673 84.5958 41.12 85.0217 41.3832C85.4477 41.6464 85.9652 41.7771 86.572 41.7771C87.2843 41.7771 87.862 41.5641 88.3061 41.1381C88.7502 40.7121 88.9712 40.066 88.9712 39.202V37.696C88.6558 38.1511 88.2207 38.5309 87.6661 38.8343C87.1115 39.1377 86.4776 39.2894 85.7652 39.2894C84.9474 39.2894 84.1999 39.0794 83.5227 38.6585C82.8456 38.2385 82.3111 37.6457 81.9202 36.8801C81.5284 36.1156 81.3335 35.2364 81.3335 34.2438C81.3335 33.2512 81.5294 32.3931 81.9202 31.6336C82.3111 30.875 82.8426 30.2913 83.5147 29.8824C84.1858 29.4735 84.9364 29.2695 85.7652 29.2695C86.4896 29.2695 87.1256 29.4122 87.6742 29.6985H87.6762ZM88.6216 32.7468C88.3875 32.3208 88.072 31.9933 87.6752 31.7662C87.2783 31.5381 86.8523 31.4246 86.3962 31.4246C85.94 31.4246 85.5201 31.5361 85.1353 31.7572C84.7495 31.9792 84.437 32.3027 84.1979 32.7297C83.9588 33.1557 83.8392 33.6611 83.8392 34.2448C83.8392 34.8285 83.9588 35.3399 84.1979 35.778C84.437 36.216 84.7525 36.5516 85.1433 36.7857C85.5341 37.0198 85.9521 37.1363 86.3962 37.1363C86.8403 37.1363 87.2773 37.0228 87.6752 36.7947C88.072 36.5667 88.3875 36.2401 88.6216 35.8142C88.8547 35.3882 88.9722 34.8768 88.9722 34.281C88.9722 33.6852 88.8557 33.1748 88.6216 32.7478V32.7468Z" fill="#9198B0"/>
<path d="M96.2941 26.1685V39.1311H93.8417V26.1685H96.2941Z" fill="#9198B0"/>
<path d="M107.662 35.0149H100.568C100.626 35.7151 100.871 36.2647 101.303 36.6616C101.735 37.0584 102.267 37.2574 102.898 37.2574C103.809 37.2574 104.457 36.8665 104.842 36.0839H107.487C107.207 37.0182 106.669 37.7858 105.876 38.3876C105.081 38.9895 104.106 39.2899 102.95 39.2899C102.016 39.2899 101.178 39.0829 100.436 38.668C99.6947 38.254 99.116 37.6663 98.702 36.9077C98.2871 36.1492 98.0801 35.2731 98.0801 34.2804C98.0801 33.2878 98.2841 32.3946 98.693 31.6351C99.1019 30.8765 99.6736 30.2928 100.41 29.8839C101.145 29.475 101.992 29.271 102.95 29.271C103.907 29.271 104.698 29.4699 105.429 29.8668C106.158 30.2636 106.725 30.8273 107.127 31.5567C107.53 32.2871 107.732 33.124 107.732 34.0705C107.732 34.4211 107.709 34.7366 107.662 35.0159V35.0149ZM105.192 33.3682C105.18 32.7372 104.953 32.2329 104.509 31.8531C104.065 31.4733 103.523 31.2834 102.881 31.2834C102.273 31.2834 101.762 31.4673 101.347 31.835C100.932 32.2027 100.679 32.7141 100.586 33.3682H105.192Z" fill="#9198B0"/>
<path d="M122.14 32.5271C121.83 33.0998 121.345 33.561 120.686 33.9106C120.026 34.2612 119.194 34.436 118.19 34.436H116.141V39.131H113.688V26.9038H118.19C119.136 26.9038 119.942 27.0676 120.608 27.3941C121.273 27.7216 121.772 28.1707 122.106 28.7424C122.438 29.3151 122.605 29.9631 122.605 30.6865C122.605 31.3406 122.45 31.9534 122.141 32.5261L122.14 32.5271ZM119.591 31.9926C119.917 31.6832 120.081 31.2481 120.081 30.6875C120.081 29.4959 119.415 28.9012 118.084 28.9012H116.14V32.4568H118.084C118.761 32.4568 119.263 32.3021 119.59 31.9926H119.591Z" fill="#9198B0"/>
<path d="M126.791 26.1685V39.1311H124.338V26.1685H126.791Z" fill="#9198B0"/>
<path d="M129.164 31.6341C129.555 30.8755 130.087 30.2918 130.759 29.8829C131.43 29.474 132.18 29.27 133.009 29.27C133.734 29.27 134.367 29.4157 134.91 29.7081C135.453 30.0004 135.888 30.3682 136.215 30.8112V29.4278H138.685V39.1322H136.215V37.7135C135.9 38.1687 135.465 38.5454 134.91 38.8438C134.356 39.1412 133.716 39.2909 132.992 39.2909C132.174 39.2909 131.43 39.0809 130.759 38.66C130.087 38.24 129.556 37.6472 129.164 36.8816C128.772 36.1171 128.578 35.2379 128.578 34.2453C128.578 33.2527 128.773 32.3946 129.164 31.6351V31.6341ZM135.865 32.7463C135.631 32.3203 135.315 31.9928 134.918 31.7657C134.521 31.5376 134.095 31.4241 133.639 31.4241C133.183 31.4241 132.763 31.5356 132.378 31.7567C131.992 31.9787 131.68 32.3022 131.441 32.7292C131.202 33.1552 131.082 33.6606 131.082 34.2443C131.082 34.828 131.202 35.3394 131.441 35.7775C131.68 36.2155 131.996 36.5511 132.386 36.7852C132.777 37.0193 133.195 37.1358 133.639 37.1358C134.083 37.1358 134.52 37.0223 134.918 36.7942C135.315 36.5662 135.631 36.2396 135.865 35.8136C136.098 35.3876 136.215 34.8763 136.215 34.2805C136.215 33.6847 136.099 33.1743 135.865 32.7473V32.7463Z" fill="#9198B0"/>
<path d="M150.368 29.4268L144.36 43.7206H141.75L143.852 38.886L139.963 29.4268H142.713L145.217 36.2055L147.757 29.4268H150.367H150.368Z" fill="#9198B0"/>
<path d="M10.88 11.1338C10.4269 11.6733 10.1456 12.3736 10.1456 13.1713V37.1686C10.1456 37.8006 10.3224 38.3712 10.6208 38.8495L23.284 24.9203L10.88 11.1338Z" fill="#4285F5"/>
<path d="M29.0511 18.5767L14.918 10.4165C13.4883 9.59061 11.8175 10.0176 10.8801 11.1338L23.2841 24.9203L29.0521 18.5757L29.0511 18.5767Z" fill="#00AE45"/>
<path d="M29.0511 18.5767L14.918 10.4165C13.4883 9.59061 11.8175 10.0176 10.8801 11.1338L23.2841 24.9203L29.0521 18.5757L29.0511 18.5767Z" fill="#00AE45"/>
<path d="M14.9182 39.9246L29.3076 31.6167L23.2834 24.9214L10.6201 38.8506C11.4781 40.225 13.3439 40.8328 14.9172 39.9246H14.9182Z" fill="#00AE45"/>
<path d="M14.9182 39.9246L29.3076 31.6167L23.2834 24.9214L10.6201 38.8506C11.4781 40.225 13.3439 40.8328 14.9172 39.9246H14.9182Z" fill="#EB4132"/>
<path d="M29.3073 31.6172L35.7002 27.9259C37.8212 26.7012 37.8212 23.6399 35.7002 22.4151L29.0511 18.5762L23.2831 24.9209L29.3073 31.6162V31.6172Z" fill="#00AE45"/>
<path opacity="0.54" d="M29.3073 31.6172L35.7002 27.9259C37.8212 26.7012 37.8212 23.6399 35.7002 22.4151L29.0511 18.5762L23.2831 24.9209L29.3073 31.6162V31.6172Z" fill="#FFF200"/>
<path d="M29.3073 31.6172L35.7002 27.9259C37.8212 26.7012 37.8212 23.6399 35.7002 22.4151L29.0511 18.5762L23.2831 24.9209L29.3073 31.6162V31.6172Z" fill="#FFBB00"/>
</svg>
