<svg width="160" height="53" viewBox="0 0 160 53" fill="none" xmlns="http://www.w3.org/2000/svg">
<path fill-rule="evenodd" clip-rule="evenodd" d="M6.74657 1.0047C3.57542 1.0047 1.0047 3.57542 1.0047 6.74657V45.7923C1.0047 48.9634 3.57542 51.5341 6.74657 51.5341H152.995C156.166 51.5341 158.737 48.9634 158.737 45.7923V6.74657C158.737 3.57542 156.166 1.0047 152.995 1.0047H6.74657ZM0 6.74657C0 3.02054 3.02054 0 6.74657 0H152.995C156.721 0 159.741 3.02054 159.741 6.74657V45.7923C159.741 49.5183 156.721 52.5388 152.995 52.5388H6.74657C3.02054 52.5388 0 49.5183 0 45.7923V6.74657Z" fill="#9198B0"/>
<path d="M54.6737 30.1318C54.3934 29.6184 54.0076 29.2266 53.5173 28.9583C53.027 28.6901 52.4544 28.5554 51.8003 28.5554C51.0759 28.5554 50.4339 28.7192 49.8733 29.0457C49.3127 29.3723 48.8746 29.8405 48.5591 30.4473C48.2437 31.0551 48.0859 31.7554 48.0859 32.5491C48.0859 33.3428 48.2467 34.0793 48.5672 34.6861C48.8887 35.294 49.3348 35.7612 49.9074 36.0877C50.4791 36.4152 51.1452 36.578 51.9048 36.578C52.8392 36.578 53.6037 36.3298 54.1995 35.8335C54.7953 35.3372 55.1861 34.6449 55.373 33.7578H51.1693V31.884H57.7903V34.021C57.6266 34.874 57.2759 35.6617 56.7394 36.3861C56.2019 37.1105 55.5107 37.6912 54.6637 38.1292C53.8167 38.5673 52.8683 38.7863 51.8174 38.7863C50.6379 38.7863 49.5719 38.5211 48.6204 37.9896C47.669 37.4581 46.9215 36.7196 46.3779 35.7732C45.8354 34.8268 45.5631 33.7528 45.5631 32.5501C45.5631 31.3475 45.8344 30.2705 46.3779 29.318C46.9215 28.3666 47.668 27.6251 48.6204 27.0936C49.5719 26.5621 50.6318 26.2969 51.7993 26.2969C53.1767 26.2969 54.3743 26.6324 55.3901 27.3046C56.4058 27.9767 57.1071 28.9191 57.4919 30.1338H54.6717L54.6737 30.1318Z" fill="#9198B0"/>
<path d="M61.3997 38.2153C60.6522 37.8014 60.0655 37.2136 59.6395 36.4551C59.2135 35.6965 59.0005 34.8204 59.0005 33.8278C59.0005 32.8352 59.2195 31.9591 59.6576 31.2005C60.0956 30.442 60.6934 29.8552 61.453 29.4403C62.2115 29.0263 63.0585 28.8184 63.9928 28.8184C64.9272 28.8184 65.7732 29.0253 66.5327 29.4403C67.2913 29.8552 67.8901 30.442 68.3281 31.2005C68.7662 31.9601 68.9852 32.8352 68.9852 33.8278C68.9852 34.8204 68.7601 35.6965 68.311 36.4551C67.8609 37.2146 67.2541 37.8014 66.4895 38.2153C65.7249 38.6303 64.8689 38.8372 63.9235 38.8372C62.9781 38.8372 62.1482 38.6303 61.4007 38.2153H61.3997ZM65.1744 36.3757C65.5652 36.1597 65.8777 35.8362 66.1118 35.4032C66.3449 34.9711 66.4624 34.4457 66.4624 33.8268C66.4624 32.9045 66.2203 32.1952 65.735 31.6988C65.2507 31.2025 64.658 30.9544 63.9567 30.9544C63.2554 30.9544 62.6697 31.2025 62.1964 31.6988C61.7232 32.1952 61.4871 32.9045 61.4871 33.8268C61.4871 34.7491 61.7172 35.4584 62.1794 35.9547C62.6405 36.4511 63.2212 36.6992 63.9225 36.6992C64.3666 36.6992 64.7835 36.5917 65.1754 36.3747L65.1744 36.3757Z" fill="#9198B0"/>
<path d="M72.5755 38.2153C71.828 37.8014 71.2413 37.2136 70.8153 36.4551C70.3893 35.6965 70.1763 34.8204 70.1763 33.8278C70.1763 32.8352 70.3953 31.9591 70.8333 31.2005C71.2714 30.442 71.8692 29.8552 72.6287 29.4403C73.3873 29.0263 74.2343 28.8184 75.1686 28.8184C76.103 28.8184 76.949 29.0253 77.7085 29.4403C78.4671 29.8552 79.0659 30.442 79.5039 31.2005C79.942 31.9601 80.161 32.8352 80.161 33.8278C80.161 34.8204 79.9359 35.6965 79.4868 36.4551C79.0367 37.2146 78.4299 37.8014 77.6653 38.2153C76.9007 38.6303 76.0447 38.8372 75.0993 38.8372C74.1539 38.8372 73.324 38.6303 72.5765 38.2153H72.5755ZM76.3502 36.3757C76.741 36.1597 77.0534 35.8362 77.2875 35.4032C77.5206 34.9711 77.6382 34.4457 77.6382 33.8268C77.6382 32.9045 77.3961 32.1952 76.9108 31.6988C76.4265 31.2025 75.8337 30.9544 75.1325 30.9544C74.4312 30.9544 73.8454 31.2025 73.3722 31.6988C72.899 32.1952 72.6629 32.9045 72.6629 33.8268C72.6629 34.7491 72.893 35.4584 73.3551 35.9547C73.8163 36.4511 74.397 36.6992 75.0983 36.6992C75.5424 36.6992 75.9593 36.5917 76.3512 36.3747L76.3502 36.3757Z" fill="#9198B0"/>
<path d="M87.6759 29.2464C88.2245 29.5327 88.6565 29.9035 88.972 30.3586V28.9751H91.4415V38.7499C91.4415 39.6491 91.2607 40.4518 90.899 41.1581C90.5373 41.8644 89.9938 42.4251 89.2704 42.84C88.546 43.2539 87.6699 43.4619 86.6431 43.4619C85.2646 43.4619 84.1354 43.1404 83.2532 42.4984C82.3711 41.8564 81.8718 40.9803 81.7552 39.8711H84.1896C84.3182 40.3152 84.5955 40.6678 85.0215 40.9311C85.4475 41.1943 85.9649 41.3249 86.5718 41.3249C87.2841 41.3249 87.8618 41.1119 88.3059 40.6859C88.7499 40.2599 88.971 39.6139 88.971 38.7499V37.2438C88.6555 37.6989 88.2205 38.0787 87.6659 38.3821C87.1113 38.6856 86.4773 38.8373 85.765 38.8373C84.9472 38.8373 84.1997 38.6273 83.5225 38.2063C82.8453 37.7863 82.3108 37.1936 81.92 36.428C81.5282 35.6634 81.3333 34.7843 81.3333 33.7917C81.3333 32.799 81.5292 31.941 81.92 31.1814C82.3108 30.4229 82.8423 29.8392 83.5145 29.4303C84.1856 29.0213 84.9361 28.8174 85.765 28.8174C86.4894 28.8174 87.1253 28.96 87.6739 29.2464H87.6759ZM88.6213 32.2947C88.3873 31.8687 88.0718 31.5411 87.6749 31.3141C87.2781 31.086 86.8521 30.9725 86.3959 30.9725C85.9398 30.9725 85.5198 31.084 85.135 31.305C84.7492 31.5271 84.4368 31.8506 84.1977 32.2776C83.9585 32.7036 83.839 33.2089 83.839 33.7927C83.839 34.3764 83.9585 34.8878 84.1977 35.3258C84.4368 35.7639 84.7522 36.0995 85.1431 36.3335C85.5339 36.5676 85.9519 36.6842 86.3959 36.6842C86.84 36.6842 87.2771 36.5707 87.6749 36.3426C88.0718 36.1145 88.3873 35.788 88.6213 35.362C88.8544 34.936 88.972 34.4246 88.972 33.8288C88.972 33.233 88.8554 32.7227 88.6213 32.2957V32.2947Z" fill="#9198B0"/>
<path d="M96.2938 25.7168V38.6794H93.8413V25.7168H96.2938Z" fill="#9198B0"/>
<path d="M107.662 34.5632H100.567C100.626 35.2635 100.871 35.8131 101.303 36.2099C101.735 36.6068 102.266 36.8057 102.897 36.8057C103.809 36.8057 104.457 36.4149 104.841 35.6322H107.487C107.207 36.5666 106.669 37.3342 105.875 37.936C105.081 38.5378 104.106 38.8382 102.95 38.8382C102.015 38.8382 101.177 38.6312 100.436 38.2163C99.6944 37.8024 99.1157 37.2146 98.7017 36.4561C98.2868 35.6975 98.0798 34.8214 98.0798 33.8288C98.0798 32.8361 98.2838 31.943 98.6927 31.1834C99.1016 30.4248 99.6733 29.8411 100.41 29.4322C101.145 29.0233 101.992 28.8193 102.95 28.8193C103.907 28.8193 104.698 29.0183 105.428 29.4151C106.158 29.812 106.724 30.3756 107.127 31.105C107.53 31.8354 107.732 32.6724 107.732 33.6188C107.732 33.9694 107.709 34.2849 107.662 34.5642V34.5632ZM105.192 32.9165C105.18 32.2856 104.953 31.7812 104.509 31.4014C104.065 31.0216 103.522 30.8318 102.88 30.8318C102.272 30.8318 101.762 31.0156 101.347 31.3833C100.932 31.7511 100.679 32.2624 100.586 32.9165H105.192Z" fill="#9198B0"/>
<path d="M122.14 32.0755C121.83 32.6481 121.345 33.1093 120.686 33.4589C120.026 33.8096 119.194 33.9844 118.19 33.9844H116.141V38.6794H113.688V26.4521H118.19C119.136 26.4521 119.941 26.6159 120.607 26.9424C121.273 27.27 121.772 27.7191 122.105 28.2907C122.438 28.8634 122.605 29.5115 122.605 30.2348C122.605 30.8889 122.45 31.5018 122.141 32.0745L122.14 32.0755ZM119.591 31.541C119.917 31.2315 120.081 30.7965 120.081 30.2359C120.081 29.0443 119.415 28.4495 118.084 28.4495H116.14V32.0051H118.084C118.761 32.0051 119.263 31.8504 119.59 31.541H119.591Z" fill="#9198B0"/>
<path d="M126.79 25.7168V38.6794H124.338V25.7168H126.79Z" fill="#9198B0"/>
<path d="M129.164 31.1824C129.555 30.4239 130.086 29.8401 130.758 29.4312C131.429 29.0223 132.18 28.8184 133.009 28.8184C133.733 28.8184 134.366 28.964 134.91 29.2564C135.452 29.5488 135.887 29.9165 136.215 30.3596V28.9761H138.684V38.6805H136.215V37.2619C135.899 37.717 135.464 38.0938 134.91 38.3922C134.355 38.6895 133.715 38.8392 132.992 38.8392C132.174 38.8392 131.429 38.6293 130.758 38.2083C130.086 37.7883 129.556 37.1956 129.164 36.43C128.772 35.6654 128.577 34.7863 128.577 33.7936C128.577 32.801 128.773 31.943 129.164 31.1834V31.1824ZM135.864 32.2946C135.63 31.8686 135.315 31.5411 134.918 31.314C134.521 31.086 134.095 30.9724 133.639 30.9724C133.183 30.9724 132.763 31.084 132.378 31.305C131.992 31.527 131.68 31.8505 131.441 32.2775C131.201 32.7035 131.082 33.2089 131.082 33.7926C131.082 34.3764 131.201 34.8878 131.441 35.3258C131.68 35.7639 131.995 36.0994 132.386 36.3335C132.777 36.5676 133.195 36.6842 133.639 36.6842C134.083 36.6842 134.52 36.5706 134.918 36.3426C135.315 36.1145 135.63 35.788 135.864 35.362C136.097 34.936 136.215 34.4246 136.215 33.8288C136.215 33.233 136.098 32.7226 135.864 32.2956V32.2946Z" fill="#9198B0"/>
<path d="M150.368 28.9746L144.36 43.2685H141.75L143.851 38.4339L139.962 28.9746H142.712L145.217 35.7533L147.757 28.9746H150.367H150.368Z" fill="#9198B0"/>
<path d="M10.8797 10.6826C10.4266 11.2221 10.1453 11.9224 10.1453 12.7202V36.7174C10.1453 37.3494 10.3221 37.9201 10.6205 38.3983L23.2837 24.4691L10.8797 10.6826Z" fill="#4285F5"/>
<path d="M29.0508 18.1255L14.9177 9.9653C13.488 9.13944 11.8171 9.56644 10.8798 10.6827L23.2838 24.4692L29.0518 18.1245L29.0508 18.1255Z" fill="#00AE45"/>
<path d="M29.0508 18.1255L14.9177 9.9653C13.488 9.13944 11.8171 9.56644 10.8798 10.6827L23.2838 24.4692L29.0518 18.1245L29.0508 18.1255Z" fill="#00AE45"/>
<path d="M14.918 39.4729L29.3073 31.1651L23.2831 24.4697L10.6199 38.3989C11.4779 39.7733 13.3436 40.3812 14.917 39.4729H14.918Z" fill="#00AE45"/>
<path d="M14.918 39.4729L29.3073 31.1651L23.2831 24.4697L10.6199 38.3989C11.4779 39.7733 13.3436 40.3812 14.917 39.4729H14.918Z" fill="#EB4132"/>
<path d="M29.307 31.166L35.6999 27.4747C37.8209 26.25 37.8209 23.1887 35.6999 21.964L29.0508 18.125L23.2828 24.4697L29.307 31.165V31.166Z" fill="#00AE45"/>
<path opacity="0.54" d="M29.307 31.166L35.6999 27.4747C37.8209 26.25 37.8209 23.1887 35.6999 21.964L29.0508 18.125L23.2828 24.4697L29.307 31.165V31.166Z" fill="#FFF200"/>
<path d="M29.307 31.166L35.6999 27.4747C37.8209 26.25 37.8209 23.1887 35.6999 21.964L29.0508 18.125L23.2828 24.4697L29.307 31.165V31.166Z" fill="#FFBB00"/>
<path d="M46.51 9.24H55.49V10.45H46.51V9.24ZM50.14 10.33H51.43V17.88H50.14V10.33ZM50.82 12.75L51.64 11.8C52.73 12.34 54.3 13.21 55.07 13.83L54.18 14.93C53.47 14.3 51.95 13.36 50.82 12.75ZM63.36 9.15L64.23 8.61C64.65 9.01 65.17 9.58 65.41 9.97L64.48 10.58C64.27 10.19 63.77 9.59 63.36 9.15ZM56.45 10.68H65.56V11.61H56.45V10.68ZM56.95 9.19H61.42V10.1H56.95V9.19ZM58.64 8.51H59.78V11.2H58.64V8.51ZM61.92 8.52H63.1C62.99 12.79 63.56 16.66 64.48 16.66C64.67 16.66 64.76 16.25 64.82 15.2C65.05 15.47 65.44 15.72 65.72 15.84C65.55 17.39 65.2 17.81 64.37 17.81C62.33 17.81 61.92 13.28 61.92 8.52ZM64.19 12.05L65.26 12.35C64.58 14.72 63.46 16.67 61.79 17.97C61.61 17.71 61.26 17.36 60.98 17.14C62.53 16.07 63.62 14.22 64.19 12.05ZM56.59 12.37H61.7V13.31H56.59V12.37ZM59.07 13.52H60.18V17.86H59.07V13.52ZM57.05 15.26C56.99 15.03 56.82 14.5 56.68 14.21C56.86 14.16 57.03 13.98 57.2 13.72C57.39 13.45 57.94 12.47 58.25 11.51L59.41 11.82C58.95 12.88 58.28 13.98 57.69 14.68V14.71C57.69 14.71 57.05 15.05 57.05 15.26ZM57.05 15.26V14.42L57.57 14.11H61.57L61.56 15.1H57.88C57.49 15.1 57.14 15.16 57.05 15.26ZM56.54 15.91C57.83 15.84 59.84 15.69 61.74 15.55L61.73 16.51C59.92 16.69 58 16.86 56.65 16.98L56.54 15.91ZM66.8 9.38L67.57 8.65C68.11 9.1 68.84 9.74 69.18 10.17L68.36 11C68.05 10.56 67.34 9.87 66.8 9.38ZM67.63 17.8L67.37 16.7L67.61 16.32L69.57 14.83C69.65 15.15 69.83 15.62 69.96 15.86C68.14 17.28 67.81 17.56 67.63 17.8ZM66.34 11.59H68.31V12.74H66.34V11.59ZM67.63 17.8C67.54 17.52 67.25 17.02 67.05 16.79C67.27 16.64 67.56 16.3 67.56 15.84V11.59H68.71V16.65C68.71 16.65 67.63 17.38 67.63 17.8ZM71.04 14.31H74.12V15.08H71.04V14.31ZM69.76 9.19H75.36V10.05H69.76V9.19ZM70.03 10.45H75.06V11.26H70.03V10.45ZM69.45 11.68H75.68V12.54H69.45V11.68ZM71.02 15.64H74.11V16.44H71.02V15.64ZM70.13 12.93H74.1V13.8H71.24V17.91H70.13V12.93ZM73.85 12.93H74.99V16.75C74.99 17.27 74.89 17.56 74.52 17.72C74.17 17.89 73.67 17.9 72.97 17.9C72.93 17.6 72.79 17.16 72.65 16.88C73.06 16.9 73.54 16.9 73.67 16.89C73.8 16.89 73.85 16.85 73.85 16.73V12.93ZM71.94 8.51H73.13V11.96H71.94V8.51ZM76.45 9.99H85.55V11.08H76.45V9.99ZM77.63 13.4H80.23V14.28H77.63V13.4ZM77.63 14.93H80.23V15.82H77.63V14.93ZM81.82 11.87H82.93V15.97H81.82V11.87ZM79.81 11.77H80.97V16.72C80.97 17.23 80.87 17.51 80.53 17.68C80.2 17.86 79.74 17.87 79.12 17.87C79.06 17.57 78.89 17.13 78.74 16.85C79.11 16.87 79.52 16.87 79.64 16.86C79.77 16.86 79.81 16.82 79.81 16.7V11.77ZM83.83 11.6H85.01V16.59C85.01 17.17 84.9 17.48 84.5 17.66C84.12 17.84 83.58 17.88 82.84 17.87C82.78 17.55 82.59 17.04 82.42 16.73C82.93 16.76 83.45 16.76 83.62 16.75C83.78 16.75 83.83 16.71 83.83 16.57V11.6ZM77.83 8.9L78.97 8.5C79.33 8.89 79.73 9.42 79.9 9.8L78.69 10.23C78.55 9.87 78.18 9.3 77.83 8.9ZM82.96 8.48L84.27 8.87C83.86 9.51 83.42 10.15 83.07 10.59L81.99 10.22C82.33 9.75 82.74 9.02 82.96 8.48ZM77 11.77H80.15V12.77H78.13V17.84H77V11.77ZM88.54 10.73L89.59 11.16C88.9 12.39 87.79 13.72 86.79 14.55C86.7 14.28 86.4 13.6 86.22 13.31C87.06 12.68 87.98 11.7 88.54 10.73ZM88.27 8.52L89.41 8.97C88.79 9.9 87.84 10.88 86.95 11.5C86.82 11.23 86.53 10.73 86.35 10.49C87.08 10.01 87.89 9.19 88.27 8.52ZM87.55 12.99L88.72 11.81L88.78 11.85V17.9H87.55V12.99ZM89.93 13.28H95.07V14.43H89.93V13.28ZM89.28 16.47H95.64V17.61H89.28V16.47ZM89.59 10.37H95.38V11.51H89.59V10.37ZM91.93 11.03H93.18V16.95H91.93V11.03ZM91.46 8.84L92.56 8.46C92.86 8.95 93.21 9.59 93.34 10.03L92.17 10.45C92.06 10.03 91.75 9.35 91.46 8.84Z" fill="#9198B0"/>
</svg>
