<svg width="24" height="25" viewBox="0 0 24 25" fill="none" xmlns="http://www.w3.org/2000/svg">
<g id="Vector">
<path id="Vector_2" d="M12 10.6263V15.2736H18.4582C18.1746 16.7682 17.3236 18.0337 16.0472 18.8846L19.9417 21.9064C22.2108 19.8119 23.5199 16.7355 23.5199 13.081C23.5199 12.2301 23.4436 11.4119 23.3017 10.6265L12 10.6263Z" fill="white"/>
<path id="Vector_3" d="M5.27461 15.0922L4.39625 15.7646L1.28711 18.1864C3.26165 22.1027 7.30862 24.8082 11.9995 24.8082C15.2394 24.8082 17.9557 23.7391 19.9412 21.9064L16.0467 18.8846C14.9776 19.6046 13.614 20.041 11.9995 20.041C8.87951 20.041 6.22868 17.9355 5.27952 15.0992L5.27461 15.0922Z" fill="white"/>
<path id="Vector_4" d="M1.28718 7.43005C0.469042 9.04453 0 10.8664 0 12.8082C0 14.7499 0.469042 16.5718 1.28718 18.1863C1.28718 18.1971 5.27997 15.0881 5.27997 15.0881C5.03998 14.3681 4.89812 13.6045 4.89812 12.808C4.89812 12.0116 5.03998 11.248 5.27997 10.528L1.28718 7.43005Z" fill="white"/>
<path id="Vector_5" d="M11.9997 5.58641C13.767 5.58641 15.3379 6.1973 16.5925 7.3755L20.0288 3.93918C17.9452 1.99739 15.2398 0.808228 11.9997 0.808228C7.30887 0.808228 3.26165 3.50277 1.28711 7.43005L5.27978 10.5282C6.22882 7.69184 8.87976 5.58641 11.9997 5.58641Z" fill="white"/>
</g>
</svg>
