<svg width="24" height="25" viewBox="0 0 24 25" fill="none" xmlns="http://www.w3.org/2000/svg">
<g id="Social Icons" clip-path="url(#clip0_76_577)">
<path id="Vector" d="M12 2.96916C15.2063 2.96916 15.5859 2.98323 16.8469 3.03948C18.0188 3.09104 18.6516 3.28792 19.0734 3.45198C19.6313 3.6676 20.0344 3.9301 20.4516 4.34729C20.8734 4.76917 21.1313 5.1676 21.3469 5.72542C21.5109 6.14729 21.7078 6.78479 21.7594 7.95198C21.8156 9.2176 21.8297 9.59729 21.8297 12.7989C21.8297 16.0051 21.8156 16.3848 21.7594 17.6457C21.7078 18.8176 21.5109 19.4504 21.3469 19.8723C21.1313 20.4301 20.8687 20.8332 20.4516 21.2504C20.0297 21.6723 19.6313 21.9301 19.0734 22.1457C18.6516 22.3098 18.0141 22.5067 16.8469 22.5582C15.5813 22.6145 15.2016 22.6285 12 22.6285C8.79375 22.6285 8.41406 22.6145 7.15313 22.5582C5.98125 22.5067 5.34844 22.3098 4.92656 22.1457C4.36875 21.9301 3.96563 21.6676 3.54844 21.2504C3.12656 20.8285 2.86875 20.4301 2.65313 19.8723C2.48906 19.4504 2.29219 18.8129 2.24063 17.6457C2.18438 16.3801 2.17031 16.0004 2.17031 12.7989C2.17031 9.5926 2.18438 9.21291 2.24063 7.95198C2.29219 6.7801 2.48906 6.14729 2.65313 5.72542C2.86875 5.1676 3.13125 4.76448 3.54844 4.34729C3.97031 3.92542 4.36875 3.6676 4.92656 3.45198C5.34844 3.28792 5.98594 3.09104 7.15313 3.03948C8.41406 2.98323 8.79375 2.96916 12 2.96916ZM12 0.808228C8.74219 0.808228 8.33438 0.82229 7.05469 0.87854C5.77969 0.93479 4.90313 1.14104 4.14375 1.43635C3.35156 1.74573 2.68125 2.15354 2.01563 2.82385C1.34531 3.48948 0.9375 4.15979 0.628125 4.94729C0.332812 5.71135 0.126563 6.58323 0.0703125 7.85823C0.0140625 9.1426 0 9.55042 0 12.8082C0 16.066 0.0140625 16.4739 0.0703125 17.7535C0.126563 19.0285 0.332812 19.9051 0.628125 20.6645C0.9375 21.4567 1.34531 22.127 2.01563 22.7926C2.68125 23.4582 3.35156 23.8707 4.13906 24.1754C4.90313 24.4707 5.775 24.677 7.05 24.7332C8.32969 24.7895 8.7375 24.8035 11.9953 24.8035C15.2531 24.8035 15.6609 24.7895 16.9406 24.7332C18.2156 24.677 19.0922 24.4707 19.8516 24.1754C20.6391 23.8707 21.3094 23.4582 21.975 22.7926C22.6406 22.127 23.0531 21.4567 23.3578 20.6692C23.6531 19.9051 23.8594 19.0332 23.9156 17.7582C23.9719 16.4785 23.9859 16.0707 23.9859 12.8129C23.9859 9.5551 23.9719 9.14729 23.9156 7.8676C23.8594 6.5926 23.6531 5.71604 23.3578 4.95667C23.0625 4.15979 22.6547 3.48948 21.9844 2.82385C21.3188 2.15823 20.6484 1.74573 19.8609 1.44104C19.0969 1.14573 18.225 0.939478 16.95 0.883228C15.6656 0.82229 15.2578 0.808228 12 0.808228Z" fill="white"/>
<path id="Vector_2" d="M12 6.64417C8.59688 6.64417 5.83594 9.4051 5.83594 12.8082C5.83594 16.2114 8.59688 18.9723 12 18.9723C15.4031 18.9723 18.1641 16.2114 18.1641 12.8082C18.1641 9.4051 15.4031 6.64417 12 6.64417ZM12 16.8067C9.79219 16.8067 8.00156 15.016 8.00156 12.8082C8.00156 10.6004 9.79219 8.80979 12 8.80979C14.2078 8.80979 15.9984 10.6004 15.9984 12.8082C15.9984 15.016 14.2078 16.8067 12 16.8067Z" fill="white"/>
<path id="Vector_3" d="M19.8469 6.40037C19.8469 7.19724 19.2 7.83943 18.4078 7.83943C17.6109 7.83943 16.9688 7.19256 16.9688 6.40037C16.9688 5.60349 17.6156 4.9613 18.4078 4.9613C19.2 4.9613 19.8469 5.60818 19.8469 6.40037Z" fill="white"/>
</g>
<defs>
<clipPath id="clip0_76_577">
<rect width="24" height="24" fill="white" transform="translate(0 0.808228)"/>
</clipPath>
</defs>
</svg>
