<?xml version="1.0" ?><!DOCTYPE svg  PUBLIC '-//W3C//DTD SVG 1.1//EN'  'http://www.w3.org/Graphics/SVG/1.1/DTD/svg11.dtd'><svg height="512px" style="enable-background:new 0 0 512 512;" version="1.1" viewBox="0 0 512 512" width="512px" xml:space="preserve" xmlns="http://www.w3.org/2000/svg" xmlns:xlink="http://www.w3.org/1999/xlink"><g id="_x31_85-joget"><g><path d="M376.643,60.322c-37.556-23.274-79.283-34.31-120.457-34.31    c-77.151,0-152.448,38.854-195.94,109.33c-66.673,108.124-33.012,249.724,75.112,316.396    c108.125,66.675,249.726,33.014,316.397-75.018C518.428,268.596,484.767,126.903,376.643,60.322z M424.678,360.029    c-37.463,60.736-102.375,94.121-168.771,94.121c-6.306,0-12.612-0.372-18.917-0.927c-8.346-12.611-18.453-30.879-21.977-39.317    c-5.286-12.706-25.224-42.286,28.932-62.223c47.941-17.712,163.855-15.302,193.622-16.321    C433.857,343.708,429.593,351.961,424.678,360.029z M238.475,280.001c-51.466-1.299-75.763-19.286-54.249-44.695    c21.515-25.409,47.387-37.741,63.893-47.479c16.599-9.736,25.315-31.25-21.885-27.542    c-119.252,8.067-155.139,92.082-165.34,130.009c-8.159-46.088-0.091-95.234,26.43-138.261    c57.399-93.194,179.434-122.126,272.629-64.727c69.362,42.749,103.116,121.385,92.08,197.239    C428.943,284.082,285.767,281.208,238.475,280.001z" style="fill:#98C93C;"/><path d="M408.913,229.185c-21.051-5.563-52.855,10.479-80.397,25.224    c-27.54,14.651-28.84,7.604-28.84,7.604s37.279-26.058,47.015-31.993c9.738-5.935,29.581-12.983,12.426-22.812    c-2.967-1.669-6.212-2.503-9.645-2.503c-16.506,0-38.481,17.34-62.593,33.011c-29.21,19.01-60.553,29.026-60.553,29.026    l157.179-1.483l43.12-21.7C426.625,243.559,429.964,234.749,408.913,229.185L408.913,229.185z" style="fill:#699540;"/></g></g><g id="Layer_1"/></svg>