<svg width="24" height="25" viewBox="0 0 24 25" fill="none" xmlns="http://www.w3.org/2000/svg">
<g id="Social Icons" clip-path="url(#clip0_76_578)">
<path id="Vector" d="M22.2234 0.808228H1.77187C0.792187 0.808228 0 1.58167 0 2.53792V23.0739C0 24.0301 0.792187 24.8082 1.77187 24.8082H22.2234C23.2031 24.8082 24 24.0301 24 23.0785V2.53792C24 1.58167 23.2031 0.808228 22.2234 0.808228ZM7.12031 21.2598H3.55781V9.80354H7.12031V21.2598ZM5.33906 8.2426C4.19531 8.2426 3.27188 7.31916 3.27188 6.1801C3.27188 5.04104 4.19531 4.1176 5.33906 4.1176C6.47813 4.1176 7.40156 5.04104 7.40156 6.1801C7.40156 7.31448 6.47813 8.2426 5.33906 8.2426ZM20.4516 21.2598H16.8937V15.691C16.8937 14.3645 16.8703 12.6535 15.0422 12.6535C13.1906 12.6535 12.9094 14.102 12.9094 15.5973V21.2598H9.35625V9.80354H12.7687V11.3692H12.8156C13.2891 10.4692 14.4516 9.5176 16.1813 9.5176C19.7859 9.5176 20.4516 11.8895 20.4516 14.9739V21.2598Z" fill="white"/>
</g>
<defs>
<clipPath id="clip0_76_578">
<rect width="24" height="24" fill="white" transform="translate(0 0.808228)"/>
</clipPath>
</defs>
</svg>
