<svg width="248" height="249" viewBox="0 0 248 249" fill="none" xmlns="http://www.w3.org/2000/svg">
<circle cx="123.588" cy="124.586" r="123.588" fill="#FF8232"/>
<g clip-path="url(#clip0_2371_84479)">
<path d="M150.564 73.3252C149.989 73.3252 149.41 73.4681 148.88 73.7742C147.264 74.7064 146.713 76.7679 147.645 78.3838L167.879 113.427C168.811 115.039 170.873 115.594 172.485 114.658C173.02 114.352 173.431 113.92 173.717 113.427L193.951 78.3804C194.237 77.8838 194.404 77.3088 194.404 76.6965C194.404 74.8322 192.893 73.3252 191.033 73.3252H150.564V73.3252Z" fill="white"/>
<path d="M126.506 195.199C126.156 195.804 125.649 196.257 125.064 196.542C124.091 197.019 122.907 197.015 121.9 196.43C121.369 196.124 120.954 195.692 120.668 195.195L53.2254 78.3804C52.9362 77.8838 52.7695 77.3088 52.7695 76.6965C52.7695 74.8322 54.28 73.3252 56.1408 73.3252H103.353C103.924 73.3252 104.506 73.4681 105.04 73.7776C105.574 74.0838 105.989 74.5159 106.271 75.0125L150.112 150.94C150.398 151.436 150.564 152.011 150.564 152.627C150.564 153.243 150.398 153.818 150.112 154.311L126.509 195.199H126.506Z" fill="white"/>
</g>
<defs>
<clipPath id="clip0_2371_84479">
<rect width="141.635" height="123.561" fill="white" transform="translate(52.7695 73.3252)"/>
</clipPath>
</defs>
</svg>
