<svg width="42" height="44" viewBox="0 0 42 44" fill="none" xmlns="http://www.w3.org/2000/svg">
<circle cx="20.9143" cy="20.6152" r="16.9231" fill="url(#paint0_linear_671_6912)"/>
<circle cx="20.9143" cy="20.6152" r="16.4231" stroke="url(#paint1_linear_671_6912)"/>
<circle cx="20.9143" cy="20.6152" r="16.4231" stroke="url(#paint2_linear_671_6912)" stroke-opacity="0.24"/>
<circle cx="20.9141" cy="20.6153" r="12.3077" fill="#65574C"/>
<circle cx="20.9141" cy="20.6153" r="11.8077" stroke="url(#paint3_linear_671_6912)" stroke-opacity="0.12"/>
<circle cx="20.9141" cy="20.6153" r="11.8077" stroke="url(#paint4_linear_671_6912)" stroke-opacity="0.48"/>
<g filter="url(#filter0_d_671_6912)">
<path fill-rule="evenodd" clip-rule="evenodd" d="M29.1208 22.6541C26.2596 23.6185 23.2379 23.1602 21.2484 21.1707C18.2444 18.1667 18.7315 12.8092 22.3363 9.20432C22.5852 8.95543 22.8424 8.72139 23.1067 8.50234C22.3952 8.37441 21.6625 8.30762 20.9141 8.30762C14.1442 8.30762 8.65098 13.7735 8.60672 20.533C8.60654 20.5604 8.60645 20.5878 8.60645 20.6153C8.60645 21.9729 8.82627 23.2792 9.23226 24.5005C9.25264 24.5618 9.27349 24.6229 9.2948 24.6838C9.31981 24.7552 9.34545 24.8263 9.37173 24.8971C9.41328 25.0091 9.45641 25.1203 9.5011 25.2307C10.041 26.5645 10.808 27.7822 11.7541 28.8357C13.6159 30.428 16.0033 31.3845 18.6065 31.3845C23.7506 31.3845 28.0524 27.649 29.1208 22.6541Z" fill="url(#paint5_linear_671_6912)"/>
</g>
<path d="M9.10671 20.5363L8.60672 20.533L9.10671 20.5363C9.14917 14.0515 14.4193 8.80762 20.9141 8.80762C21.273 8.80762 21.6281 8.82361 21.9786 8.85492C18.2453 12.592 17.6392 18.2686 20.8949 21.5243C22.8429 23.4723 25.6767 24.0359 28.421 23.3758C27.1254 27.7341 23.212 30.8845 18.6065 30.8845C16.1404 30.8845 13.8765 29.9832 12.1041 28.477C11.2063 27.4717 10.4782 26.312 9.96457 25.0431C9.92171 24.9372 9.88034 24.8306 9.84049 24.7232C9.81529 24.6553 9.79069 24.5871 9.76671 24.5186C9.74627 24.4602 9.72627 24.4016 9.70673 24.3428L9.23284 24.5003L9.70673 24.3428C9.31743 23.1717 9.10645 21.9187 9.10645 20.6153L9.10671 20.5363Z" stroke="url(#paint6_linear_671_6912)"/>
<path d="M9.10671 20.5363L8.60672 20.533L9.10671 20.5363C9.14917 14.0515 14.4193 8.80762 20.9141 8.80762C21.273 8.80762 21.6281 8.82361 21.9786 8.85492C18.2453 12.592 17.6392 18.2686 20.8949 21.5243C22.8429 23.4723 25.6767 24.0359 28.421 23.3758C27.1254 27.7341 23.212 30.8845 18.6065 30.8845C16.1404 30.8845 13.8765 29.9832 12.1041 28.477C11.2063 27.4717 10.4782 26.312 9.96457 25.0431C9.92171 24.9372 9.88034 24.8306 9.84049 24.7232C9.81529 24.6553 9.79069 24.5871 9.76671 24.5186C9.74627 24.4602 9.72627 24.4016 9.70673 24.3428L9.23284 24.5003L9.70673 24.3428C9.31743 23.1717 9.10645 21.9187 9.10645 20.6153L9.10671 20.5363Z" stroke="url(#paint7_linear_671_6912)" stroke-opacity="0.12"/>
<defs>
<filter id="filter0_d_671_6912" x="4.60645" y="4.30762" width="36.5146" height="39.0769" filterUnits="userSpaceOnUse" color-interpolation-filters="sRGB">
<feFlood flood-opacity="0" result="BackgroundImageFix"/>
<feColorMatrix in="SourceAlpha" type="matrix" values="0 0 0 0 0 0 0 0 0 0 0 0 0 0 0 0 0 0 127 0" result="hardAlpha"/>
<feOffset dx="4" dy="4"/>
<feGaussianBlur stdDeviation="4"/>
<feComposite in2="hardAlpha" operator="out"/>
<feColorMatrix type="matrix" values="0 0 0 0 1 0 0 0 0 1 0 0 0 0 1 0 0 0 0.48 0"/>
<feBlend mode="overlay" in2="BackgroundImageFix" result="effect1_dropShadow_671_6912"/>
<feBlend mode="normal" in="SourceGraphic" in2="effect1_dropShadow_671_6912" result="shape"/>
</filter>
<linearGradient id="paint0_linear_671_6912" x1="29.7604" y1="5.99983" x2="12.4528" y2="34.4614" gradientUnits="userSpaceOnUse">
<stop stop-color="#EBDDA4"/>
<stop offset="0.152729" stop-color="#F0D390"/>
<stop offset="0.44" stop-color="#FAEDC8"/>
<stop offset="0.768363" stop-color="#E6C88E"/>
<stop offset="1" stop-color="#E6BD81"/>
</linearGradient>
<linearGradient id="paint1_linear_671_6912" x1="12.0681" y1="7.15368" x2="22.4527" y2="21.3844" gradientUnits="userSpaceOnUse">
<stop stop-color="white"/>
<stop offset="1" stop-color="white" stop-opacity="0"/>
</linearGradient>
<linearGradient id="paint2_linear_671_6912" x1="22.8374" y1="22.9229" x2="31.2989" y2="33.3075" gradientUnits="userSpaceOnUse">
<stop stop-opacity="0"/>
<stop offset="1"/>
</linearGradient>
<linearGradient id="paint3_linear_671_6912" x1="20.1449" y1="20.6153" x2="28.2218" y2="29.4615" gradientUnits="userSpaceOnUse">
<stop stop-color="white" stop-opacity="0"/>
<stop offset="1" stop-color="white"/>
</linearGradient>
<linearGradient id="paint4_linear_671_6912" x1="13.9911" y1="10.6153" x2="22.068" y2="21.3845" gradientUnits="userSpaceOnUse">
<stop/>
<stop offset="1" stop-opacity="0"/>
</linearGradient>
<linearGradient id="paint5_linear_671_6912" x1="22.8372" y1="8.30762" x2="13.2218" y2="28.3076" gradientUnits="userSpaceOnUse">
<stop stop-color="#FEF9CB"/>
<stop offset="1" stop-color="#FADFAA"/>
</linearGradient>
<linearGradient id="paint6_linear_671_6912" x1="13.5019" y1="10.6678" x2="21.2512" y2="20.5139" gradientUnits="userSpaceOnUse">
<stop stop-color="white"/>
<stop offset="1" stop-color="white" stop-opacity="0"/>
</linearGradient>
<linearGradient id="paint7_linear_671_6912" x1="22.8372" y1="24.4615" x2="22.8237" y2="31.0015" gradientUnits="userSpaceOnUse">
<stop stop-opacity="0"/>
<stop offset="1"/>
</linearGradient>
</defs>
</svg>
