<svg width="52" height="52" viewBox="0 0 52 52" fill="none" xmlns="http://www.w3.org/2000/svg">
<g id="Content" filter="url(#filter0_dd_388_28)">
<g id="Frame">
<path id="Vector" d="M22 5.3094C24.4752 3.88034 27.5248 3.88034 30 5.3094L41.9186 12.1906C44.3938 13.6197 45.9186 16.2607 45.9186 19.1188V32.8812C45.9186 35.7393 44.3938 38.3803 41.9186 39.8094L30 46.6906C27.5248 48.1197 24.4752 48.1197 22 46.6906L10.0814 39.8094C7.60621 38.3803 6.08142 35.7393 6.08142 32.8812V19.1188C6.08142 16.2607 7.60621 13.6197 10.0814 12.1906L22 5.3094Z" fill="url(#paint0_linear_388_28)"/>
<path id="Glow" d="M22.25 5.74241C24.5705 4.40267 27.4295 4.40267 29.75 5.74241L41.6686 12.6236C43.9891 13.9634 45.4186 16.4393 45.4186 19.1188V32.8812C45.4186 35.5607 43.9891 38.0366 41.6686 39.3764L29.75 46.2576C27.4295 47.5973 24.5705 47.5973 22.25 46.2576L10.3314 39.3764C8.01091 38.0366 6.58142 35.5607 6.58142 32.8812V19.1188C6.58142 16.4393 8.01091 13.9634 10.3314 12.6236L22.25 5.74241Z" stroke="url(#paint1_linear_388_28)" stroke-opacity="0.72"/>
<path id="Shadow" d="M22.25 5.74241C24.5705 4.40267 27.4295 4.40267 29.75 5.74241L41.6686 12.6236C43.9891 13.9634 45.4186 16.4393 45.4186 19.1188V32.8812C45.4186 35.5607 43.9891 38.0366 41.6686 39.3764L29.75 46.2576C27.4295 47.5973 24.5705 47.5973 22.25 46.2576L10.3314 39.3764C8.01091 38.0366 6.58142 35.5607 6.58142 32.8812V19.1188C6.58142 16.4393 8.01091 13.9634 10.3314 12.6236L22.25 5.74241Z" stroke="url(#paint2_linear_388_28)" stroke-opacity="0.24"/>
<circle id="Vector_2" cx="26" cy="26" r="16" fill="url(#paint3_linear_388_28)"/>
<circle id="Glow_2" cx="26" cy="26" r="15.5" stroke="url(#paint4_linear_388_28)" stroke-opacity="0.16"/>
<circle id="Shadow_2" cx="26" cy="26" r="15.5" stroke="url(#paint5_linear_388_28)" stroke-opacity="0.32"/>
</g>
<g id="Wolf Shadow">
<mask id="mask0_388_28" style="mask-type:alpha" maskUnits="userSpaceOnUse" x="10" y="10" width="32" height="32">
<circle id="Vector_3" cx="26" cy="26" r="16" fill="url(#paint6_linear_388_28)"/>
</mask>
<g mask="url(#mask0_388_28)">
<g id="Vector_4" filter="url(#filter1_f_388_28)">
<path fill-rule="evenodd" clip-rule="evenodd" d="M23.5 21C17.5 23 15 26.5 13.1182 32.888C13.7033 34.3656 14.5021 35.7354 15.4766 36.9591C18.408 40.6404 22.9284 43 28 43C29.7092 43 31.3559 42.732 32.9002 42.2357C26.7103 39.612 27.7488 32.6255 32.9995 30.0001C35.9996 30.5001 39.5 28 41 23C31.9995 22 29 20 26 16C25 16.5 24 19 23.5 21Z" fill="url(#paint7_linear_388_28)" fill-opacity="0.24"/>
</g>
<g id="Vector_5" filter="url(#filter2_d_388_28)">
<path fill-rule="evenodd" clip-rule="evenodd" d="M22.5 16C15.7458 18.7017 11.8301 25.4584 11.1182 31.888C11.7033 33.3656 12.5021 34.7354 13.4766 35.9591C13.4766 35.9591 13.4766 35.9591 13.4766 35.9591C16.4079 39.6404 20.9284 42 26 42C27.7092 42 29.3559 41.732 30.9002 41.2357C24.7103 38.612 25.7488 30.6255 30.9995 28.0001C30.9993 28 30.999 27.9999 30.9988 27.9999C30.999 27.9999 30.9992 27.9999 30.9995 27.9999C33.9995 28.4999 37.0006 28.0001 39 24C29.9995 23 26.5 18.5 25 12C24 12.5 23 14 22.5 16Z" fill="url(#paint8_linear_388_28)"/>
</g>
</g>
</g>
<g id="Wolf">
<path id="Vector_6" fill-rule="evenodd" clip-rule="evenodd" d="M13.4766 35.959C15.0065 32.8244 17.3476 29.8511 20.5 28.5C23 26.9999 27 26.9999 30.9995 27.9999C25.7488 30.6254 24.7103 38.6119 30.9002 41.2356C29.3559 41.7319 27.7092 41.9999 26 41.9999C20.9284 41.9999 16.4079 39.6403 13.4766 35.959Z" fill="url(#paint9_linear_388_28)"/>
<path id="Shadow_3" d="M26.1604 34.5918C26.0272 37.0763 27.0721 39.5697 29.5374 41.0947C28.4016 41.3598 27.2174 41.5001 26 41.5001C21.2009 41.5001 16.9114 39.3196 14.0675 35.8935C15.5713 32.9215 17.7932 30.2043 20.6969 28.9597L20.7281 28.9464L20.7572 28.9289C21.976 28.1976 24.2966 27.1007 26.4105 26.6779C27.4716 26.4657 28.4221 26.4357 29.1415 26.6576C29.7135 26.834 30.1486 27.1695 30.3945 27.7563C27.8296 29.2117 26.3047 31.9003 26.1604 34.5918Z" stroke="url(#paint10_linear_388_28)" stroke-opacity="0.12"/>
<path id="Vector_7" fill-rule="evenodd" clip-rule="evenodd" d="M11.1182 31.888C11.8301 25.4584 15.7458 18.7017 22.5 16C23 14 24 12.5 25 12C26.5 18.5 29.9995 23 39 24C37.0006 28.0001 33.9995 28.4999 30.9995 27.9999C23.6436 27.0805 18.8242 31.2341 16.5412 38.906C14.1314 37.1369 12.2353 34.7091 11.1182 31.888Z" fill="url(#paint11_linear_388_28)"/>
<path id="Flow" d="M21.5602 29.8372C19.1938 31.6859 17.4428 34.5017 16.2775 38.0723C14.24 36.4292 12.6272 34.2812 11.6292 31.8192C12.3622 25.5654 16.1843 19.0648 22.6857 16.4642L22.9231 16.3693L22.9851 16.1213C23.2237 15.1668 23.5791 14.3427 23.9843 13.7059C24.2146 13.344 24.4543 13.0529 24.6893 12.8327C25.4695 15.8331 26.7274 18.4303 28.8443 20.4263C31.0075 22.4659 34.0208 23.8339 38.212 24.4063C37.3251 25.92 36.2849 26.7751 35.1857 27.2247C33.93 27.7383 32.5341 27.7488 31.0817 27.5067L31.0716 27.5051L31.0615 27.5038C27.2699 27.0299 24.0884 27.8622 21.5602 29.8372Z" stroke="url(#paint12_linear_388_28)"/>
<path id="Shadow_4" d="M21.5602 29.8372C19.1938 31.6859 17.4428 34.5017 16.2775 38.0723C14.24 36.4292 12.6272 34.2812 11.6292 31.8192C12.3622 25.5654 16.1843 19.0648 22.6857 16.4642L22.9231 16.3693L22.9851 16.1213C23.2237 15.1668 23.5791 14.3427 23.9843 13.7059C24.2146 13.344 24.4543 13.0529 24.6893 12.8327C25.4695 15.8331 26.7274 18.4303 28.8443 20.4263C31.0075 22.4659 34.0208 23.8339 38.212 24.4063C37.3251 25.92 36.2849 26.7751 35.1857 27.2247C33.93 27.7383 32.5341 27.7488 31.0817 27.5067L31.0716 27.5051L31.0615 27.5038C27.2699 27.0299 24.0884 27.8622 21.5602 29.8372Z" stroke="url(#paint13_linear_388_28)" stroke-opacity="0.12"/>
</g>
</g>
<defs>
<filter id="filter0_dd_388_28" x="-6" y="-6" width="64" height="64" filterUnits="userSpaceOnUse" color-interpolation-filters="sRGB">
<feFlood flood-opacity="0" result="BackgroundImageFix"/>
<feColorMatrix in="SourceAlpha" type="matrix" values="0 0 0 0 0 0 0 0 0 0 0 0 0 0 0 0 0 0 127 0" result="hardAlpha"/>
<feOffset dx="2" dy="2"/>
<feGaussianBlur stdDeviation="2"/>
<feComposite in2="hardAlpha" operator="out"/>
<feColorMatrix type="matrix" values="0 0 0 0 0.643137 0 0 0 0 0.647059 0 0 0 0 0.678431 0 0 0 0.16 0"/>
<feBlend mode="normal" in2="BackgroundImageFix" result="effect1_dropShadow_388_28"/>
<feColorMatrix in="SourceAlpha" type="matrix" values="0 0 0 0 0 0 0 0 0 0 0 0 0 0 0 0 0 0 127 0" result="hardAlpha"/>
<feOffset dx="-2" dy="-2"/>
<feGaussianBlur stdDeviation="2"/>
<feComposite in2="hardAlpha" operator="out"/>
<feColorMatrix type="matrix" values="0 0 0 0 0.833 0 0 0 0 0.8364 0 0 0 0 0.85 0 0 0 0.2 0"/>
<feBlend mode="normal" in2="effect1_dropShadow_388_28" result="effect2_dropShadow_388_28"/>
<feBlend mode="normal" in="SourceGraphic" in2="effect2_dropShadow_388_28" result="shape"/>
</filter>
<filter id="filter1_f_388_28" x="9.11816" y="12" width="35.8818" height="35" filterUnits="userSpaceOnUse" color-interpolation-filters="sRGB">
<feFlood flood-opacity="0" result="BackgroundImageFix"/>
<feBlend mode="normal" in="SourceGraphic" in2="BackgroundImageFix" result="shape"/>
<feGaussianBlur stdDeviation="2" result="effect1_foregroundBlur_388_28"/>
</filter>
<filter id="filter2_d_388_28" x="7.11816" y="8" width="43.8818" height="46" filterUnits="userSpaceOnUse" color-interpolation-filters="sRGB">
<feFlood flood-opacity="0" result="BackgroundImageFix"/>
<feColorMatrix in="SourceAlpha" type="matrix" values="0 0 0 0 0 0 0 0 0 0 0 0 0 0 0 0 0 0 127 0" result="hardAlpha"/>
<feOffset dx="4" dy="4"/>
<feGaussianBlur stdDeviation="4"/>
<feComposite in2="hardAlpha" operator="out"/>
<feColorMatrix type="matrix" values="0 0 0 0 1 0 0 0 0 1 0 0 0 0 1 0 0 0 0.48 0"/>
<feBlend mode="soft-light" in2="BackgroundImageFix" result="effect1_dropShadow_388_28"/>
<feBlend mode="normal" in="SourceGraphic" in2="effect1_dropShadow_388_28" result="shape"/>
</filter>
<linearGradient id="paint0_linear_388_28" x1="18" y1="8.5" x2="31.9998" y2="45.0001" gradientUnits="userSpaceOnUse">
<stop stop-color="#BEFAFA"/>
<stop offset="0.299076" stop-color="#9DDAF5"/>
<stop offset="0.9946" stop-color="#4B8EF3"/>
</linearGradient>
<linearGradient id="paint1_linear_388_28" x1="13.9773" y1="7.70455" x2="28.0909" y2="27.0455" gradientUnits="userSpaceOnUse">
<stop stop-color="white"/>
<stop offset="1" stop-color="white" stop-opacity="0"/>
</linearGradient>
<linearGradient id="paint2_linear_388_28" x1="28.6136" y1="29.1364" x2="40.1136" y2="43.25" gradientUnits="userSpaceOnUse">
<stop stop-opacity="0"/>
<stop offset="1"/>
</linearGradient>
<linearGradient id="paint3_linear_388_28" x1="18.5" y1="12" x2="33.5" y2="39.5" gradientUnits="userSpaceOnUse">
<stop stop-color="#143770"/>
<stop offset="1" stop-color="#107171"/>
</linearGradient>
<linearGradient id="paint4_linear_388_28" x1="25" y1="26" x2="35.5" y2="37.5" gradientUnits="userSpaceOnUse">
<stop stop-color="white" stop-opacity="0"/>
<stop offset="1" stop-color="white"/>
</linearGradient>
<linearGradient id="paint5_linear_388_28" x1="17" y1="13" x2="27.5" y2="27" gradientUnits="userSpaceOnUse">
<stop/>
<stop offset="1" stop-opacity="0"/>
</linearGradient>
<linearGradient id="paint6_linear_388_28" x1="18.5" y1="12" x2="33.5" y2="39.5" gradientUnits="userSpaceOnUse">
<stop stop-color="#1856B4"/>
<stop offset="1" stop-color="#007E7E"/>
</linearGradient>
<linearGradient id="paint7_linear_388_28" x1="28" y1="28" x2="31.74" y2="31.7587" gradientUnits="userSpaceOnUse">
<stop stop-color="white"/>
<stop offset="1" stop-color="#15A7B6"/>
</linearGradient>
<linearGradient id="paint8_linear_388_28" x1="26" y1="27" x2="29.74" y2="30.7587" gradientUnits="userSpaceOnUse">
<stop stop-color="#56DADA"/>
<stop offset="1" stop-color="#209BAC"/>
</linearGradient>
<linearGradient id="paint9_linear_388_28" x1="27.5" y1="27.9999" x2="25.4461" y2="41.6423" gradientUnits="userSpaceOnUse">
<stop stop-color="#8DD9E3"/>
<stop offset="1" stop-color="#F8FFEB"/>
</linearGradient>
<linearGradient id="paint10_linear_388_28" x1="12" y1="46" x2="30.0818" y2="30.596" gradientUnits="userSpaceOnUse">
<stop stop-opacity="0"/>
<stop offset="1"/>
</linearGradient>
<linearGradient id="paint11_linear_388_28" x1="24" y1="18.5" x2="12.3451" y2="35.1937" gradientUnits="userSpaceOnUse">
<stop stop-color="#F8FFEB"/>
<stop offset="1" stop-color="#98E2EC"/>
</linearGradient>
<linearGradient id="paint12_linear_388_28" x1="16" y1="26" x2="16.2766" y2="33.0088" gradientUnits="userSpaceOnUse">
<stop stop-color="white"/>
<stop offset="1" stop-color="white" stop-opacity="0"/>
</linearGradient>
<linearGradient id="paint13_linear_388_28" x1="20" y1="24" x2="27.354" y2="34.0048" gradientUnits="userSpaceOnUse">
<stop stop-opacity="0"/>
<stop offset="1"/>
</linearGradient>
</defs>
</svg>
