<svg width="195" height="44" viewBox="0 0 195 44" fill="none" xmlns="http://www.w3.org/2000/svg">
<g id="Layer 1">
<g id="Group">
<g id="Group_2">
<path id="Vector" d="M12.4766 26.3984H21.2176C24.5916 32.2564 27.9657 38.1143 31.3305 43.9722H22.5895C19.2154 38.1143 15.8413 32.2564 12.4766 26.3984Z" fill="#FEFEFE" fill-opacity="0.996078"/>
<path id="Vector_2" d="M16.5922 14.1525V20.7729L8.92642 25.2082L0.926938 29.848V23.2277L9.22304 18.4205L16.5922 14.1525ZM17.5191 12.5439C11.6794 15.9285 5.83971 19.3131 0 22.6884V31.4566C5.83971 28.0721 11.6794 24.6875 17.5191 21.3122V12.5439Z" fill="#FEFEFE" fill-opacity="0.996078"/>
<path id="Vector_3" d="M31.3305 17.6021H22.5895C19.2154 11.7442 15.8413 5.88624 12.4766 0.0283203H21.2176C24.5916 5.88624 27.9657 11.7442 31.3305 17.6021Z" fill="#FEFEFE" fill-opacity="0.996078"/>
<path id="Vector_4" d="M42.8803 14.1525V20.7729L34.5842 25.5801L27.215 29.848V23.2277L36.1414 18.0578L42.8803 14.1525ZM43.8072 12.5439C37.9675 15.9285 32.1278 19.3131 26.2881 22.6884V31.4566C32.1278 28.0721 37.9675 24.6875 43.8072 21.3122V12.5439Z" fill="#FEFEFE" fill-opacity="0.996078"/>
</g>
<g id="Group_3">
<path id="Vector_5" d="M55.162 11.7163L59.5464 28.1092L64.144 11.7442H67.3513L71.8006 28.1092L76.2499 11.7442H79.6981L73.812 32.4236H69.8354L65.6271 17.2116L61.5023 32.4236H57.5257L51.6396 11.7442L55.1713 11.7163H55.162Z" fill="#FEFEFE" fill-opacity="0.996078"/>
<path id="Vector_6" d="M80.8566 28.9275C80.217 27.7559 79.9019 26.3983 79.9019 24.8641C79.9019 23.3299 80.217 22.0003 80.8566 20.8287C81.4962 19.6571 82.3953 18.7459 83.5633 18.095C84.7312 17.4441 86.0753 17.1187 87.5862 17.1187C89.0971 17.1187 90.4411 17.4441 91.6091 18.095C92.777 18.7459 93.6762 19.6571 94.3157 20.8287C94.9553 22.0003 95.2705 23.3485 95.2705 24.8641C95.2705 26.3797 94.9553 27.7559 94.3157 28.9275C93.6762 30.0991 92.777 31.001 91.6091 31.6426C90.4411 32.2841 89.0971 32.6003 87.5862 32.6003C86.0753 32.6003 84.7312 32.2841 83.5633 31.6426C82.3953 31.001 81.4962 30.0991 80.8566 28.9275ZM92.0355 24.8641C92.0355 23.3857 91.6276 22.1769 90.8119 21.2471C89.9962 20.3173 88.921 19.843 87.5862 19.843C86.2514 19.843 85.1854 20.308 84.379 21.2471C83.5725 22.1862 83.174 23.3857 83.174 24.8641C83.174 26.3425 83.5725 27.5513 84.379 28.4811C85.1854 29.411 86.2514 29.8852 87.5862 29.8852C88.921 29.8852 89.9962 29.4203 90.8119 28.4811C91.6276 27.542 92.0355 26.3425 92.0355 24.8641Z" fill="#FEFEFE" fill-opacity="0.996078"/>
<path id="Vector_7" d="M101.018 11.7441V32.4235H97.8384V11.7441H101.018Z" fill="#FEFEFE" fill-opacity="0.996078"/>
<path id="Vector_8" d="M108.35 11.7441H111.381V14.5522H108.786C108.276 14.5522 107.905 14.6731 107.664 14.9056C107.432 15.138 107.312 15.5192 107.312 16.0306V17.3045H111.344V20.1126H107.312V32.4328H104.132V15.7982C104.132 14.4592 104.475 13.4457 105.161 12.767C105.847 12.0882 106.904 11.7441 108.341 11.7441H108.35Z" fill="#FEFEFE" fill-opacity="0.996078"/>
<path id="Vector_9" d="M125.137 12.5624C126.221 13.1017 127.056 13.8734 127.64 14.8684C128.233 15.8633 128.52 17.0163 128.52 18.3366C128.52 19.657 128.223 20.81 127.64 21.8049C127.056 22.7998 126.212 23.5715 125.137 24.1108C124.062 24.6502 122.81 24.9198 121.401 24.9198H116.655V32.4235H113.272V11.7441H121.401C122.81 11.7441 124.062 12.0138 125.137 12.5531V12.5624ZM121.105 21.9722C122.319 21.9722 123.292 21.6468 124.006 20.9866C124.72 20.3265 125.081 19.4431 125.081 18.3459C125.081 17.2487 124.729 16.3375 124.024 15.6866C123.32 15.0357 122.356 14.7103 121.142 14.7103H116.665V21.9815H121.114L121.105 21.9722Z" fill="#FEFEFE" fill-opacity="0.996078"/>
<path id="Vector_10" d="M133.98 11.7441V32.4235H130.8V11.7441H133.98Z" fill="#FEFEFE" fill-opacity="0.996078"/>
<path id="Vector_11" d="M151.527 32.4236H149.849C148.866 32.4236 148.162 32.219 147.726 31.8006C147.291 31.3822 147.077 30.7871 147.077 29.9967C145.937 31.7262 144.278 32.6003 142.1 32.6003C140.413 32.6003 139.059 32.2097 138.04 31.4194C137.02 30.629 136.51 29.5504 136.51 28.1743C136.51 26.6215 137.057 25.422 138.16 24.5852C139.263 23.7483 140.858 23.3299 142.962 23.3299H146.762V22.4187C146.762 21.5725 146.466 20.903 145.882 20.4288C145.298 19.9453 144.482 19.7036 143.434 19.7036C142.508 19.7036 141.747 19.9081 141.154 20.3079C140.552 20.7078 140.199 21.2471 140.079 21.9165H136.955C137.113 20.4009 137.78 19.22 138.957 18.3832C140.135 17.5464 141.673 17.1279 143.583 17.1279C145.604 17.1279 147.17 17.6021 148.264 18.5413C149.367 19.4897 149.914 20.8472 149.914 22.6139V28.5834C149.914 29.2901 150.247 29.6434 150.915 29.6434H151.536V32.4236H151.527ZM142.813 25.6916C141.831 25.6916 141.08 25.8869 140.542 26.2681C140.014 26.6494 139.745 27.2166 139.745 27.9697C139.745 28.6206 139.996 29.1413 140.496 29.5318C140.997 29.9224 141.683 30.1269 142.545 30.1269C143.861 30.1269 144.89 29.7736 145.622 29.0669C146.354 28.3603 146.734 27.4118 146.753 26.2309V25.7009H142.804L142.813 25.6916Z" fill="#FEFEFE" fill-opacity="0.996078"/>
<path id="Vector_12" d="M167.284 24.0924V32.4236H164.077V24.269C164.077 22.8278 163.771 21.7399 163.169 20.9868C162.557 20.2429 161.667 19.8617 160.49 19.8617C159.229 19.8617 158.247 20.2987 157.533 21.1727C156.819 22.0468 156.458 23.2555 156.458 24.7897V32.4143H153.278V17.286H156.05L156.402 19.2666C157.542 17.8253 159.155 17.1094 161.231 17.1094C163.02 17.1094 164.476 17.658 165.607 18.7645C166.737 19.871 167.303 21.6376 167.303 24.0831L167.284 24.0924Z" fill="#FEFEFE" fill-opacity="0.996078"/>
<path id="Vector_13" d="M173.134 18.0857C174.246 17.4441 175.516 17.1279 176.943 17.1279C178.371 17.1279 179.678 17.4255 180.79 18.0113C181.903 18.6064 182.774 19.4432 183.413 20.5218C184.053 21.6004 184.377 22.8743 184.396 24.3341C184.396 24.7246 184.368 25.1337 184.303 25.5429H172.939V25.7195C173.013 27.0399 173.43 28.0813 174.172 28.8531C174.923 29.6248 175.915 30.006 177.147 30.006C178.13 30.006 178.955 29.7736 179.622 29.3087C180.29 28.8438 180.735 28.1929 180.948 27.3467H184.127C183.849 28.881 183.108 30.1455 181.903 31.1311C180.698 32.1168 179.187 32.6096 177.379 32.6096C175.813 32.6096 174.441 32.2934 173.273 31.6518C172.105 31.0103 171.206 30.1083 170.566 28.946C169.926 27.7838 169.611 26.4355 169.611 24.9013C169.611 23.3671 169.917 21.9816 170.538 20.81C171.159 19.6385 172.021 18.7365 173.134 18.095V18.0857ZM179.854 20.6241C179.122 20.0011 178.195 19.6943 177.073 19.6943C176.035 19.6943 175.136 20.0104 174.376 20.652C173.616 21.2936 173.18 22.1397 173.069 23.209H181.17C181.031 22.1025 180.596 21.2471 179.863 20.6241H179.854Z" fill="#FEFEFE" fill-opacity="0.996078"/>
<path id="Vector_14" d="M185.202 20.1125V17.3044H187.825V13.083H191.033V17.3044H194.657V20.1125H191.033V27.9974C191.033 28.5925 191.153 29.011 191.385 29.2527C191.617 29.4945 192.024 29.6246 192.59 29.6246H195V32.4327H191.941C190.504 32.4327 189.466 32.098 188.808 31.4285C188.15 30.759 187.825 29.7269 187.825 28.3229V20.1125H185.202Z" fill="#FEFEFE" fill-opacity="0.996078"/>
</g>
</g>
</g>
</svg>
