<svg width="120" height="121" viewBox="0 0 120 121" fill="none" xmlns="http://www.w3.org/2000/svg">
<path d="M59.8711 11.7498C50.2549 11.7498 40.8546 14.6013 32.8589 19.9438C24.8633 25.2863 18.6315 32.8798 14.9515 41.7641C11.2715 50.6484 10.3086 60.4244 12.1847 69.8559C14.0607 79.2873 18.6914 87.9507 25.4911 94.7505C32.2908 101.55 40.9542 106.181 50.3857 108.057C59.8172 109.933 69.5932 108.97 78.4774 105.29C87.3617 101.61 94.9552 95.3783 100.298 87.3826C105.64 79.387 108.492 69.9867 108.492 60.3704C108.478 47.4796 103.351 35.1207 94.2361 26.0055C85.1209 16.8903 72.762 11.7634 59.8711 11.7498ZM101.012 60.3704C101.016 65.6485 99.9998 70.8776 98.0197 75.7701L77.1221 62.9183C76.2336 62.3701 75.2397 62.0149 74.2049 61.8758L63.5364 60.4359C62.0663 60.2442 60.5724 60.4906 59.2418 61.1443C57.9111 61.798 56.803 62.8298 56.0563 64.1105H51.9796L50.2031 60.4359C49.712 59.4127 48.9932 58.5155 48.1018 57.8129C47.2105 57.1104 46.1701 56.6211 45.0605 56.3826L41.3205 55.5738L44.9764 49.1503H52.7884C54.0525 49.1478 55.2955 48.8262 56.4022 48.2153L62.1292 45.0549C62.6323 44.7745 63.1027 44.4389 63.5317 44.0545L76.1123 32.6753C77.3736 31.545 78.212 30.0184 78.4891 28.3475C78.7661 26.6766 78.4653 24.9612 77.6364 23.4842L77.4681 23.1803C84.5078 26.5183 90.4565 31.7842 94.6238 38.367C98.7911 44.9498 101.006 52.5795 101.012 60.3704ZM18.7306 60.3704C18.7243 54.2555 20.0886 48.217 22.7231 42.6987L28.0246 56.8501C28.4664 58.0218 29.1953 59.0638 30.1444 59.8806C31.0936 60.6974 32.2326 61.2629 33.457 61.5252L43.4757 63.6804L45.2569 67.383C45.875 68.6424 46.833 69.7037 48.0227 70.4472C49.2123 71.1908 50.5861 71.5868 51.989 71.5906H52.6809L49.3008 79.1782C48.7052 80.5143 48.5145 81.9956 48.7521 83.4389C48.9898 84.8823 49.6454 86.2242 50.6379 87.2988L50.7033 87.3643L59.8711 96.8079L58.9642 101.483C48.2201 101.233 37.9991 96.7938 30.4824 89.1129C22.9656 81.4319 18.7484 71.1174 18.7306 60.3704Z" fill="url(#paint0_linear_1049_3149)"/>
<defs>
<linearGradient id="paint0_linear_1049_3149" x1="59.8711" y1="11.7498" x2="59.8711" y2="108.991" gradientUnits="userSpaceOnUse">
<stop stop-color="#9198B0"/>
<stop offset="1" stop-color="#6C7591"/>
</linearGradient>
</defs>
</svg>
