<svg width="102" height="101" viewBox="0 0 102 101" fill="none" xmlns="http://www.w3.org/2000/svg">
<path fill-rule="evenodd" clip-rule="evenodd" d="M88.9807 10.8641C88.9807 6.9874 85.8019 3.84473 81.8806 3.84473H20.3469C16.4256 3.84473 13.2468 6.9874 13.2468 10.8641V59.9997C13.2468 80.6753 30.2004 97.4363 51.1138 97.4363C72.0271 97.4363 88.9807 80.6753 88.9807 59.9997V10.8641ZM84.2476 12.034C84.2476 10.0956 82.6582 8.52429 80.6976 8.52429H21.5305C19.5699 8.52429 17.9805 10.0956 17.9805 12.034V59.9996C17.9805 78.0909 32.8149 92.7567 51.1141 92.7567C69.4132 92.7567 84.2476 78.0909 84.2476 59.9996V12.034Z" fill="url(#paint0_linear_1049_3213)"/>
<path fill-rule="evenodd" clip-rule="evenodd" d="M74.1801 38C75.344 38 76.2874 38.9327 76.2874 40.0833V58.8333C76.2874 72.6404 64.9659 83.8333 51.0001 83.8333C37.0342 83.8333 25.7127 72.6404 25.7127 58.8333V40.0833C25.7127 38.9327 26.6562 38 27.82 38H74.1801ZM34.3177 50.3715C35.8256 47.8096 39.1782 46.3333 42.3991 46.3333C45.4882 46.3333 48.2991 47.5635 49.7339 49.6044C50.012 49.9951 50.0414 50.082 50.0414 50.4583V71.8653C50.0414 72.2416 49.7778 72.4731 49.4556 72.4731C49.2946 72.4731 49.1043 72.4007 48.9433 72.2705C47.3914 70.9533 45.2686 70.1573 42.9847 70.1573C40.5398 70.1573 38.0949 70.9678 36.2502 72.531C35.9867 72.7771 35.6499 72.8784 35.2986 72.8784C34.5666 72.8784 34.142 72.4731 34.142 71.8073V51.3846C34.142 50.8491 34.1566 50.6609 34.3177 50.3715ZM52.2666 49.6044C53.7014 47.5635 56.5124 46.3333 59.6014 46.3333C62.8223 46.3333 66.1749 47.8096 67.6828 50.3715C67.8439 50.6465 67.8585 50.8491 67.8585 51.3846V71.8073C67.8585 72.4731 67.4339 72.8784 66.702 72.8784C66.3506 72.8784 66.0139 72.7771 65.7503 72.531C63.9056 70.9678 61.4608 70.1573 59.0158 70.1573C56.732 70.1573 54.609 70.9533 53.0572 72.2705C52.9108 72.4007 52.7058 72.4731 52.5448 72.4731C52.2226 72.4731 51.9592 72.2416 51.9592 71.8653V50.4583C51.9592 50.082 51.9885 49.9951 52.2666 49.6044Z" fill="url(#paint1_linear_1049_3213)"/>
<path fill-rule="evenodd" clip-rule="evenodd" d="M44.0031 18.2083H40.7225V28.1353L33.6738 18.2083H30.3489V33.5481H33.6073V23.5772L40.6782 33.5481H44.0031V18.2083ZM58.0201 21.2105H50.2177V24.6729H57.3552V27.6751H50.2177V33.5481H46.9593V18.2083H58.0201V21.2105ZM72.4945 18.2083V21.2762H67.7953V33.5481H64.5147V21.2762H59.8156V18.2083H72.4945Z" fill="#9198B0"/>
<defs>
<linearGradient id="paint0_linear_1049_3213" x1="51.1138" y1="3.84473" x2="51.1138" y2="97.4363" gradientUnits="userSpaceOnUse">
<stop stop-color="#9198B0"/>
<stop offset="1" stop-color="#6C7591"/>
</linearGradient>
<linearGradient id="paint1_linear_1049_3213" x1="51.0001" y1="38" x2="51.0001" y2="83.8333" gradientUnits="userSpaceOnUse">
<stop stop-color="#9198B0"/>
<stop offset="1" stop-color="#6C7591"/>
</linearGradient>
</defs>
</svg>
