<svg width="80" height="81" viewBox="0 0 80 81" fill="none" xmlns="http://www.w3.org/2000/svg">
<path fill-rule="evenodd" clip-rule="evenodd" d="M78 40.5C78 61.4868 60.9868 78.5 40 78.5C19.0132 78.5 2 61.4868 2 40.5C2 19.5132 19.0132 2.5 40 2.5C60.9868 2.5 78 19.5132 78 40.5ZM70.4 40.5C70.4 57.2895 56.7895 70.9 40 70.9C29.6834 70.9 20.5671 65.761 15.0712 57.9033C26.6052 61.7511 39.3132 59.4056 49.1094 49.6093C58.9057 39.8131 61.2511 27.1051 57.4034 15.5712C65.2611 21.0671 70.4 30.1834 70.4 40.5ZM46.1212 10.7165C44.1439 10.3123 42.0967 10.1 40 10.1C23.2105 10.1 9.6 23.7105 9.6 40.5C9.6 42.5967 9.81227 44.6439 10.2165 46.6212C20.4153 53.3983 33.5726 52.8131 42.9429 43.4428C52.3133 34.0725 52.8983 20.9153 46.1212 10.7165Z" fill="url(#paint0_linear_1049_3172)"/>
<path d="M40 70.9C56.7895 70.9 70.4 57.2895 70.4 40.5C70.4 30.1834 65.2611 21.0671 57.4034 15.5712C61.2511 27.1051 58.9057 39.8131 49.1094 49.6093C39.3132 59.4056 26.6052 61.7511 15.0712 57.9033C20.5671 65.761 29.6834 70.9 40 70.9Z" fill="url(#paint1_linear_1049_3172)"/>
<defs>
<linearGradient id="paint0_linear_1049_3172" x1="40" y1="2.5" x2="40" y2="78.5" gradientUnits="userSpaceOnUse">
<stop stop-color="#9198B0"/>
<stop offset="1" stop-color="#6C7591"/>
</linearGradient>
<linearGradient id="paint1_linear_1049_3172" x1="40" y1="2.5" x2="40" y2="78.5" gradientUnits="userSpaceOnUse">
<stop stop-color="#9198B0"/>
<stop offset="1" stop-color="#6C7591"/>
</linearGradient>
</defs>
</svg>
