<svg width="80" height="80" viewBox="0 0 80 80" fill="none" xmlns="http://www.w3.org/2000/svg">
<g clip-path="url(#clip0_1408_12555)">
<path fill-rule="evenodd" clip-rule="evenodd" d="M72.3679 6C72.3679 2.68629 69.6507 0 66.2989 0H13.7012C10.3494 0 7.63226 2.68629 7.63226 6V48C7.63226 65.6731 22.1238 80 40.0001 80C57.8763 80 72.3679 65.6731 72.3679 48V6ZM68.3222 6.99999C68.3222 5.34313 66.9636 3.99999 65.2877 3.99999H14.713C13.0371 3.99999 11.6785 5.34313 11.6785 6.99999V48C11.6785 63.464 24.3586 76 40.0004 76C55.6421 76 68.3222 63.464 68.3222 48V6.99999Z" fill="url(#paint0_linear_1408_12555)"/>
<path fill-rule="evenodd" clip-rule="evenodd" d="M59.7167 29.1952C60.7115 29.1952 61.5179 29.9925 61.5179 30.976V47.0031C61.5179 58.8051 51.8405 68.3725 39.9029 68.3725C27.9652 68.3725 18.2878 58.8051 18.2878 47.0031V30.976C18.2878 29.9925 19.0942 29.1952 20.089 29.1952H59.7167ZM25.6431 39.77C26.9321 37.5802 29.7978 36.3183 32.5509 36.3183C35.1914 36.3183 37.5942 37.3699 38.8206 39.1143C39.0583 39.4484 39.0834 39.5226 39.0834 39.8443V58.1425C39.0834 58.4641 38.8581 58.662 38.5827 58.662C38.4451 58.662 38.2824 58.6002 38.1448 58.4888C36.8183 57.3629 35.0037 56.6825 33.0515 56.6825C30.9616 56.6825 28.8718 57.3754 27.295 58.7115C27.0697 58.9218 26.7819 59.0085 26.4816 59.0085C25.8559 59.0085 25.4929 58.662 25.4929 58.0929V40.6361C25.4929 40.1783 25.5055 40.0175 25.6431 39.77ZM40.9854 39.1143C42.2119 37.3699 44.6146 36.3183 47.2551 36.3183C50.0083 36.3183 52.874 37.5802 54.1629 39.77C54.3006 40.0051 54.3131 40.1783 54.3131 40.6361V58.0929C54.3131 58.662 53.9501 59.0085 53.3245 59.0085C53.0242 59.0085 52.7364 58.9218 52.5111 58.7115C50.9342 57.3754 48.8445 56.6825 46.7545 56.6825C44.8024 56.6825 42.9877 57.3629 41.6613 58.4888C41.5361 58.6002 41.3609 58.662 41.2233 58.662C40.9479 58.662 40.7227 58.4641 40.7227 58.1425V39.8443C40.7227 39.5226 40.7477 39.4484 40.9854 39.1143Z" fill="url(#paint1_linear_1408_12555)"/>
<path fill-rule="evenodd" clip-rule="evenodd" d="M33.9218 12.2776H31.1176V20.763L25.0925 12.2776H22.2504V25.3898H25.0356V16.8669L31.0797 25.3898H33.9218V12.2776ZM45.9032 14.8438H39.2339V17.8034H45.3348V20.3697H39.2339V25.3898H36.4487V12.2776H45.9032V14.8438ZM58.2756 12.2776V14.9H54.2588V25.3898H51.4546V14.9H47.4379V12.2776H58.2756Z" fill="url(#paint2_linear_1408_12555)"/>
</g>
<defs>
<linearGradient id="paint0_linear_1408_12555" x1="40.0001" y1="0" x2="40.0001" y2="80" gradientUnits="userSpaceOnUse">
<stop stop-color="#9198B0"/>
<stop offset="1" stop-color="#6C7591"/>
</linearGradient>
<linearGradient id="paint1_linear_1408_12555" x1="40.0001" y1="0" x2="40.0001" y2="80" gradientUnits="userSpaceOnUse">
<stop stop-color="#9198B0"/>
<stop offset="1" stop-color="#6C7591"/>
</linearGradient>
<linearGradient id="paint2_linear_1408_12555" x1="40.0001" y1="0" x2="40.0001" y2="80" gradientUnits="userSpaceOnUse">
<stop stop-color="#9198B0"/>
<stop offset="1" stop-color="#6C7591"/>
</linearGradient>
<clipPath id="clip0_1408_12555">
<rect width="80" height="80" fill="white"/>
</clipPath>
</defs>
</svg>
