<svg width="80" height="80" viewBox="0 0 80 80" fill="none" xmlns="http://www.w3.org/2000/svg">
<path d="M40 0C32.0888 0 24.3552 2.34596 17.7772 6.74121C11.1992 11.1365 6.07234 17.3836 3.04484 24.6927C0.0173314 32.0017 -0.774802 40.0444 0.768607 47.8036C2.31202 55.5628 6.12164 62.6902 11.7157 68.2843C17.3098 73.8784 24.4372 77.688 32.1964 79.2314C39.9556 80.7748 47.9983 79.9827 55.3073 76.9552C62.6164 73.9277 68.8635 68.8008 73.2588 62.2228C77.654 55.6448 80 47.9112 80 40C79.9888 29.3948 75.7709 19.2271 68.2719 11.7281C60.7729 4.22907 50.6052 0.0111993 40 0ZM73.8462 40C73.8495 44.3422 73.0137 48.6442 71.3846 52.6692L54.1923 42.0961C53.4613 41.6451 52.6436 41.3528 51.7923 41.2385L43.0154 40.0538C41.806 39.8961 40.5769 40.0989 39.4822 40.6366C38.3875 41.1744 37.4759 42.0233 36.8615 43.0769H33.5077L32.0462 40.0538C31.6421 39.2121 31.0508 38.4739 30.3175 37.8959C29.5841 37.3179 28.7283 36.9154 27.8154 36.7192L24.7385 36.0538L27.7462 30.7692H34.1731C35.2131 30.7672 36.2357 30.5026 37.1462 30L41.8577 27.4C42.2716 27.1693 42.6586 26.8932 43.0115 26.5769L53.3615 17.2154C54.3992 16.2854 55.0889 15.0295 55.3169 13.6549C55.5448 12.2802 55.2974 10.869 54.6154 9.65384L54.4769 9.40384C60.2685 12.15 65.1624 16.4823 68.5908 21.8979C72.0193 27.3135 73.8415 33.5904 73.8462 40ZM6.15386 40C6.14872 34.9693 7.2711 30.0014 9.43848 25.4615L13.8 37.1038C14.1635 38.0678 14.7631 38.925 15.544 39.597C16.3248 40.269 17.2619 40.7342 18.2692 40.95L26.5116 42.7231L27.9769 45.7692C28.4855 46.8053 29.2736 47.6784 30.2523 48.2901C31.231 48.9018 32.3613 49.2276 33.5154 49.2308H34.0846L31.3039 55.4731C30.8139 56.5722 30.657 57.7909 30.8525 58.9783C31.048 60.1658 31.5874 61.2698 32.4039 62.1538L32.4577 62.2077L40 69.9769L39.2539 73.8231C30.4147 73.6174 22.006 69.9653 15.822 63.6462C9.63804 57.3272 6.16853 48.8415 6.15386 40Z" fill="url(#paint0_linear_1408_12592)"/>
<defs>
<linearGradient id="paint0_linear_1408_12592" x1="40" y1="0" x2="40" y2="80" gradientUnits="userSpaceOnUse">
<stop stop-color="#9198B0"/>
<stop offset="1" stop-color="#6C7591"/>
</linearGradient>
</defs>
</svg>
