<svg width="80" height="80" viewBox="0 0 80 80" fill="none" xmlns="http://www.w3.org/2000/svg">
<path fill-rule="evenodd" clip-rule="evenodd" d="M80 40C80 62.0914 62.0914 80 40 80C17.9086 80 0 62.0914 0 40C0 17.9086 17.9086 0 40 0C62.0914 0 80 17.9086 80 40ZM62.5 40C62.5 52.4264 52.4264 62.5 40 62.5C27.5736 62.5 17.5 52.4264 17.5 40C17.5 38.0128 17.7576 36.0858 18.2413 34.2505C19.9807 39.0616 24.5888 42.5 30 42.5C36.9036 42.5 42.5 36.9036 42.5 30C42.5 24.5888 39.0616 19.9807 34.2505 18.2413C36.0858 17.7576 38.0128 17.5 40 17.5C52.4264 17.5 62.5 27.5736 62.5 40Z" fill="url(#paint0_linear_1408_12591)"/>
<defs>
<linearGradient id="paint0_linear_1408_12591" x1="40" y1="0" x2="40" y2="80" gradientUnits="userSpaceOnUse">
<stop stop-color="#9198B0"/>
<stop offset="1" stop-color="#6C7591"/>
</linearGradient>
</defs>
</svg>
